<svg xmlns="http://www.w3.org/2000/svg" viewBox="0 0 446 360" width="446" height="360" preserveAspectRatio="xMidYMid meet" style="width: 100%; height: 100%; transform: translate3d(0px, 0px, 0px);"><defs><clipPath id="__lottie_element_2"><rect width="446" height="360" x="0" y="0"></rect></clipPath><clipPath id="__lottie_element_10"><path d="M0,0 L200,0 L200,200 L0,200z"></path></clipPath><clipPath id="__lottie_element_14"><path d="M0,0 L200,0 L200,200 L0,200z"></path></clipPath><clipPath id="__lottie_element_18"><path d="M0,0 L200,0 L200,200 L0,200z"></path></clipPath><clipPath id="__lottie_element_25"><path d="M0,0 L200,0 L200,200 L0,200z"></path></clipPath></defs><g clip-path="url(#__lottie_element_2)"><g transform="matrix(1,0,0,1,223,180)" opacity="1" style="display: block;"><g opacity="1" transform="matrix(1,0,0,1,0,0)"><path fill="rgb(241,243,51)" fill-opacity="1" d=" M-186,6.287038803100586 C-168.49761962890625,6.287038803100586 -154.2870330810547,20.497615814208984 -154.2870330810547,38 C-154.2870330810547,55.502384185791016 -168.49761962890625,69.71295928955078 -186,69.71295928955078 C-203.50238037109375,69.71295928955078 -217.7129669189453,55.502384185791016 -217.7129669189453,38 C-217.7129669189453,20.497615814208984 -203.50238037109375,6.287038803100586 -186,6.287038803100586z M19,98.80303192138672 C40.08090591430664,98.80303192138672 57.19696807861328,115.9190902709961 57.19696807861328,137 C57.19696807861328,158.08090209960938 40.08090591430664,175.19696044921875 19,175.19696044921875 C-2.080906629562378,175.19696044921875 -19.19696807861328,158.08090209960938 -19.19696807861328,137 C-19.19696807861328,115.9190902709961 -2.080906629562378,98.80303192138672 19,98.80303192138672z M178.9250030517578,151.39100646972656 C207.86599731445312,131.35400390625 222.44500732421875,96.05799865722656 217.0240020751953,58.625 C214.156005859375,38.97600173950195 206.05299377441406,20.46299934387207 193.56500244140625,5.0269999504089355 C198.41400146484375,1.475000023841858 202.35699462890625,-3.1710000038146973 205.0760040283203,-8.531999588012695 C207.79400634765625,-13.894000053405762 209.21099853515625,-19.820999145507812 209.21099853515625,-25.83300018310547 C209.2010040283203,-34.67100143432617 206.13900756835938,-43.23500061035156 200.54400634765625,-50.07400131225586 C194.947998046875,-56.91400146484375 187.16299438476562,-61.611000061035156 178.50399780273438,-63.36899948120117 C182.91700744628906,-68.83100128173828 185.322998046875,-75.64299774169922 185.3209991455078,-82.66600036621094 C185.3209991455078,-82.76899719238281 185.3209991455078,-82.88099670410156 185.3209991455078,-82.99400329589844 C185.3209991455078,-83.10700225830078 185.3209991455078,-83.20999908447266 185.3209991455078,-83.322998046875 C185.322998046875,-89.8030014038086 183.28199768066406,-96.11799621582031 179.48899841308594,-101.37100219726562 C175.6959991455078,-106.6240005493164 170.34300231933594,-110.5459976196289 164.1929931640625,-112.58100128173828 C164.11700439453125,-120.7020034790039 160.83900451660156,-128.46499633789062 155.0709991455078,-134.18099975585938 C149.30299377441406,-139.89700317382812 141.51199340820312,-143.10299682617188 133.39300537109375,-143.10299682617188 C133.39300537109375,-143.10299682617188 132.8489990234375,-143.10299682617188 132.8489990234375,-143.10299682617188 C124.7300033569336,-143.10299682617188 116.94000244140625,-139.89700317382812 111.1719970703125,-134.18099975585938 C105.40399932861328,-128.46499633789062 102.1259994506836,-120.7020034790039 102.05000305175781,-112.58100128173828 C100.30799865722656,-111.99500274658203 98.62100219726562,-111.25599670410156 97.00900268554688,-110.37300109863281 C87.9530029296875,-121.03299713134766 76.2760009765625,-129.14999389648438 63.130001068115234,-133.9219970703125 C63.130001068115234,-133.9219970703125 62.29800033569336,-134.22000122070312 62.29800033569336,-134.22000122070312 C62.29800033569336,-134.22000122070312 61.73400115966797,-134.4250030517578 61.73400115966797,-134.4250030517578 C61.73400115966797,-134.4250030517578 61.599998474121094,-134.4250030517578 61.599998474121094,-134.4250030517578 C61.599998474121094,-134.4250030517578 61.47700119018555,-134.4250030517578 61.47700119018555,-134.4250030517578 C61.47700119018555,-134.4250030517578 37.62799835205078,-142.13800048828125 37.62799835205078,-142.13800048828125 C37.62799835205078,-142.13800048828125 37.21699905395508,-142.27099609375 37.21699905395508,-142.27099609375 C36.097999572753906,-142.6510009765625 34.979000091552734,-143.02099609375 33.86000061035156,-143.29800415039062 C33.86000061035156,-143.29800415039062 32.67900085449219,-143.61700439453125 32.67900085449219,-143.61700439453125 C23.551000595092773,-146.08099365234375 14.060999870300293,-146.9250030517578 4.642000198364258,-146.11199951171875 C2.2820000648498535,-150.60499572753906 -1.1449999809265137,-154.44900512695312 -5.336999893188477,-157.30599975585938 C-7.645999908447266,-162.97999572753906 -11.593999862670898,-167.83700561523438 -16.676000595092773,-171.25599670410156 C-21.757999420166016,-174.6750030517578 -27.743999481201172,-176.50100708007812 -33.86800003051758,-176.5 C-39.992000579833984,-176.50100708007812 -45.97800064086914,-174.6750030517578 -51.060001373291016,-171.25599670410156 C-56.141998291015625,-167.83700561523438 -60.09000015258789,-162.97999572753906 -62.39899826049805,-157.30599975585938 C-65.2030029296875,-155.38900756835938 -67.6760025024414,-153.02699279785156 -69.71800231933594,-150.31199645996094 C-69.71800231933594,-150.31199645996094 -76.10399627685547,-155.8070068359375 -76.10399627685547,-155.8070068359375 C-76.10399627685547,-155.8070068359375 -76.29900360107422,-155.9810028076172 -76.29900360107422,-155.9810028076172 C-76.8740005493164,-156.48399353027344 -77.4489974975586,-157.00799560546875 -78.04499816894531,-157.4600067138672 C-78.04499816894531,-157.4600067138672 -78.14700317382812,-157.54200744628906 -78.14700317382812,-157.54200744628906 C-78.14700317382812,-157.54200744628906 -78.78399658203125,-158.03500366210938 -78.78399658203125,-158.03500366210938 C-87.5510025024414,-164.77999877929688 -98.0780029296875,-168.8520050048828 -109.10099792480469,-169.76300048828125 C-109.63500213623047,-169.81399536132812 -110.12699890136719,-169.84500122070312 -110.68199920654297,-169.86599731445312 C-145.20799255371094,-172.16600036621094 -183.9219970703125,-146.88299560546875 -201.33399963378906,-110.41500091552734 C-216.24099731445312,-79.19499969482422 -211.16000366210938,-46.742000579833984 -188.82000732421875,-29.1299991607666 C-188.82000732421875,-29.1299991607666 -180.91400146484375,-22.301000595092773 -180.91400146484375,-22.301000595092773 C-184.1510009765625,-19.40999984741211 -186.74000549316406,-15.866999626159668 -188.50999450683594,-11.904000282287598 C-190.27999877929688,-7.940999984741211 -191.19000244140625,-3.6470000743865967 -191.18099975585938,0.6930000185966492 C-191.14700317382812,2.9230000972747803 -191.4949951171875,5.142000198364258 -192.20799255371094,7.25600004196167 C-196.75,12.5 -196.5,63.5 -192.20799255371094,68.94599914550781 C-191.49600219726562,71.05899810791016 -191.1479949951172,73.27799987792969 -191.18099975585938,75.50800323486328 C-191.1820068359375,81.68099975585938 -189.3280029296875,87.71299743652344 -185.86099243164062,92.81999969482422 C-182.3939971923828,97.927001953125 -177.47300720214844,101.8740005493164 -171.73599243164062,104.1500015258789 C-171.8719940185547,105.33300018310547 -171.9409942626953,106.52300262451172 -171.94200134277344,107.71399688720703 C-171.94400024414062,113.76100158691406 -170.1649932861328,119.6760025024414 -166.8300018310547,124.72000122070312 C-163.4949951171875,129.76300048828125 -158.74899291992188,133.71400451660156 -153.18499755859375,136.0780029296875 C-151.82000732421875,143.09500122070312 -148.05799865722656,149.41900634765625 -142.54400634765625,153.96600341796875 C-137.02999877929688,158.51400756835938 -130.1060028076172,161.00100708007812 -122.95999908447266,161.0030059814453 C-115.81199645996094,161.00399780273438 -108.88700103759766,158.51699829101562 -103.37100219726562,153.97000122070312 C-97.85399627685547,149.4219970703125 -94.09100341796875,143.0970001220703 -92.72599792480469,136.0780029296875 C-88.2760009765625,134.18099975585938 -84.33399963378906,131.26400756835938 -81.21800231933594,127.56199645996094 C-78.10299682617188,123.86100006103516 -75.9010009765625,119.47799682617188 -74.79000091552734,114.76899719238281 C-71.2979965209961,116.91000366210938 -67.64199829101562,118.77100372314453 -63.85599899291992,120.33499908447266 C-63.44599914550781,120.51000213623047 -63.025001525878906,120.67400360107422 -62.59400177001953,120.83799743652344 C-59.96500015258789,121.86900329589844 -57.28099822998047,122.75299835205078 -54.55500030517578,123.48799896240234 C-54.55500030517578,123.48799896240234 -32.26599884033203,130.73800659179688 -32.26599884033203,130.73800659179688 C-31.680999755859375,130.96400451660156 -31.086000442504883,131.19000244140625 -30.489999771118164,131.38499450683594 C-30.489999771118164,131.38499450683594 -30.222999572753906,131.47799682617188 -30.222999572753906,131.47799682617188 C-28.5310001373291,132.0330047607422 -26.79199981689453,132.43800354003906 -25.027999877929688,132.69000244140625 C-23.15999984741211,133.0800018310547 -21.270999908447266,133.4080047607422 -19.381999969482422,133.71600341796875 C-2.5,136.5 35,141.5 53.1609992980957,154.59500122070312 C71.06600189208984,168.4080047607422 92.17400360107422,175.85299682617188 113.73300170898438,175.85299682617188 C115.28299713134766,175.85299682617188 116.81300354003906,175.85299682617188 118.39399719238281,175.74000549316406 C129.32699584960938,175.22000122070312 140.06900024414062,172.67799377441406 150.0760040283203,168.2429962158203 C151.01100158691406,167.82200622558594 151.9250030517578,167.36000061035156 152.8070068359375,166.85699462890625 C152.8070068359375,166.85699462890625 169.1719970703125,157.53199768066406 169.1719970703125,157.53199768066406 C171.56399536132812,156.30999755859375 173.90499877929688,154.96400451660156 176.1739959716797,153.52699279785156 C177.13099670410156,152.8679962158203 178.0500030517578,152.15499877929688 178.9250030517578,151.39100646972656z"></path><path stroke-linecap="butt" stroke-linejoin="miter" fill-opacity="0" stroke-miterlimit="10" stroke="rgb(0,0,0)" stroke-opacity="1" stroke-width="3" d=" M-186,6.287038803100586 C-168.49761962890625,6.287038803100586 -154.2870330810547,20.497615814208984 -154.2870330810547,38 C-154.2870330810547,55.502384185791016 -168.49761962890625,69.71295928955078 -186,69.71295928955078 C-203.50238037109375,69.71295928955078 -217.7129669189453,55.502384185791016 -217.7129669189453,38 C-217.7129669189453,20.497615814208984 -203.50238037109375,6.287038803100586 -186,6.287038803100586z M19,98.80303192138672 C40.08090591430664,98.80303192138672 57.19696807861328,115.9190902709961 57.19696807861328,137 C57.19696807861328,158.08090209960938 40.08090591430664,175.19696044921875 19,175.19696044921875 C-2.080906629562378,175.19696044921875 -19.19696807861328,158.08090209960938 -19.19696807861328,137 C-19.19696807861328,115.9190902709961 -2.080906629562378,98.80303192138672 19,98.80303192138672z M178.9250030517578,151.39100646972656 C207.86599731445312,131.35400390625 222.44500732421875,96.05799865722656 217.0240020751953,58.625 C214.156005859375,38.97600173950195 206.05299377441406,20.46299934387207 193.56500244140625,5.0269999504089355 C198.41400146484375,1.475000023841858 202.35699462890625,-3.1710000038146973 205.0760040283203,-8.531999588012695 C207.79400634765625,-13.894000053405762 209.21099853515625,-19.820999145507812 209.21099853515625,-25.83300018310547 C209.2010040283203,-34.67100143432617 206.13900756835938,-43.23500061035156 200.54400634765625,-50.07400131225586 C194.947998046875,-56.91400146484375 187.16299438476562,-61.611000061035156 178.50399780273438,-63.36899948120117 C182.91700744628906,-68.83100128173828 185.322998046875,-75.64299774169922 185.3209991455078,-82.66600036621094 C185.3209991455078,-82.76899719238281 185.3209991455078,-82.88099670410156 185.3209991455078,-82.99400329589844 C185.3209991455078,-83.10700225830078 185.3209991455078,-83.20999908447266 185.3209991455078,-83.322998046875 C185.322998046875,-89.8030014038086 183.28199768066406,-96.11799621582031 179.48899841308594,-101.37100219726562 C175.6959991455078,-106.6240005493164 170.34300231933594,-110.5459976196289 164.1929931640625,-112.58100128173828 C164.11700439453125,-120.7020034790039 160.83900451660156,-128.46499633789062 155.0709991455078,-134.18099975585938 C149.30299377441406,-139.89700317382812 141.51199340820312,-143.10299682617188 133.39300537109375,-143.10299682617188 C133.39300537109375,-143.10299682617188 132.8489990234375,-143.10299682617188 132.8489990234375,-143.10299682617188 C124.7300033569336,-143.10299682617188 116.94000244140625,-139.89700317382812 111.1719970703125,-134.18099975585938 C105.40399932861328,-128.46499633789062 102.1259994506836,-120.7020034790039 102.05000305175781,-112.58100128173828 C100.30799865722656,-111.99500274658203 98.62100219726562,-111.25599670410156 97.00900268554688,-110.37300109863281 C87.9530029296875,-121.03299713134766 76.2760009765625,-129.14999389648438 63.130001068115234,-133.9219970703125 C63.130001068115234,-133.9219970703125 62.29800033569336,-134.22000122070312 62.29800033569336,-134.22000122070312 C62.29800033569336,-134.22000122070312 61.73400115966797,-134.4250030517578 61.73400115966797,-134.4250030517578 C61.73400115966797,-134.4250030517578 61.599998474121094,-134.4250030517578 61.599998474121094,-134.4250030517578 C61.599998474121094,-134.4250030517578 61.47700119018555,-134.4250030517578 61.47700119018555,-134.4250030517578 C61.47700119018555,-134.4250030517578 37.62799835205078,-142.13800048828125 37.62799835205078,-142.13800048828125 C37.62799835205078,-142.13800048828125 37.21699905395508,-142.27099609375 37.21699905395508,-142.27099609375 C36.097999572753906,-142.6510009765625 34.979000091552734,-143.02099609375 33.86000061035156,-143.29800415039062 C33.86000061035156,-143.29800415039062 32.67900085449219,-143.61700439453125 32.67900085449219,-143.61700439453125 C23.551000595092773,-146.08099365234375 14.060999870300293,-146.9250030517578 4.642000198364258,-146.11199951171875 C2.2820000648498535,-150.60499572753906 -1.1449999809265137,-154.44900512695312 -5.336999893188477,-157.30599975585938 C-7.645999908447266,-162.97999572753906 -11.593999862670898,-167.83700561523438 -16.676000595092773,-171.25599670410156 C-21.757999420166016,-174.6750030517578 -27.743999481201172,-176.50100708007812 -33.86800003051758,-176.5 C-39.992000579833984,-176.50100708007812 -45.97800064086914,-174.6750030517578 -51.060001373291016,-171.25599670410156 C-56.141998291015625,-167.83700561523438 -60.09000015258789,-162.97999572753906 -62.39899826049805,-157.30599975585938 C-65.2030029296875,-155.38900756835938 -67.6760025024414,-153.02699279785156 -69.71800231933594,-150.31199645996094 C-69.71800231933594,-150.31199645996094 -76.10399627685547,-155.8070068359375 -76.10399627685547,-155.8070068359375 C-76.10399627685547,-155.8070068359375 -76.29900360107422,-155.9810028076172 -76.29900360107422,-155.9810028076172 C-76.8740005493164,-156.48399353027344 -77.4489974975586,-157.00799560546875 -78.04499816894531,-157.4600067138672 C-78.04499816894531,-157.4600067138672 -78.14700317382812,-157.54200744628906 -78.14700317382812,-157.54200744628906 C-78.14700317382812,-157.54200744628906 -78.78399658203125,-158.03500366210938 -78.78399658203125,-158.03500366210938 C-87.5510025024414,-164.77999877929688 -98.0780029296875,-168.8520050048828 -109.10099792480469,-169.76300048828125 C-109.63500213623047,-169.81399536132812 -110.12699890136719,-169.84500122070312 -110.68199920654297,-169.86599731445312 C-145.20799255371094,-172.16600036621094 -183.9219970703125,-146.88299560546875 -201.33399963378906,-110.41500091552734 C-216.24099731445312,-79.19499969482422 -211.16000366210938,-46.742000579833984 -188.82000732421875,-29.1299991607666 C-188.82000732421875,-29.1299991607666 -180.91400146484375,-22.301000595092773 -180.91400146484375,-22.301000595092773 C-184.1510009765625,-19.40999984741211 -186.74000549316406,-15.866999626159668 -188.50999450683594,-11.904000282287598 C-190.27999877929688,-7.940999984741211 -191.19000244140625,-3.6470000743865967 -191.18099975585938,0.6930000185966492 C-191.14700317382812,2.9230000972747803 -191.4949951171875,5.142000198364258 -192.20799255371094,7.25600004196167 C-196.75,12.5 -196.5,63.5 -192.20799255371094,68.94599914550781 C-191.49600219726562,71.05899810791016 -191.1479949951172,73.27799987792969 -191.18099975585938,75.50800323486328 C-191.1820068359375,81.68099975585938 -189.3280029296875,87.71299743652344 -185.86099243164062,92.81999969482422 C-182.3939971923828,97.927001953125 -177.47300720214844,101.8740005493164 -171.73599243164062,104.1500015258789 C-171.8719940185547,105.33300018310547 -171.9409942626953,106.52300262451172 -171.94200134277344,107.71399688720703 C-171.94400024414062,113.76100158691406 -170.1649932861328,119.6760025024414 -166.8300018310547,124.72000122070312 C-163.4949951171875,129.76300048828125 -158.74899291992188,133.71400451660156 -153.18499755859375,136.0780029296875 C-151.82000732421875,143.09500122070312 -148.05799865722656,149.41900634765625 -142.54400634765625,153.96600341796875 C-137.02999877929688,158.51400756835938 -130.1060028076172,161.00100708007812 -122.95999908447266,161.0030059814453 C-115.81199645996094,161.00399780273438 -108.88700103759766,158.51699829101562 -103.37100219726562,153.97000122070312 C-97.85399627685547,149.4219970703125 -94.09100341796875,143.0970001220703 -92.72599792480469,136.0780029296875 C-88.2760009765625,134.18099975585938 -84.33399963378906,131.26400756835938 -81.21800231933594,127.56199645996094 C-78.10299682617188,123.86100006103516 -75.9010009765625,119.47799682617188 -74.79000091552734,114.76899719238281 C-71.2979965209961,116.91000366210938 -67.64199829101562,118.77100372314453 -63.85599899291992,120.33499908447266 C-63.44599914550781,120.51000213623047 -63.025001525878906,120.67400360107422 -62.59400177001953,120.83799743652344 C-59.96500015258789,121.86900329589844 -57.28099822998047,122.75299835205078 -54.55500030517578,123.48799896240234 C-54.55500030517578,123.48799896240234 -32.26599884033203,130.73800659179688 -32.26599884033203,130.73800659179688 C-31.680999755859375,130.96400451660156 -31.086000442504883,131.19000244140625 -30.489999771118164,131.38499450683594 C-30.489999771118164,131.38499450683594 -30.222999572753906,131.47799682617188 -30.222999572753906,131.47799682617188 C-28.5310001373291,132.0330047607422 -26.79199981689453,132.43800354003906 -25.027999877929688,132.69000244140625 C-23.15999984741211,133.0800018310547 -21.270999908447266,133.4080047607422 -19.381999969482422,133.71600341796875 C-2.5,136.5 35,141.5 53.1609992980957,154.59500122070312 C71.06600189208984,168.4080047607422 92.17400360107422,175.85299682617188 113.73300170898438,175.85299682617188 C115.28299713134766,175.85299682617188 116.81300354003906,175.85299682617188 118.39399719238281,175.74000549316406 C129.32699584960938,175.22000122070312 140.06900024414062,172.67799377441406 150.0760040283203,168.2429962158203 C151.01100158691406,167.82200622558594 151.9250030517578,167.36000061035156 152.8070068359375,166.85699462890625 C152.8070068359375,166.85699462890625 169.1719970703125,157.53199768066406 169.1719970703125,157.53199768066406 C171.56399536132812,156.30999755859375 173.90499877929688,154.96400451660156 176.1739959716797,153.52699279785156 C177.13099670410156,152.8679962158203 178.0500030517578,152.15499877929688 178.9250030517578,151.39100646972656z"></path></g></g><g transform="matrix(1,0,0,1,223,180)" opacity="1" style="display: block;"><g opacity="1" transform="matrix(1,0,0,1,0,0)"><path fill="rgb(241,243,51)" fill-opacity="1" d=" M178.9250030517578,151.39100646972656 C207.86599731445312,131.35400390625 222.44500732421875,96.05799865722656 217.0240020751953,58.625 C214.156005859375,38.97600173950195 206.05299377441406,20.46299934387207 193.56500244140625,5.0269999504089355 C198.41400146484375,1.475000023841858 202.35699462890625,-3.1710000038146973 205.0760040283203,-8.531999588012695 C207.79400634765625,-13.894000053405762 209.21099853515625,-19.820999145507812 209.21099853515625,-25.83300018310547 C209.2010040283203,-34.67100143432617 206.13900756835938,-43.23500061035156 200.54400634765625,-50.07400131225586 C194.947998046875,-56.91400146484375 187.16299438476562,-61.611000061035156 178.50399780273438,-63.36899948120117 C182.91700744628906,-68.83100128173828 185.322998046875,-75.64299774169922 185.3209991455078,-82.66600036621094 C185.3209991455078,-82.76899719238281 185.3209991455078,-82.88099670410156 185.3209991455078,-82.99400329589844 C185.3209991455078,-83.10700225830078 185.3209991455078,-83.20999908447266 185.3209991455078,-83.322998046875 C185.322998046875,-89.8030014038086 183.28199768066406,-96.11799621582031 179.48899841308594,-101.37100219726562 C175.6959991455078,-106.6240005493164 170.34300231933594,-110.5459976196289 164.1929931640625,-112.58100128173828 C164.11700439453125,-120.7020034790039 160.83900451660156,-128.46499633789062 155.0709991455078,-134.18099975585938 C149.30299377441406,-139.89700317382812 141.51199340820312,-143.10299682617188 133.39300537109375,-143.10299682617188 C133.39300537109375,-143.10299682617188 132.8489990234375,-143.10299682617188 132.8489990234375,-143.10299682617188 C124.7300033569336,-143.10299682617188 116.94000244140625,-139.89700317382812 111.1719970703125,-134.18099975585938 C105.40399932861328,-128.46499633789062 102.1259994506836,-120.7020034790039 102.05000305175781,-112.58100128173828 C100.30799865722656,-111.99500274658203 98.62100219726562,-111.25599670410156 97.00900268554688,-110.37300109863281 C87.9530029296875,-121.03299713134766 76.2760009765625,-129.14999389648438 63.130001068115234,-133.9219970703125 C63.130001068115234,-133.9219970703125 62.29800033569336,-134.22000122070312 62.29800033569336,-134.22000122070312 C62.29800033569336,-134.22000122070312 61.73400115966797,-134.4250030517578 61.73400115966797,-134.4250030517578 C61.73400115966797,-134.4250030517578 61.599998474121094,-134.4250030517578 61.599998474121094,-134.4250030517578 C61.599998474121094,-134.4250030517578 61.47700119018555,-134.4250030517578 61.47700119018555,-134.4250030517578 C61.47700119018555,-134.4250030517578 37.62799835205078,-142.13800048828125 37.62799835205078,-142.13800048828125 C37.62799835205078,-142.13800048828125 37.21699905395508,-142.27099609375 37.21699905395508,-142.27099609375 C36.097999572753906,-142.6510009765625 34.979000091552734,-143.02099609375 33.86000061035156,-143.29800415039062 C33.86000061035156,-143.29800415039062 32.67900085449219,-143.61700439453125 32.67900085449219,-143.61700439453125 C23.551000595092773,-146.08099365234375 14.060999870300293,-146.9250030517578 4.642000198364258,-146.11199951171875 C2.2820000648498535,-150.60499572753906 -1.1449999809265137,-154.44900512695312 -5.336999893188477,-157.30599975585938 C-7.645999908447266,-162.97999572753906 -11.593999862670898,-167.83700561523438 -16.676000595092773,-171.25599670410156 C-21.757999420166016,-174.6750030517578 -27.743999481201172,-176.50100708007812 -33.86800003051758,-176.5 C-39.992000579833984,-176.50100708007812 -45.97800064086914,-174.6750030517578 -51.060001373291016,-171.25599670410156 C-56.141998291015625,-167.83700561523438 -60.09000015258789,-162.97999572753906 -62.39899826049805,-157.30599975585938 C-65.2030029296875,-155.38900756835938 -67.6760025024414,-153.02699279785156 -69.71800231933594,-150.31199645996094 C-69.71800231933594,-150.31199645996094 -76.10399627685547,-155.8070068359375 -76.10399627685547,-155.8070068359375 C-76.10399627685547,-155.8070068359375 -76.29900360107422,-155.9810028076172 -76.29900360107422,-155.9810028076172 C-76.8740005493164,-156.48399353027344 -77.4489974975586,-157.00799560546875 -78.04499816894531,-157.4600067138672 C-78.04499816894531,-157.4600067138672 -78.14700317382812,-157.54200744628906 -78.14700317382812,-157.54200744628906 C-78.14700317382812,-157.54200744628906 -78.78399658203125,-158.03500366210938 -78.78399658203125,-158.03500366210938 C-87.5510025024414,-164.77999877929688 -98.0780029296875,-168.8520050048828 -109.10099792480469,-169.76300048828125 C-109.63500213623047,-169.81399536132812 -110.12699890136719,-169.84500122070312 -110.68199920654297,-169.86599731445312 C-145.20799255371094,-172.16600036621094 -183.9219970703125,-146.88299560546875 -201.33399963378906,-110.41500091552734 C-216.24099731445312,-79.19499969482422 -211.16000366210938,-46.742000579833984 -188.82000732421875,-29.1299991607666 C-188.82000732421875,-29.1299991607666 -180.91400146484375,-22.301000595092773 -180.91400146484375,-22.301000595092773 C-184.1510009765625,-19.40999984741211 -186.74000549316406,-15.866999626159668 -188.50999450683594,-11.904000282287598 C-190.27999877929688,-7.940999984741211 -191.19000244140625,-3.6470000743865967 -191.18099975585938,0.6930000185966492 C-191.14700317382812,2.9230000972747803 -191.4949951171875,5.142000198364258 -192.20799255371094,7.25600004196167 C-199.44200134277344,8.413000106811523 -206.0260009765625,12.11299991607666 -210.7790069580078,17.690000534057617 C-215.53199768066406,23.267000198364258 -218.14300537109375,30.356000900268555 -218.14100646972656,37.685001373291016 C-218.14100646972656,37.685001373291016 -218.14100646972656,38.527000427246094 -218.14100646972656,38.527000427246094 C-218.13999938964844,45.854000091552734 -215.5290069580078,52.939998626708984 -210.7760009765625,58.51499938964844 C-206.0229949951172,64.08999633789062 -199.44000244140625,67.78800201416016 -192.20799255371094,68.94599914550781 C-191.49600219726562,71.05899810791016 -191.1479949951172,73.27799987792969 -191.18099975585938,75.50800323486328 C-191.1820068359375,81.68099975585938 -189.3280029296875,87.71299743652344 -185.86099243164062,92.81999969482422 C-182.3939971923828,97.927001953125 -177.47300720214844,101.8740005493164 -171.73599243164062,104.1500015258789 C-171.8719940185547,105.33300018310547 -171.9409942626953,106.52300262451172 -171.94200134277344,107.71399688720703 C-171.94400024414062,113.76100158691406 -170.1649932861328,119.6760025024414 -166.8300018310547,124.72000122070312 C-163.4949951171875,129.76300048828125 -158.74899291992188,133.71400451660156 -153.18499755859375,136.0780029296875 C-151.82000732421875,143.09500122070312 -148.05799865722656,149.41900634765625 -142.54400634765625,153.96600341796875 C-137.02999877929688,158.51400756835938 -130.1060028076172,161.00100708007812 -122.95999908447266,161.0030059814453 C-115.81199645996094,161.00399780273438 -108.88700103759766,158.51699829101562 -103.37100219726562,153.97000122070312 C-97.85399627685547,149.4219970703125 -94.09100341796875,143.0970001220703 -92.72599792480469,136.0780029296875 C-88.2760009765625,134.18099975585938 -84.33399963378906,131.26400756835938 -81.21800231933594,127.56199645996094 C-78.10299682617188,123.86100006103516 -75.9010009765625,119.47799682617188 -74.79000091552734,114.76899719238281 C-71.2979965209961,116.91000366210938 -67.64199829101562,118.77100372314453 -63.85599899291992,120.33499908447266 C-63.44599914550781,120.51000213623047 -63.025001525878906,120.67400360107422 -62.59400177001953,120.83799743652344 C-59.96500015258789,121.86900329589844 -57.28099822998047,122.75299835205078 -54.55500030517578,123.48799896240234 C-54.55500030517578,123.48799896240234 -32.26599884033203,130.73800659179688 -32.26599884033203,130.73800659179688 C-31.680999755859375,130.96400451660156 -31.086000442504883,131.19000244140625 -30.489999771118164,131.38499450683594 C-30.489999771118164,131.38499450683594 -30.222999572753906,131.47799682617188 -30.222999572753906,131.47799682617188 C-28.5310001373291,132.0330047607422 -26.79199981689453,132.43800354003906 -25.027999877929688,132.69000244140625 C-23.15999984741211,133.0800018310547 -21.270999908447266,133.4080047607422 -19.381999969482422,133.71600341796875 C-19.562999725341797,135.218994140625 -19.6560001373291,136.73199462890625 -19.659000396728516,138.2449951171875 C-19.648000717163086,148.38800048828125 -15.616000175476074,158.11199951171875 -8.446000099182129,165.2830047607422 C-1.2769999504089355,172.4550018310547 8.444000244140625,176.48899841308594 18.583999633789062,176.5 C25.827999114990234,176.4929962158203 32.922000885009766,174.4320068359375 39.04199981689453,170.5540008544922 C45.16299819946289,166.677001953125 50.05799865722656,161.14300537109375 53.1609992980957,154.59500122070312 C71.06600189208984,168.4080047607422 92.17400360107422,175.85299682617188 113.73300170898438,175.85299682617188 C115.28299713134766,175.85299682617188 116.81300354003906,175.85299682617188 118.39399719238281,175.74000549316406 C129.32699584960938,175.22000122070312 140.06900024414062,172.67799377441406 150.0760040283203,168.2429962158203 C151.01100158691406,167.82200622558594 151.9250030517578,167.36000061035156 152.8070068359375,166.85699462890625 C152.8070068359375,166.85699462890625 169.1719970703125,157.53199768066406 169.1719970703125,157.53199768066406 C171.56399536132812,156.30999755859375 173.90499877929688,154.96400451660156 176.1739959716797,153.52699279785156 C177.13099670410156,152.8679962158203 178.0500030517578,152.15499877929688 178.9250030517578,151.39100646972656z"></path><path stroke-linecap="butt" stroke-linejoin="miter" fill-opacity="0" stroke-miterlimit="10" stroke="rgb(0,0,0)" stroke-opacity="1" stroke-width="3" d=" M178.9250030517578,151.39100646972656 C207.86599731445312,131.35400390625 222.44500732421875,96.05799865722656 217.0240020751953,58.625 C214.156005859375,38.97600173950195 206.05299377441406,20.46299934387207 193.56500244140625,5.0269999504089355 C198.41400146484375,1.475000023841858 202.35699462890625,-3.1710000038146973 205.0760040283203,-8.531999588012695 C207.79400634765625,-13.894000053405762 209.21099853515625,-19.820999145507812 209.21099853515625,-25.83300018310547 C209.2010040283203,-34.67100143432617 206.13900756835938,-43.23500061035156 200.54400634765625,-50.07400131225586 C194.947998046875,-56.91400146484375 187.16299438476562,-61.611000061035156 178.50399780273438,-63.36899948120117 C182.91700744628906,-68.83100128173828 185.322998046875,-75.64299774169922 185.3209991455078,-82.66600036621094 C185.3209991455078,-82.76899719238281 185.3209991455078,-82.88099670410156 185.3209991455078,-82.99400329589844 C185.3209991455078,-83.10700225830078 185.3209991455078,-83.20999908447266 185.3209991455078,-83.322998046875 C185.322998046875,-89.8030014038086 183.28199768066406,-96.11799621582031 179.48899841308594,-101.37100219726562 C175.6959991455078,-106.6240005493164 170.34300231933594,-110.5459976196289 164.1929931640625,-112.58100128173828 C164.11700439453125,-120.7020034790039 160.83900451660156,-128.46499633789062 155.0709991455078,-134.18099975585938 C149.30299377441406,-139.89700317382812 141.51199340820312,-143.10299682617188 133.39300537109375,-143.10299682617188 C133.39300537109375,-143.10299682617188 132.8489990234375,-143.10299682617188 132.8489990234375,-143.10299682617188 C124.7300033569336,-143.10299682617188 116.94000244140625,-139.89700317382812 111.1719970703125,-134.18099975585938 C105.40399932861328,-128.46499633789062 102.1259994506836,-120.7020034790039 102.05000305175781,-112.58100128173828 C100.30799865722656,-111.99500274658203 98.62100219726562,-111.25599670410156 97.00900268554688,-110.37300109863281 C87.9530029296875,-121.03299713134766 76.2760009765625,-129.14999389648438 63.130001068115234,-133.9219970703125 C63.130001068115234,-133.9219970703125 62.29800033569336,-134.22000122070312 62.29800033569336,-134.22000122070312 C62.29800033569336,-134.22000122070312 61.73400115966797,-134.4250030517578 61.73400115966797,-134.4250030517578 C61.73400115966797,-134.4250030517578 61.599998474121094,-134.4250030517578 61.599998474121094,-134.4250030517578 C61.599998474121094,-134.4250030517578 61.47700119018555,-134.4250030517578 61.47700119018555,-134.4250030517578 C61.47700119018555,-134.4250030517578 37.62799835205078,-142.13800048828125 37.62799835205078,-142.13800048828125 C37.62799835205078,-142.13800048828125 37.21699905395508,-142.27099609375 37.21699905395508,-142.27099609375 C36.097999572753906,-142.6510009765625 34.979000091552734,-143.02099609375 33.86000061035156,-143.29800415039062 C33.86000061035156,-143.29800415039062 32.67900085449219,-143.61700439453125 32.67900085449219,-143.61700439453125 C23.551000595092773,-146.08099365234375 14.060999870300293,-146.9250030517578 4.642000198364258,-146.11199951171875 C2.2820000648498535,-150.60499572753906 -1.1449999809265137,-154.44900512695312 -5.336999893188477,-157.30599975585938 C-7.645999908447266,-162.97999572753906 -11.593999862670898,-167.83700561523438 -16.676000595092773,-171.25599670410156 C-21.757999420166016,-174.6750030517578 -27.743999481201172,-176.50100708007812 -33.86800003051758,-176.5 C-39.992000579833984,-176.50100708007812 -45.97800064086914,-174.6750030517578 -51.060001373291016,-171.25599670410156 C-56.141998291015625,-167.83700561523438 -60.09000015258789,-162.97999572753906 -62.39899826049805,-157.30599975585938 C-65.2030029296875,-155.38900756835938 -67.6760025024414,-153.02699279785156 -69.71800231933594,-150.31199645996094 C-69.71800231933594,-150.31199645996094 -76.10399627685547,-155.8070068359375 -76.10399627685547,-155.8070068359375 C-76.10399627685547,-155.8070068359375 -76.29900360107422,-155.9810028076172 -76.29900360107422,-155.9810028076172 C-76.8740005493164,-156.48399353027344 -77.4489974975586,-157.00799560546875 -78.04499816894531,-157.4600067138672 C-78.04499816894531,-157.4600067138672 -78.14700317382812,-157.54200744628906 -78.14700317382812,-157.54200744628906 C-78.14700317382812,-157.54200744628906 -78.78399658203125,-158.03500366210938 -78.78399658203125,-158.03500366210938 C-87.5510025024414,-164.77999877929688 -98.0780029296875,-168.8520050048828 -109.10099792480469,-169.76300048828125 C-109.63500213623047,-169.81399536132812 -110.12699890136719,-169.84500122070312 -110.68199920654297,-169.86599731445312 C-145.20799255371094,-172.16600036621094 -183.9219970703125,-146.88299560546875 -201.33399963378906,-110.41500091552734 C-216.24099731445312,-79.19499969482422 -211.16000366210938,-46.742000579833984 -188.82000732421875,-29.1299991607666 C-188.82000732421875,-29.1299991607666 -180.91400146484375,-22.301000595092773 -180.91400146484375,-22.301000595092773 C-184.1510009765625,-19.40999984741211 -186.74000549316406,-15.866999626159668 -188.50999450683594,-11.904000282287598 C-190.27999877929688,-7.940999984741211 -191.19000244140625,-3.6470000743865967 -191.18099975585938,0.6930000185966492 C-191.14700317382812,2.9230000972747803 -191.4949951171875,5.142000198364258 -192.20799255371094,7.25600004196167 C-199.44200134277344,8.413000106811523 -206.0260009765625,12.11299991607666 -210.7790069580078,17.690000534057617 C-215.53199768066406,23.267000198364258 -218.14300537109375,30.356000900268555 -218.14100646972656,37.685001373291016 C-218.14100646972656,37.685001373291016 -218.14100646972656,38.527000427246094 -218.14100646972656,38.527000427246094 C-218.13999938964844,45.854000091552734 -215.5290069580078,52.939998626708984 -210.7760009765625,58.51499938964844 C-206.0229949951172,64.08999633789062 -199.44000244140625,67.78800201416016 -192.20799255371094,68.94599914550781 C-191.49600219726562,71.05899810791016 -191.1479949951172,73.27799987792969 -191.18099975585938,75.50800323486328 C-191.1820068359375,81.68099975585938 -189.3280029296875,87.71299743652344 -185.86099243164062,92.81999969482422 C-182.3939971923828,97.927001953125 -177.47300720214844,101.8740005493164 -171.73599243164062,104.1500015258789 C-171.8719940185547,105.33300018310547 -171.9409942626953,106.52300262451172 -171.94200134277344,107.71399688720703 C-171.94400024414062,113.76100158691406 -170.1649932861328,119.6760025024414 -166.8300018310547,124.72000122070312 C-163.4949951171875,129.76300048828125 -158.74899291992188,133.71400451660156 -153.18499755859375,136.0780029296875 C-151.82000732421875,143.09500122070312 -148.05799865722656,149.41900634765625 -142.54400634765625,153.96600341796875 C-137.02999877929688,158.51400756835938 -130.1060028076172,161.00100708007812 -122.95999908447266,161.0030059814453 C-115.81199645996094,161.00399780273438 -108.88700103759766,158.51699829101562 -103.37100219726562,153.97000122070312 C-97.85399627685547,149.4219970703125 -94.09100341796875,143.0970001220703 -92.72599792480469,136.0780029296875 C-88.2760009765625,134.18099975585938 -84.33399963378906,131.26400756835938 -81.21800231933594,127.56199645996094 C-78.10299682617188,123.86100006103516 -75.9010009765625,119.47799682617188 -74.79000091552734,114.76899719238281 C-71.2979965209961,116.91000366210938 -67.64199829101562,118.77100372314453 -63.85599899291992,120.33499908447266 C-63.44599914550781,120.51000213623047 -63.025001525878906,120.67400360107422 -62.59400177001953,120.83799743652344 C-59.96500015258789,121.86900329589844 -57.28099822998047,122.75299835205078 -54.55500030517578,123.48799896240234 C-54.55500030517578,123.48799896240234 -32.26599884033203,130.73800659179688 -32.26599884033203,130.73800659179688 C-31.680999755859375,130.96400451660156 -31.086000442504883,131.19000244140625 -30.489999771118164,131.38499450683594 C-30.489999771118164,131.38499450683594 -30.222999572753906,131.47799682617188 -30.222999572753906,131.47799682617188 C-28.5310001373291,132.0330047607422 -26.79199981689453,132.43800354003906 -25.027999877929688,132.69000244140625 C-23.15999984741211,133.0800018310547 -21.270999908447266,133.4080047607422 -19.381999969482422,133.71600341796875 C-19.562999725341797,135.218994140625 -19.6560001373291,136.73199462890625 -19.659000396728516,138.2449951171875 C-19.648000717163086,148.38800048828125 -15.616000175476074,158.11199951171875 -8.446000099182129,165.2830047607422 C-1.2769999504089355,172.4550018310547 8.444000244140625,176.48899841308594 18.583999633789062,176.5 C25.827999114990234,176.4929962158203 32.922000885009766,174.4320068359375 39.04199981689453,170.5540008544922 C45.16299819946289,166.677001953125 50.05799865722656,161.14300537109375 53.1609992980957,154.59500122070312 C71.06600189208984,168.4080047607422 92.17400360107422,175.85299682617188 113.73300170898438,175.85299682617188 C115.28299713134766,175.85299682617188 116.81300354003906,175.85299682617188 118.39399719238281,175.74000549316406 C129.32699584960938,175.22000122070312 140.06900024414062,172.67799377441406 150.0760040283203,168.2429962158203 C151.01100158691406,167.82200622558594 151.9250030517578,167.36000061035156 152.8070068359375,166.85699462890625 C152.8070068359375,166.85699462890625 169.1719970703125,157.53199768066406 169.1719970703125,157.53199768066406 C171.56399536132812,156.30999755859375 173.90499877929688,154.96400451660156 176.1739959716797,153.52699279785156 C177.13099670410156,152.8679962158203 178.0500030517578,152.15499877929688 178.9250030517578,151.39100646972656z"></path></g></g><g clip-path="url(#__lottie_element_10)" transform="matrix(1,0,0,1,-37.21200180053711,115.322998046875)" opacity="1" style="display: block;"><g transform="matrix(1,0,0,1,100,100)" opacity="1" style="display: block;"><g opacity="1" transform="matrix(1,0,0,1,0,0)"><path fill="rgb(255,201,0)" fill-opacity="1" d=" M0.31960609555244446,-34.21992111206055 C0.31960609555244446,-34.21992111206055 -0.31960609555244446,-34.21992111206055 -0.31960609555244446,-34.21992111206055 C-0.31960609555244446,-16.28291893005371 -9.448001861572266,-0.39050760865211487 -24.86241340637207,-0.39050760865211487 C-24.86241340637207,-0.39050760865211487 -24.86241340637207,0.39050760865211487 -24.86241340637207,0.39050760865211487 C-9.448001861572266,0.39050760865211487 -0.31960609555244446,16.263662338256836 -0.31960609555244446,34.21992111206055 C-0.31960609555244446,34.21992111206055 0.31960609555244446,34.21992111206055 0.31960609555244446,34.21992111206055 C0.31960609555244446,16.281919479370117 9.457130432128906,0.39050760865211487 24.86241340637207,0.39050760865211487 C24.86241340637207,0.39050760865211487 24.86241340637207,-0.39050760865211487 24.86241340637207,-0.39050760865211487 C9.457130432128906,-0.39050760865211487 0.31960609555244446,-16.27379035949707 0.31960609555244446,-34.21992111206055z"></path><path stroke-linecap="round" stroke-linejoin="round" fill-opacity="0" stroke="rgb(0,0,0)" stroke-opacity="1" stroke-width="3" d=" M0.31960609555244446,-34.21992111206055 C0.31960609555244446,-34.21992111206055 -0.31960609555244446,-34.21992111206055 -0.31960609555244446,-34.21992111206055 C-0.31960609555244446,-16.28291893005371 -9.448001861572266,-0.39050760865211487 -24.86241340637207,-0.39050760865211487 C-24.86241340637207,-0.39050760865211487 -24.86241340637207,0.39050760865211487 -24.86241340637207,0.39050760865211487 C-9.448001861572266,0.39050760865211487 -0.31960609555244446,16.263662338256836 -0.31960609555244446,34.21992111206055 C-0.31960609555244446,34.21992111206055 0.31960609555244446,34.21992111206055 0.31960609555244446,34.21992111206055 C0.31960609555244446,16.281919479370117 9.457130432128906,0.39050760865211487 24.86241340637207,0.39050760865211487 C24.86241340637207,0.39050760865211487 24.86241340637207,-0.39050760865211487 24.86241340637207,-0.39050760865211487 C9.457130432128906,-0.39050760865211487 0.31960609555244446,-16.27379035949707 0.31960609555244446,-34.21992111206055z"></path></g></g></g><g clip-path="url(#__lottie_element_14)" transform="matrix(1,0,0,1,256.08099365234375,-5.634002685546875)" opacity="1" style="display: block;"><g transform="matrix(1,0,0,1,100,100)" opacity="1" style="display: block;"><g opacity="1" transform="matrix(1,0,0,1,0,0)"><path fill="rgb(255,201,0)" fill-opacity="1" d=" M0.34039390087127686,-36.92308044433594 C0.34039390087127686,-36.92308044433594 -0.34039390087127686,-36.92308044433594 -0.34039390087127686,-36.92308044433594 C-0.34039390087127686,-17.260408401489258 -10.041622161865234,-0.41649237275123596 -26.951587677001953,-0.41649237275123596 C-26.951587677001953,-0.41649237275123596 -26.951587677001953,0.41649237275123596 -26.951587677001953,0.41649237275123596 C-10.073819160461426,0.41649237275123596 -0.34039390087127686,17.177719116210938 -0.34039390087127686,36.92308044433594 C-0.34039390087127686,36.92308044433594 0.34039390087127686,36.92308044433594 0.34039390087127686,36.92308044433594 C0.34039390087127686,17.227340698242188 10.018136978149414,0.41649237275123596 26.951587677001953,0.41649237275123596 C26.951587677001953,0.41649237275123596 26.951587677001953,-0.41649237275123596 26.951587677001953,-0.41649237275123596 C10.050333976745605,-0.41649237275123596 0.34039390087127686,-17.187301635742188 0.34039390087127686,-36.92308044433594z"></path><path stroke-linecap="round" stroke-linejoin="round" fill-opacity="0" stroke="rgb(0,0,0)" stroke-opacity="1" stroke-width="3" d=" M0.34039390087127686,-36.92308044433594 C0.34039390087127686,-36.92308044433594 -0.34039390087127686,-36.92308044433594 -0.34039390087127686,-36.92308044433594 C-0.34039390087127686,-17.260408401489258 -10.041622161865234,-0.41649237275123596 -26.951587677001953,-0.41649237275123596 C-26.951587677001953,-0.41649237275123596 -26.951587677001953,0.41649237275123596 -26.951587677001953,0.41649237275123596 C-10.073819160461426,0.41649237275123596 -0.34039390087127686,17.177719116210938 -0.34039390087127686,36.92308044433594 C-0.34039390087127686,36.92308044433594 0.34039390087127686,36.92308044433594 0.34039390087127686,36.92308044433594 C0.34039390087127686,17.227340698242188 10.018136978149414,0.41649237275123596 26.951587677001953,0.41649237275123596 C26.951587677001953,0.41649237275123596 26.951587677001953,-0.41649237275123596 26.951587677001953,-0.41649237275123596 C10.050333976745605,-0.41649237275123596 0.34039390087127686,-17.187301635742188 0.34039390087127686,-36.92308044433594z"></path></g></g></g><g clip-path="url(#__lottie_element_18)" transform="matrix(1,0.000007689714038860984,-0.000007689714038860984,1,89.02977752685547,-54.58477020263672)" opacity="1" style="display: block;"><g transform="matrix(1,0,0,1,-736.864990234375,-544.9359741210938)" opacity="1" style="display: block;"><g opacity="1" transform="matrix(1,0,0,1,836.864990234375,644.9359741210938)"><path stroke-linecap="round" stroke-linejoin="round" fill-opacity="0" stroke="rgb(0,0,0)" stroke-opacity="1" stroke-width="3" d=" M-15.285623550415039,-0.004999999888241291 C-15.285623550415039,-0.004999999888241291 15.285623550415039,-0.004999999888241291 15.285623550415039,-0.004999999888241291 M0,-18.114795684814453 C0,-18.114795684814453 0,18.114795684814453 0,18.114795684814453"></path></g></g></g><g transform="matrix(1,0,0,1,109.44400024414062,163.9040069580078)" opacity="1" style="display: block;"><g opacity="1" transform="matrix(1,0,0,1,0,0)"><path stroke-linecap="round" stroke-linejoin="round" fill-opacity="0" stroke="rgb(0,0,0)" stroke-opacity="1" stroke-width="3" d=" M0.00016531099390704185,1.82345449924469 C1.0068490505218506,1.82345449924469 1.823123812675476,1.0066837072372437 1.823123812675476,-0.00016531099390704185 C1.823123812675476,-1.007014274597168 1.0068490505218506,-1.82345449924469 0.00016531099390704185,-1.82345449924469 C-1.0065183639526367,-1.82345449924469 -1.823123812675476,-1.007014274597168 -1.823123812675476,-0.00016531099390704185 C-1.823123812675476,1.0066837072372437 -1.0065183639526367,1.82345449924469 0.00016531099390704185,1.82345449924469z"></path></g></g><g clip-path="url(#__lottie_element_25)" transform="matrix(0.8782746195793152,-0.47815650701522827,0.47815650701522827,0.8782746195793152,-35.778114318847656,244.919189453125)" opacity="1" style="display: block;"><g transform="matrix(1,0,0,1,-736.864990234375,-544.9359741210938)" opacity="1" style="display: block;"><g opacity="1" transform="matrix(1,0,0,1,836.864990234375,644.9359741210938)"><path stroke-linecap="round" stroke-linejoin="round" fill-opacity="0" stroke="rgb(0,0,0)" stroke-opacity="1" stroke-width="3" d=" M-17.48935317993164,-0.004999999888241291 C-17.48935317993164,-0.004999999888241291 17.48935317993164,-0.004999999888241291 17.48935317993164,-0.004999999888241291 M0,-25.088632583618164 C0,-25.088632583618164 0,25.088632583618164 0,25.088632583618164"></path></g></g></g><g transform="matrix(1,0,0,1,241.40899658203125,315.4100036621094)" opacity="1" style="display: block;"><g opacity="1" transform="matrix(1,0,0,1,0,0)"><path stroke-linecap="round" stroke-linejoin="round" fill-opacity="0" stroke="rgb(0,0,0)" stroke-opacity="1" stroke-width="3" d=" M0.0007704452727921307,5.938872814178467 C3.2793548107147217,5.938872814178467 5.937331676483154,3.280125141143799 5.937331676483154,0 C5.937331676483154,-3.280125141143799 3.2793548107147217,-5.938872814178467 0.0007704452727921307,-5.938872814178467 C-3.2785842418670654,-5.938872814178467 -5.937331676483154,-3.280125141143799 -5.937331676483154,0 C-5.937331676483154,3.280125141143799 -3.2785842418670654,5.938872814178467 0.0007704452727921307,5.938872814178467z"></path></g></g><g transform="matrix(1,0,0,1,-736.0956420898438,-359.0956726074219)" opacity="1" style="display: block;"><g opacity="1" transform="matrix(1,0,0,1,836.1820068359375,451.2770080566406)"><path fill="rgb(0,0,0)" fill-opacity="1" d=" M36.84199905395508,-38.534000396728516 C46.65700149536133,-29.92799949645996 48.4119987487793,-13.454999923706055 39.78799819946289,4.598999977111816 C27.78700065612793,29.73900032043457 0.1289999932050705,48.553001403808594 -21.809999465942383,46.540000915527344 C-26.823999404907227,46.18600082397461 -31.638999938964844,44.428001403808594 -35.70100021362305,41.46699905395508 C-35.70100021362305,41.46699905395508 -45.340999603271484,33.11800003051758 -45.340999603271484,33.11800003051758 C-41.323001861572266,35.99599838256836 -36.58599853515625,37.702999114990234 -31.6560001373291,38.047000885009766 C-9.664999961853027,40.10100173950195 17.98200035095215,21.246000289916992 29.94300079345703,-3.8940000534057617 C38.45399856567383,-21.711999893188477 36.85200119018555,-38 27.365999221801758,-46.6879997253418 C27.365999221801758,-46.6879997253418 36.84199905395508,-38.534000396728516 36.84199905395508,-38.534000396728516z"></path><path stroke-linecap="round" stroke-linejoin="round" fill-opacity="0" stroke="rgb(0,0,0)" stroke-opacity="1" stroke-width="3" d=" M36.84199905395508,-38.534000396728516 C46.65700149536133,-29.92799949645996 48.4119987487793,-13.454999923706055 39.78799819946289,4.598999977111816 C27.78700065612793,29.73900032043457 0.1289999932050705,48.553001403808594 -21.809999465942383,46.540000915527344 C-26.823999404907227,46.18600082397461 -31.638999938964844,44.428001403808594 -35.70100021362305,41.46699905395508 C-35.70100021362305,41.46699905395508 -45.340999603271484,33.11800003051758 -45.340999603271484,33.11800003051758 C-41.323001861572266,35.99599838256836 -36.58599853515625,37.702999114990234 -31.6560001373291,38.047000885009766 C-9.664999961853027,40.10100173950195 17.98200035095215,21.246000289916992 29.94300079345703,-3.8940000534057617 C38.45399856567383,-21.711999893188477 36.85200119018555,-38 27.365999221801758,-46.6879997253418 C27.365999221801758,-46.6879997253418 36.84199905395508,-38.534000396728516 36.84199905395508,-38.534000396728516z"></path></g><g opacity="1" transform="matrix(1,0,0,1,826.1630249023438,443.71600341796875)"><path fill="rgb(255,144,232)" fill-opacity="1" d=" M-35.41400146484375,40.678001403808594 C-46.512001037597656,32.46200180053711 -48.874000549316406,15.281000137329102 -39.8390007019043,-3.635999917984009 C-27.836999893188477,-28.775999069213867 -0.18000000715255737,-47.59000015258789 21.759000778198242,-45.57699966430664 C27.062000274658203,-45.2239990234375 32.13399887084961,-43.27299880981445 36.30699920654297,-39.97999954223633 C36.30699920654297,-39.97999954223633 37.262001037597656,-39.159000396728516 37.262001037597656,-39.159000396728516 C46.74800109863281,-30.47100067138672 48.3489990234375,-14.182999610900879 39.8380012512207,3.634999990463257 C27.836999893188477,28.774999618530273 0.1899999976158142,47.5890007019043 -21.760000228881836,45.57699966430664 C-26.676000595092773,45.236000061035156 -31.402000427246094,43.540000915527344 -35.41400146484375,40.678001403808594z"></path><path stroke-linecap="round" stroke-linejoin="round" fill-opacity="0" stroke="rgb(0,0,0)" stroke-opacity="1" stroke-width="3" d=" M-35.41400146484375,40.678001403808594 C-46.512001037597656,32.46200180053711 -48.874000549316406,15.281000137329102 -39.8390007019043,-3.635999917984009 C-27.836999893188477,-28.775999069213867 -0.18000000715255737,-47.59000015258789 21.759000778198242,-45.57699966430664 C27.062000274658203,-45.2239990234375 32.13399887084961,-43.27299880981445 36.30699920654297,-39.97999954223633 C36.30699920654297,-39.97999954223633 37.262001037597656,-39.159000396728516 37.262001037597656,-39.159000396728516 C46.74800109863281,-30.47100067138672 48.3489990234375,-14.182999610900879 39.8380012512207,3.634999990463257 C27.836999893188477,28.774999618530273 0.1899999976158142,47.5890007019043 -21.760000228881836,45.57699966430664 C-26.676000595092773,45.236000061035156 -31.402000427246094,43.540000915527344 -35.41400146484375,40.678001403808594z"></path></g><g opacity="1" transform="matrix(1,0,0,1,825.9119873046875,443.96099853515625)"><path fill="rgb(0,0,0)" fill-opacity="1" d=" M12.206000328063965,-24.94300079345703 C27.093000411987305,-23.57699966430664 26.639999389648438,-11.592000007629395 23.7549991607666,-5.071000099182129 C23.7549991607666,-5.071000099182129 12.986000061035156,-6.0980000495910645 12.986000061035156,-6.0980000495910645 C14.505000114440918,-9.774999618530273 14.371999740600586,-15.515000343322754 7.729000091552734,-16.121000289916992 C0.6349999904632568,-16.76799964904785 -7.321000099182129,-10.133999824523926 -11.437999725341797,-1.5180000066757202 C-15.555000305175781,7.0980000495910645 -14.333000183105469,14.585000038146973 -7.238999843597412,15.232000350952148 C-0.8220000267028809,15.817000389099121 4.670000076293945,10.322999954223633 8.560999870300293,4.675000190734863 C8.560999870300293,4.675000190734863 -1.7059999704360962,3.7300000190734863 -1.7059999704360962,3.7300000190734863 C-1.7059999704360962,3.7300000190734863 0.5320000052452087,-0.9629999995231628 0.5320000052452087,-0.9629999995231628 C0.5320000052452087,-0.9629999995231628 22.163999557495117,1.0089999437332153 22.163999557495117,1.0089999437332153 C22.163999557495117,1.0089999437332153 10.685999870300293,25.049999237060547 10.685999870300293,25.049999237060547 C10.685999870300293,25.049999237060547 1.2000000476837158,24.177000045776367 1.2000000476837158,24.177000045776367 C1.2000000476837158,24.177000045776367 8.437999725341797,9.029000282287598 8.437999725341797,9.029000282287598 C5.131999969482422,14.451000213623047 -2.9679999351501465,24.885000228881836 -14.640999794006348,23.816999435424805 C-26.31399917602539,22.749000549316406 -28.079999923706055,11.411999702453613 -21.725000381469727,-1.9179999828338623 C-15.1850004196167,-15.699999809265137 -2.259000062942505,-26.23699951171875 12.206000328063965,-24.94300079345703z"></path></g></g><g transform="matrix(0.9998932480812073,-0.014612971805036068,0.014612971805036068,0.9998932480812073,-745.76953125,-343.3145751953125)" opacity="1" style="display: block;"><g opacity="1" transform="matrix(1,0,0,1,1081.3709716796875,603.6339721679688)"><path fill="rgb(255,144,232)" fill-opacity="1" d=" M65.13099670410156,-3.24399995803833 C69.04199981689453,23.82699966430664 58.00600051879883,48.104000091552734 38.632999420166016,60.70500183105469 C38.632999420166016,60.70500183105469 32.874000549316406,63.992000579833984 32.874000549316406,63.992000579833984 C25.764999389648438,67.48200225830078 18.01300048828125,69.47100067138672 10.102999687194824,69.83499908447266 C-25.829999923706055,71.63200378417969 -59.566001892089844,41.768001556396484 -65.12999725341797,3.256999969482422 C-69.1240005493164,-24.357999801635742 -57.55400085449219,-49.0369987487793 -37.4109992980957,-61.44200134277344 C-29.152999877929688,-66.51300048828125 -19.740999221801758,-69.4000015258789 -10.060999870300293,-69.83300018310547 C25.81999969482422,-71.6500015258789 59.606998443603516,-41.755001068115234 65.13099670410156,-3.24399995803833z"></path><path stroke-linecap="round" stroke-linejoin="round" fill-opacity="0" stroke="rgb(0,0,0)" stroke-opacity="1" stroke-width="3" d=" M65.13099670410156,-3.24399995803833 C69.04199981689453,23.82699966430664 58.00600051879883,48.104000091552734 38.632999420166016,60.70500183105469 C38.632999420166016,60.70500183105469 32.874000549316406,63.992000579833984 32.874000549316406,63.992000579833984 C25.764999389648438,67.48200225830078 18.01300048828125,69.47100067138672 10.102999687194824,69.83499908447266 C-25.829999923706055,71.63200378417969 -59.566001892089844,41.768001556396484 -65.12999725341797,3.256999969482422 C-69.1240005493164,-24.357999801635742 -57.55400085449219,-49.0369987487793 -37.4109992980957,-61.44200134277344 C-29.152999877929688,-66.51300048828125 -19.740999221801758,-69.4000015258789 -10.060999870300293,-69.83300018310547 C25.81999969482422,-71.6500015258789 59.606998443603516,-41.755001068115234 65.13099670410156,-3.24399995803833z"></path></g><g opacity="1" transform="matrix(1,0,0,1,1057.4739990234375,612.18798828125)"><path fill="rgb(0,0,0)" fill-opacity="1" d=" M56.8120002746582,55.43899917602539 C56.8120002746582,55.43899917602539 39.91299819946289,65.0719985961914 39.91299819946289,65.0719985961914 C33.37200164794922,67.96499633789062 26.350000381469727,69.61799621582031 19.20599937438965,69.9489974975586 C-16.726999282836914,71.74600219726562 -50.4630012512207,41.87200164794922 -56.027000427246094,3.371000051498413 C-59.69200134277344,-21.944000244140625 -50.27799987792969,-44.784000396728516 -33.183998107910156,-57.98099899291992 C-33.183998107910156,-57.98099899291992 -13.52400016784668,-70.0270004272461 -13.52400016784668,-70.0270004272461 C-13.52400016784668,-70.0270004272461 -13.52400016784668,-69.96499633789062 -13.52400016784668,-69.96499633789062 C-33.63600158691406,-57.558998107910156 -45.20600128173828,-32.88100051879883 -41.24300003051758,-5.265999794006348 C-35.67900085449219,33.244998931884766 -1.9229999780654907,63.10900115966797 33.98899841308594,61.3120002746582 C41.91999816894531,60.94599914550781 49.68899917602539,58.946998596191406 56.8120002746582,55.43899917602539z"></path><path stroke-linecap="round" stroke-linejoin="round" fill-opacity="0" stroke="rgb(0,0,0)" stroke-opacity="1" stroke-width="3" d=" M56.8120002746582,55.43899917602539 C56.8120002746582,55.43899917602539 39.91299819946289,65.0719985961914 39.91299819946289,65.0719985961914 C33.37200164794922,67.96499633789062 26.350000381469727,69.61799621582031 19.20599937438965,69.9489974975586 C-16.726999282836914,71.74600219726562 -50.4630012512207,41.87200164794922 -56.027000427246094,3.371000051498413 C-59.69200134277344,-21.944000244140625 -50.27799987792969,-44.784000396728516 -33.183998107910156,-57.98099899291992 C-33.183998107910156,-57.98099899291992 -13.52400016784668,-70.0270004272461 -13.52400016784668,-70.0270004272461 C-13.52400016784668,-70.0270004272461 -13.52400016784668,-69.96499633789062 -13.52400016784668,-69.96499633789062 C-33.63600158691406,-57.558998107910156 -45.20600128173828,-32.88100051879883 -41.24300003051758,-5.265999794006348 C-35.67900085449219,33.244998931884766 -1.9229999780654907,63.10900115966797 33.98899841308594,61.3120002746582 C41.91999816894531,60.94599914550781 49.68899917602539,58.946998596191406 56.8120002746582,55.43899917602539z"></path></g><g opacity="1" transform="matrix(1,0,0,1,1084.428955078125,600.0880126953125)"><path fill="rgb(0,0,0)" fill-opacity="1" d=" M32.9370002746582,-2.6760001182556152 C32.9370002746582,-2.6760001182556152 38.255001068115234,34.14099884033203 38.255001068115234,34.14099884033203 C38.255001068115234,34.14099884033203 22.76300048828125,34.9109992980957 22.76300048828125,34.9109992980957 C22.76300048828125,34.9109992980957 19.405000686645508,11.70199966430664 19.405000686645508,11.70199966430664 C19.49799919128418,20.163999557495117 17.003000259399414,36.81100082397461 -2.0820000171661377,37.76599884033203 C-21.167999267578125,38.72100067138672 -34.75,22.875 -37.707000732421875,2.4590001106262207 C-40.7869987487793,-18.74799919128418 -30.910999298095703,-36.566001892089844 -7.348999977111816,-37.74700164794922 C16.972000122070312,-38.95899963378906 27.75200080871582,-21.767000198364258 29.610000610351562,-11.78499984741211 C29.610000610351562,-11.78499984741211 12.02400016784668,-10.902000427246094 12.02400016784668,-10.902000427246094 C11.12399959564209,-14.855999946594238 8.845000267028809,-18.358999252319336 5.59499979019165,-20.784000396728516 C2.3459999561309814,-23.20800018310547 -1.6610000133514404,-24.393999099731445 -5.705999851226807,-24.128999710083008 C-17.30699920654297,-23.54400062561035 -23.231000900268555,-12.371000289916992 -21.32200050354004,0.8360000252723694 C-19.41200065612793,14.043000221252441 -10.368000030517578,24.457000732421875 1.2640000581741333,23.902000427246094 C11.736000061035156,23.378000259399414 14.960000038146973,14.35099983215332 15.555999755859375,5.416999816894531 C15.555999755859375,5.416999816894531 -1.281999945640564,6.258999824523926 -1.281999945640564,6.258999824523926 C-1.281999945640564,6.258999824523926 -2.308000087738037,-0.9300000071525574 -2.308000087738037,-0.9300000071525574 C-2.308000087738037,-0.9300000071525574 32.9370002746582,-2.6760001182556152 32.9370002746582,-2.6760001182556152z"></path></g></g><g transform="matrix(1,0,0,1,-737.2999877929688,-358.8843078613281)" opacity="1" style="display: block;"><g opacity="1" transform="matrix(1,0,0,1,982.9869995117188,532.5579833984375)"><path fill="rgb(0,0,0)" fill-opacity="1" d=" M28.95199966430664,-100.3949966430664 C54.1150016784668,-92.01499938964844 70.39800262451172,-62.52000045776367 68.47799682617188,-21.90399932861328 C65.79900360107422,34.6619987487793 28.80900001525879,91.72000122070312 -13.982000350952148,105.28600311279297 C-24.761999130249023,108.70600128173828 -34.89500045776367,109.04499816894531 -43.99100112915039,106.7239990234375 C-43.99100112915039,106.7239990234375 -68.63099670410156,98.7030029296875 -68.63099670410156,98.7030029296875 C-59.667999267578125,100.88099670410156 -49.69900131225586,100.51100158691406 -39.104000091552734,97.14199829101562 C3.686000108718872,83.57599639892578 40.66600036621094,26.51799964904785 43.34600067138672,-30.04800033569336 C45.244998931884766,-70.1510009765625 29.40399932861328,-99.39900207519531 4.784999847412109,-108.20999908447266 C4.784999847412109,-108.20999908447266 28.95199966430664,-100.3949966430664 28.95199966430664,-100.3949966430664z"></path><path stroke-linecap="round" stroke-linejoin="round" fill-opacity="0" stroke="rgb(0,0,0)" stroke-opacity="1" stroke-width="3" d=" M28.95199966430664,-100.3949966430664 C54.1150016784668,-92.01499938964844 70.39800262451172,-62.52000045776367 68.47799682617188,-21.90399932861328 C65.79900360107422,34.6619987487793 28.80900001525879,91.72000122070312 -13.982000350952148,105.28600311279297 C-24.761999130249023,108.70600128173828 -34.89500045776367,109.04499816894531 -43.99100112915039,106.7239990234375 C-43.99100112915039,106.7239990234375 -68.63099670410156,98.7030029296875 -68.63099670410156,98.7030029296875 C-59.667999267578125,100.88099670410156 -49.69900131225586,100.51100158691406 -39.104000091552734,97.14199829101562 C3.686000108718872,83.57599639892578 40.66600036621094,26.51799964904785 43.34600067138672,-30.04800033569336 C45.244998931884766,-70.1510009765625 29.40399932861328,-99.39900207519531 4.784999847412109,-108.20999908447266 C4.784999847412109,-108.20999908447266 28.95199966430664,-100.3949966430664 28.95199966430664,-100.3949966430664z"></path></g><g opacity="1" transform="matrix(1,0,0,1,948.72998046875,527.10302734375)"><path fill="rgb(255,144,232)" fill-opacity="1" d=" M-34.382999420166016,104.15899658203125 C-61.630001068115234,97.5250015258789 -79.60700225830078,67.18800354003906 -77.59400177001953,24.610000610351562 C-74.92500305175781,-31.95599937438965 -37.935001373291016,-89.01399993896484 4.855999946594238,-102.58999633789062 C16.292999267578125,-106.21499633789062 27.000999450683594,-106.36900329589844 36.50699996948242,-103.61699676513672 C36.50699996948242,-103.61699676513672 38.95100021362305,-102.83699798583984 38.95100021362305,-102.83699798583984 C38.95100021362305,-102.83699798583984 39.03300094604492,-102.83699798583984 39.03300094604492,-102.83699798583984 C63.672000885009766,-94.0260009765625 79.49299621582031,-64.77799987792969 77.59400177001953,-24.673999786376953 C74.91400146484375,31.891000747680664 37.933998107910156,88.9489974975586 -4.855999946594238,102.51599884033203 C-15.451000213623047,105.96600341796875 -25.399999618530273,106.33599853515625 -34.382999420166016,104.15899658203125z"></path><path stroke-linecap="round" stroke-linejoin="round" fill-opacity="0" stroke="rgb(0,0,0)" stroke-opacity="1" stroke-width="3" d=" M-34.382999420166016,104.15899658203125 C-61.630001068115234,97.5250015258789 -79.60700225830078,67.18800354003906 -77.59400177001953,24.610000610351562 C-74.92500305175781,-31.95599937438965 -37.935001373291016,-89.01399993896484 4.855999946594238,-102.58999633789062 C16.292999267578125,-106.21499633789062 27.000999450683594,-106.36900329589844 36.50699996948242,-103.61699676513672 C36.50699996948242,-103.61699676513672 38.95100021362305,-102.83699798583984 38.95100021362305,-102.83699798583984 C38.95100021362305,-102.83699798583984 39.03300094604492,-102.83699798583984 39.03300094604492,-102.83699798583984 C63.672000885009766,-94.0260009765625 79.49299621582031,-64.77799987792969 77.59400177001953,-24.673999786376953 C74.91400146484375,31.891000747680664 37.933998107910156,88.9489974975586 -4.855999946594238,102.51599884033203 C-15.451000213623047,105.96600341796875 -25.399999618530273,106.33599853515625 -34.382999420166016,104.15899658203125z"></path></g><g opacity="1" transform="matrix(1,0,0,1,948.1920166015625,527.6300048828125)"><path fill="rgb(0,0,0)" fill-opacity="1" d=" M3.247999906539917,-55.9900016784668 C32.220001220703125,-65.23300170898438 40.803001403808594,-42.42399978637695 40.54600143432617,-27.871999740600586 C40.54600143432617,-27.871999740600586 19.601999282836914,-21.226999282836914 19.601999282836914,-21.226999282836914 C19.541000366210938,-29.30900001525879 14.777000427246094,-39.96900177001953 1.8519999980926514,-35.861000061035156 C-11.956999778747559,-31.486000061035156 -21.628000259399414,-12.78499984741211 -22.552000045776367,6.613999843597412 C-23.47599983215332,26.01300048828125 -15.293000221252441,39.055999755859375 -1.4850000143051147,34.680999755859375 C10.98900032043457,30.726999282836914 16.9950008392334,16.093000411987305 19.79800033569336,2.4549999237060547 C19.79800033569336,2.4549999237060547 -0.2529999911785126,8.812000274658203 -0.2529999911785126,8.812000274658203 C-0.2529999911785126,8.812000274658203 0.23999999463558197,-1.7660000324249268 0.23999999463558197,-1.7660000324249268 C0.23999999463558197,-1.7660000324249268 42.332000732421875,-15.116999626159668 42.332000732421875,-15.116999626159668 C42.332000732421875,-15.116999626159668 39.7760009765625,38.9739990234375 39.7760009765625,38.9739990234375 C39.7760009765625,38.9739990234375 21.29599952697754,44.827999114990234 21.29599952697754,44.827999114990234 C21.29599952697754,44.827999114990234 22.908000946044922,10.732000350952148 22.908000946044922,10.732000350952148 C20.988000869750977,23.496999740600586 14.04800033569336,49.43899917602539 -8.670999526977539,56.64799880981445 C-31.391000747680664,63.856998443603516 -43.638999938964844,43.99599838256836 -42.22200012207031,14.008000373840332 C-40.73400115966797,-17.149999618530273 -24.83099937438965,-47.09600067138672 3.247999906539917,-55.9900016784668z"></path></g></g><g transform="matrix(1,0,0,1,-737.2999877929688,-364.113525390625)" opacity="1" style="display: none;"><g opacity="1" transform="matrix(1,0,0,1,982.9869995117188,532.5579833984375)"><path fill="rgb(0,0,0)" fill-opacity="1" d=" M28.95199966430664,-100.3949966430664 C54.1150016784668,-92.01499938964844 70.39800262451172,-62.52000045776367 68.47799682617188,-21.90399932861328 C65.79900360107422,34.6619987487793 28.80900001525879,91.72000122070312 -13.982000350952148,105.28600311279297 C-24.761999130249023,108.70600128173828 -34.89500045776367,109.04499816894531 -43.99100112915039,106.7239990234375 C-43.99100112915039,106.7239990234375 -68.63099670410156,98.7030029296875 -68.63099670410156,98.7030029296875 C-59.667999267578125,100.88099670410156 -49.69900131225586,100.51100158691406 -39.104000091552734,97.14199829101562 C3.686000108718872,83.57599639892578 40.66600036621094,26.51799964904785 43.34600067138672,-30.04800033569336 C45.244998931884766,-70.1510009765625 29.40399932861328,-99.39900207519531 4.784999847412109,-108.20999908447266 C4.784999847412109,-108.20999908447266 28.95199966430664,-100.3949966430664 28.95199966430664,-100.3949966430664z"></path><path stroke-linecap="round" stroke-linejoin="round" fill-opacity="0" stroke="rgb(0,0,0)" stroke-opacity="1" stroke-width="3" d=" M28.95199966430664,-100.3949966430664 C54.1150016784668,-92.01499938964844 70.39800262451172,-62.52000045776367 68.47799682617188,-21.90399932861328 C65.79900360107422,34.6619987487793 28.80900001525879,91.72000122070312 -13.982000350952148,105.28600311279297 C-24.761999130249023,108.70600128173828 -34.89500045776367,109.04499816894531 -43.99100112915039,106.7239990234375 C-43.99100112915039,106.7239990234375 -68.63099670410156,98.7030029296875 -68.63099670410156,98.7030029296875 C-59.667999267578125,100.88099670410156 -49.69900131225586,100.51100158691406 -39.104000091552734,97.14199829101562 C3.686000108718872,83.57599639892578 40.66600036621094,26.51799964904785 43.34600067138672,-30.04800033569336 C45.244998931884766,-70.1510009765625 29.40399932861328,-99.39900207519531 4.784999847412109,-108.20999908447266 C4.784999847412109,-108.20999908447266 28.95199966430664,-100.3949966430664 28.95199966430664,-100.3949966430664z"></path></g><g opacity="1" transform="matrix(1,0,0,1,948.72998046875,527.10302734375)"><path fill="rgb(255,144,232)" fill-opacity="1" d=" M-34.382999420166016,104.15899658203125 C-61.630001068115234,97.5250015258789 -79.60700225830078,67.18800354003906 -77.59400177001953,24.610000610351562 C-74.92500305175781,-31.95599937438965 -37.935001373291016,-89.01399993896484 4.855999946594238,-102.58999633789062 C16.292999267578125,-106.21499633789062 27.000999450683594,-106.36900329589844 36.50699996948242,-103.61699676513672 C36.50699996948242,-103.61699676513672 38.95100021362305,-102.83699798583984 38.95100021362305,-102.83699798583984 C38.95100021362305,-102.83699798583984 39.03300094604492,-102.83699798583984 39.03300094604492,-102.83699798583984 C63.672000885009766,-94.0260009765625 79.49299621582031,-64.77799987792969 77.59400177001953,-24.673999786376953 C74.91400146484375,31.891000747680664 37.933998107910156,88.9489974975586 -4.855999946594238,102.51599884033203 C-15.451000213623047,105.96600341796875 -25.399999618530273,106.33599853515625 -34.382999420166016,104.15899658203125z"></path><path stroke-linecap="round" stroke-linejoin="round" fill-opacity="0" stroke="rgb(0,0,0)" stroke-opacity="1" stroke-width="3" d=" M-34.382999420166016,104.15899658203125 C-61.630001068115234,97.5250015258789 -79.60700225830078,67.18800354003906 -77.59400177001953,24.610000610351562 C-74.92500305175781,-31.95599937438965 -37.935001373291016,-89.01399993896484 4.855999946594238,-102.58999633789062 C16.292999267578125,-106.21499633789062 27.000999450683594,-106.36900329589844 36.50699996948242,-103.61699676513672 C36.50699996948242,-103.61699676513672 38.95100021362305,-102.83699798583984 38.95100021362305,-102.83699798583984 C38.95100021362305,-102.83699798583984 39.03300094604492,-102.83699798583984 39.03300094604492,-102.83699798583984 C63.672000885009766,-94.0260009765625 79.49299621582031,-64.77799987792969 77.59400177001953,-24.673999786376953 C74.91400146484375,31.891000747680664 37.933998107910156,88.9489974975586 -4.855999946594238,102.51599884033203 C-15.451000213623047,105.96600341796875 -25.399999618530273,106.33599853515625 -34.382999420166016,104.15899658203125z"></path></g><g opacity="1" transform="matrix(1,0,0,1,948.1920166015625,527.6300048828125)"><path fill="rgb(0,0,0)" fill-opacity="1" d=" M3.247999906539917,-55.9900016784668 C32.220001220703125,-65.23300170898438 40.803001403808594,-42.42399978637695 40.54600143432617,-27.871999740600586 C40.54600143432617,-27.871999740600586 19.601999282836914,-21.226999282836914 19.601999282836914,-21.226999282836914 C19.541000366210938,-29.30900001525879 14.777000427246094,-39.96900177001953 1.8519999980926514,-35.861000061035156 C-11.956999778747559,-31.486000061035156 -21.628000259399414,-12.78499984741211 -22.552000045776367,6.613999843597412 C-23.47599983215332,26.01300048828125 -15.293000221252441,39.055999755859375 -1.4850000143051147,34.680999755859375 C10.98900032043457,30.726999282836914 16.9950008392334,16.093000411987305 19.79800033569336,2.4549999237060547 C19.79800033569336,2.4549999237060547 -0.2529999911785126,8.812000274658203 -0.2529999911785126,8.812000274658203 C-0.2529999911785126,8.812000274658203 0.23999999463558197,-1.7660000324249268 0.23999999463558197,-1.7660000324249268 C0.23999999463558197,-1.7660000324249268 42.332000732421875,-15.116999626159668 42.332000732421875,-15.116999626159668 C42.332000732421875,-15.116999626159668 39.7760009765625,38.9739990234375 39.7760009765625,38.9739990234375 C39.7760009765625,38.9739990234375 21.29599952697754,44.827999114990234 21.29599952697754,44.827999114990234 C21.29599952697754,44.827999114990234 22.908000946044922,10.732000350952148 22.908000946044922,10.732000350952148 C20.988000869750977,23.496999740600586 14.04800033569336,49.43899917602539 -8.670999526977539,56.64799880981445 C-31.391000747680664,63.856998443603516 -43.638999938964844,43.99599838256836 -42.22200012207031,14.008000373840332 C-40.73400115966797,-17.149999618530273 -24.83099937438965,-47.09600067138672 3.247999906539917,-55.9900016784668z"></path></g></g></g></svg>