<svg width="515" height="290" viewBox="0 0 515 290" fill="none" xmlns="http://www.w3.org/2000/svg">
<g clip-path="url(#clip0_1511_24955)">
<rect width="515" height="290" fill="#23A094"/>
<path d="M135.229 214.371C132.569 214.132 130.606 211.783 130.845 209.123L133.573 178.707L106.365 176.263C103.705 176.024 101.743 173.674 101.982 171.014L108.366 99.9929C108.605 97.3336 110.955 95.3713 113.614 95.6095L140.824 98.0468L143.552 67.6799C143.79 65.02 146.14 63.0574 148.8 63.2962L370.041 83.1583C372.701 83.397 374.663 85.7464 374.425 88.4061L371.704 118.774L399.438 121.266C402.098 121.505 404.06 123.855 403.822 126.515L397.444 197.543C397.205 200.203 394.855 202.166 392.195 201.927L364.454 199.434L361.725 229.849C361.487 232.509 359.137 234.472 356.477 234.233L135.229 214.371Z" fill="#90A8ED" stroke="black" stroke-width="2.41784" stroke-miterlimit="10"/>
<path d="M199.345 97.3518L189.961 96.5437L187.972 118.741L184.634 118.442L186.63 96.2447L177.246 95.4367L177.529 92.2852L199.628 94.265L199.345 97.3518Z" fill="black"/>
<path d="M200.734 119.888L203.014 94.5396L206.126 94.8143L205.067 106.62C205.653 105.459 206.583 104.507 207.73 103.892C208.877 103.278 210.185 103.031 211.477 103.186C215.243 103.525 217.377 106.232 217.021 110.143L216.027 121.262L212.875 120.979L213.804 110.588C214.071 107.654 212.721 105.998 210.111 105.739C207.362 105.489 204.97 107.719 204.647 111.274L203.838 120.163L200.734 119.888Z" fill="black"/>
<path d="M236.397 117.836C235.792 119.457 234.651 120.822 233.163 121.704C231.674 122.586 229.929 122.932 228.217 122.685C223.181 122.232 219.875 118.394 220.376 112.851C220.821 107.929 224.466 104.309 229.356 104.77C231.405 104.861 233.334 105.759 234.723 107.267C235.372 108.016 235.853 108.896 236.132 109.846C236.411 110.797 236.482 111.797 236.34 112.778C236.283 113.483 236.148 114.18 235.936 114.855L223.512 113.739C223.213 117.473 225.428 119.679 228.467 119.953C231.11 120.196 232.864 118.959 233.778 116.56L236.397 117.836ZM233.236 112.333L233.325 111.832C233.543 109.368 231.709 107.744 229.073 107.509C227.84 107.348 226.592 107.671 225.593 108.411C224.593 109.151 223.92 110.25 223.714 111.477L233.236 112.333Z" fill="black"/>
<path d="M248.424 111.364C248.974 104.091 255.149 98.6771 262.205 99.4528C268.761 100.043 272.624 103.784 273.449 109.263L270.086 110.071C269.399 105.521 266.699 103.049 261.955 102.628C256.919 102.176 252.433 105.788 251.9 111.687C251.366 117.586 254.745 121.909 260.362 122.418C265.212 122.846 268.259 119.073 268.979 115.953L257.477 114.879L257.76 111.76L273.303 113.158L272.123 126.264L269.262 126.006L269.771 120.349C267.427 124.115 264.266 125.949 259.659 125.537C252.587 124.988 247.616 118.846 248.424 111.364Z" fill="black"/>
<path d="M281.095 109.764L280.869 112.269C281.283 111.42 281.954 110.724 282.788 110.28C283.621 109.836 284.573 109.666 285.509 109.796C286.132 109.831 286.741 109.994 287.299 110.273C287.857 110.552 288.353 110.943 288.754 111.42C289.156 111.897 289.456 112.452 289.636 113.049C289.816 113.647 289.872 114.275 289.801 114.895C289.747 115.542 289.614 116.179 289.405 116.794L286.366 116.519C286.471 116.105 286.544 115.684 286.584 115.258C286.729 113.642 285.775 112.6 284.062 112.446C282.146 112.268 280.74 113.683 280.53 115.994L279.552 126.935L276.432 126.652L277.975 109.489L281.095 109.764Z" fill="black"/>
<path d="M301.083 111.194C306.305 111.663 309.465 115.857 309.012 120.891C308.56 125.925 304.623 129.521 299.474 129.052C294.326 128.584 291.133 124.398 291.586 119.356C292.038 114.313 295.902 110.734 301.083 111.194ZM304.623 116.115C304.189 115.505 303.622 115 302.966 114.637C302.31 114.275 301.581 114.065 300.832 114.022C297.64 113.74 295.094 116.067 294.77 119.679C294.447 123.291 296.54 126.006 299.733 126.297C302.926 126.588 305.464 124.293 305.787 120.64C306.002 119.038 305.585 117.415 304.623 116.115Z" fill="black"/>
<path d="M317.065 127.234L322.214 113.424L325.867 113.755L328.446 128.26L333.732 114.523L336.812 114.798L330.167 131.5L326.288 131.153L323.669 117.634L318.746 130.45L314.834 130.094L311.27 112.471L314.349 112.753L317.065 127.234Z" fill="black"/>
<path d="M147.694 137.318L156.666 126.046L160.473 126.385L149.1 140.405L148.195 150.837L144.865 150.538L145.77 140.09L137.105 124.284L141.09 124.648L147.694 137.318Z" fill="black"/>
<path d="M166.22 134.789C171.433 135.258 174.602 139.444 174.149 144.486C173.696 149.528 169.76 153.108 164.611 152.647C159.462 152.187 156.27 147.993 156.722 142.951C157.175 137.908 161.039 134.32 166.22 134.789ZM169.76 139.702C169.324 139.093 168.757 138.589 168.102 138.227C167.446 137.865 166.717 137.654 165.969 137.609C162.776 137.326 160.23 139.654 159.907 143.266C159.584 146.878 161.677 149.593 164.87 149.876C168.063 150.158 170.601 147.872 170.924 144.219C171.137 142.62 170.719 141 169.76 139.702Z" fill="black"/>
<path d="M193.462 137.593L191.918 154.764L188.774 154.482L189.032 151.581C188.39 152.532 187.5 153.291 186.46 153.776C185.419 154.262 184.266 154.455 183.124 154.336C179.357 153.997 177.167 151.5 177.546 147.266L178.541 136.252L181.653 136.535L180.731 146.821C180.464 149.827 181.701 151.435 184.207 151.669C186.923 151.912 189.186 149.884 189.493 146.449L190.301 137.318L193.462 137.593Z" fill="black"/>
<path d="M201.189 138.288L200.963 140.793C201.377 139.945 202.048 139.248 202.882 138.804C203.715 138.36 204.667 138.191 205.603 138.32C206.226 138.356 206.835 138.518 207.393 138.798C207.951 139.077 208.446 139.467 208.848 139.945C209.25 140.422 209.55 140.977 209.73 141.574C209.91 142.172 209.966 142.799 209.895 143.419C209.841 144.066 209.708 144.704 209.499 145.318L206.459 145.044C206.561 144.629 206.634 144.208 206.678 143.783C206.823 142.167 205.869 141.124 204.156 140.971C202.24 140.793 200.834 142.199 200.623 144.518L199.645 155.443L196.525 155.16L198.069 137.997L201.189 138.288Z" fill="black"/>
<path d="M231.92 132.817L236.551 133.229L244.893 159.483L241.191 159.152L239.162 152.477L225.906 151.282L222.673 157.496L219.02 157.164L231.92 132.817ZM238.208 149.375L233.997 135.638L227.41 148.381L238.208 149.375Z" fill="black"/>
<path d="M263.458 143.88L261.914 161.051L258.762 160.768L259.028 157.867C258.386 158.819 257.496 159.578 256.456 160.063C255.415 160.548 254.262 160.742 253.12 160.623C249.345 160.283 247.163 157.787 247.543 153.552L248.529 142.514L251.649 142.797L250.727 153.084C250.452 156.09 251.697 157.698 254.195 157.932C256.911 158.174 259.174 156.146 259.489 152.712L260.297 143.581L263.458 143.88Z" fill="black"/>
<path d="M275.048 144.559C276.259 144.643 277.423 145.066 278.405 145.781C279.387 146.496 280.148 147.472 280.6 148.599L281.619 137.286L284.771 137.569L282.492 162.918L279.485 162.651L279.76 159.573C279.076 160.574 278.135 161.373 277.035 161.885C275.936 162.396 274.719 162.603 273.512 162.482C268.767 162.053 265.793 158.175 266.237 152.922C266.682 147.67 270.376 144.131 275.048 144.559ZM275.371 147.435C272.582 147.185 269.713 149.302 269.381 153.14C269.05 156.979 271.443 159.459 274.231 159.71C276.907 159.952 279.889 157.956 280.204 154.118C280.52 150.28 278.054 147.678 275.371 147.435Z" fill="black"/>
<path d="M291.789 146.425L290.245 163.588L287.133 163.314L288.669 146.142L291.789 146.425ZM289.105 139.282L292.581 139.597L292.257 143.258L288.774 142.942L289.105 139.282Z" fill="black"/>
<path d="M310.662 160.203C310.058 161.823 308.917 163.188 307.428 164.07C305.94 164.953 304.195 165.299 302.482 165.051C297.447 164.599 294.141 160.76 294.642 155.217C295.086 150.288 298.732 146.676 303.622 147.137C305.669 147.229 307.596 148.123 308.989 149.625C309.638 150.376 310.118 151.257 310.397 152.209C310.676 153.162 310.747 154.162 310.606 155.144C310.549 155.85 310.413 156.546 310.202 157.221L297.778 156.106C297.479 159.839 299.686 162.045 302.733 162.32C303.879 162.492 305.048 162.242 306.025 161.618C307.001 160.994 307.718 160.038 308.043 158.926L310.662 160.203ZM307.502 154.7L307.591 154.199C307.809 151.775 305.974 150.11 303.339 149.876C302.106 149.714 300.858 150.038 299.858 150.778C298.859 151.518 298.185 152.617 297.98 153.843L307.502 154.7Z" fill="black"/>
<path d="M313.646 165.69L315.19 148.526L318.31 148.809L318.06 151.597C318.723 150.667 319.623 149.932 320.666 149.468C321.709 149.003 322.858 148.826 323.993 148.955C327.646 149.278 329.828 151.847 329.465 155.872L328.446 167.023L325.302 166.74L326.215 156.526C326.482 153.52 325.173 151.831 322.716 151.613C320.105 151.379 317.866 153.229 317.591 156.558L316.783 165.972L313.646 165.69Z" fill="black"/>
<path d="M347.399 161.1L350.098 162.401C348.724 166.659 345.386 168.865 341.078 168.485C335.678 168.001 332.38 164.057 332.865 158.627C332.937 157.473 333.24 156.345 333.756 155.309C334.271 154.274 334.989 153.352 335.867 152.599C336.745 151.846 337.765 151.276 338.867 150.923C339.969 150.571 341.13 150.443 342.282 150.546C346.453 150.918 349.217 153.463 349.694 157.455L346.76 158.069C346.461 155.298 344.788 153.544 341.999 153.294C339.356 153.059 336.268 154.91 335.913 158.877C335.803 159.678 335.855 160.493 336.065 161.273C336.276 162.053 336.64 162.783 337.138 163.421C337.635 164.058 338.255 164.589 338.961 164.983C339.666 165.377 340.444 165.625 341.247 165.714C344.61 166.061 346.421 164.332 347.399 161.1Z" fill="black"/>
<path d="M368.633 165.407C368.027 167.027 366.886 168.391 365.398 169.272C363.91 170.154 362.165 170.501 360.453 170.255C355.417 169.803 352.111 165.964 352.613 160.421C353.049 155.492 356.703 151.88 361.593 152.34C363.637 152.431 365.564 153.326 366.952 154.829C367.602 155.579 368.083 156.46 368.362 157.412C368.641 158.365 368.712 159.366 368.568 160.348C368.512 161.054 368.376 161.75 368.164 162.425L355.741 161.31C355.442 165.043 357.648 167.249 360.695 167.524C361.841 167.696 363.011 167.446 363.987 166.822C364.963 166.198 365.681 165.242 366.006 164.13L368.633 165.407ZM365.472 159.904L365.553 159.403C365.78 156.979 363.937 155.314 361.31 155.08C360.076 154.918 358.829 155.242 357.829 155.982C356.829 156.722 356.156 157.821 355.951 159.047L365.472 159.904Z" fill="black"/>
<path d="M183.373 186.958C186.162 187.208 188.401 186.683 190.09 185.341C191.851 183.88 193.133 181.924 193.768 179.725L196.597 181.18C194.778 186.836 189.944 190.626 183.098 190.012C175.484 189.398 170.82 183.216 171.588 175.839C172.138 168.566 178.313 163.152 185.442 163.936C188.522 164.211 190.947 165.237 192.652 166.99C194.37 168.732 195.5 170.967 195.885 173.382L192.717 174.481C192.216 170.352 189.597 167.378 185.143 166.974C179.962 166.514 175.589 170.061 175.04 176.146C174.498 182.473 178.006 186.513 183.373 186.958Z" fill="black"/>
<path d="M199.215 191.119L201.494 165.762L204.606 166.045L203.547 177.851C204.132 176.688 205.061 175.733 206.208 175.117C207.355 174.501 208.664 174.253 209.957 174.409C213.724 174.748 215.85 177.463 215.502 181.374L214.475 192.493L211.323 192.21L212.261 181.81C212.519 178.877 211.178 177.229 208.567 176.962C205.811 176.712 203.418 178.942 203.103 182.489L202.294 191.378L199.215 191.119Z" fill="black"/>
<path d="M225.565 183.184C226.803 183.294 228.019 183.588 229.17 184.057L230.69 184.631L230.851 182.861C231.078 180.364 229.461 178.821 226.891 178.594C224.32 178.368 222.639 179.564 222 181.738L219.252 180.687C220.238 177.455 223.108 175.588 227.125 175.952C231.797 176.372 234.214 179.144 233.834 183.386L232.864 194.141L229.865 193.867L230.108 191.152C229.073 192.921 226.68 193.948 223.924 193.697C222.442 193.608 221.044 192.978 219.996 191.927C219.501 191.398 219.129 190.765 218.907 190.075C218.684 189.385 218.618 188.654 218.711 187.936C219.026 184.429 221.831 182.853 225.565 183.184ZM230.471 187.095L228.919 186.481C227.914 186.067 226.856 185.795 225.775 185.673C223.568 185.479 222.105 186.295 221.952 188.097C221.806 189.713 222.938 190.885 225.225 191.087C228.087 191.346 230.213 190.004 230.439 187.507L230.471 187.095Z" fill="black"/>
<path d="M239.814 169.18L242.934 169.463L240.655 194.812L237.543 194.537L239.814 169.18Z" fill="black"/>
<path d="M247.616 169.908L250.728 170.182L248.425 195.539L245.305 195.256L247.616 169.908Z" fill="black"/>
<path d="M268.874 192.154C268.268 193.773 267.127 195.137 265.639 196.019C264.151 196.901 262.406 197.248 260.694 197.002C255.658 196.549 252.352 192.711 252.845 187.168C253.29 182.247 256.943 178.627 261.834 179.087C262.847 179.129 263.842 179.371 264.761 179.798C265.681 180.225 266.507 180.829 267.193 181.576C267.844 182.324 268.325 183.203 268.604 184.155C268.883 185.106 268.953 186.106 268.809 187.087C268.749 187.792 268.613 188.488 268.405 189.164L255.974 188.049C255.683 191.782 257.889 193.996 260.936 194.263C263.58 194.505 265.334 193.269 266.239 190.869L268.874 192.154ZM265.713 186.643L265.794 186.142C266.021 183.677 264.178 182.053 261.543 181.818C260.31 181.669 259.067 181.999 258.07 182.738C257.073 183.478 256.398 184.572 256.184 185.794L265.713 186.643Z" fill="black"/>
<path d="M271.865 197.64L273.393 180.493L276.505 180.776L276.254 183.564C276.922 182.639 277.823 181.908 278.865 181.444C279.907 180.98 281.053 180.799 282.187 180.921C285.849 181.245 288.031 183.814 287.667 187.838L286.665 198.99L283.513 198.707L284.434 188.493C284.701 185.487 283.391 183.806 280.926 183.58C278.323 183.345 276.076 185.196 275.81 188.525L275.001 197.939L271.865 197.64Z" fill="black"/>
<path d="M293.995 200.695C294.464 203.256 296.048 204.638 298.732 204.88C302.062 205.179 303.969 203.119 304.317 199.224L304.487 197.301C303.299 199.127 301.084 200.242 298.223 199.992C293.874 199.596 290.592 195.951 291.053 190.764C291.53 185.406 295.45 182.069 299.944 182.473C301.09 182.508 302.205 182.847 303.177 183.454C304.148 184.062 304.941 184.917 305.473 185.931L305.707 183.362L308.86 183.644L307.453 199.289C307.349 201.669 306.38 203.93 304.729 205.648C303.899 206.426 302.904 207.007 301.818 207.345C300.731 207.684 299.582 207.772 298.457 207.603C294.286 207.232 291.837 205.22 291.029 201.608L293.995 200.695ZM300.235 185.301C297.05 185.01 294.512 187.192 294.165 191.103C293.85 194.618 295.967 197.034 299.152 197.325C302.337 197.616 304.81 195.345 305.125 191.838C305.441 188.331 303.388 185.568 300.235 185.293V185.301Z" fill="black"/>
<path d="M327.773 197.462C327.169 199.081 326.029 200.445 324.543 201.327C323.056 202.209 321.313 202.556 319.602 202.311C314.566 201.858 311.252 198.02 311.753 192.485C312.198 187.555 315.843 183.943 320.733 184.404C322.781 184.491 324.711 185.386 326.1 186.893C326.749 187.642 327.23 188.522 327.508 189.472C327.787 190.423 327.858 191.423 327.717 192.404C327.66 193.112 327.525 193.811 327.313 194.489L314.889 193.373C314.59 197.107 316.805 199.313 319.844 199.587C320.99 199.759 322.159 199.51 323.136 198.886C324.112 198.262 324.829 197.305 325.155 196.194L327.773 197.462ZM324.621 191.959L324.702 191.45C324.92 189.026 323.085 187.362 320.45 187.127C319.218 186.978 317.975 187.307 316.978 188.047C315.981 188.787 315.306 189.88 315.091 191.103L324.621 191.959Z" fill="black"/>
<path d="M102.534 33.85C100.247 33.85 98.0108 35.9143 97.7538 38.8969V34.0959H94.4688V48.5721H97.794V41.565C97.794 39.6022 99.1899 36.8334 102.534 36.8334V33.85Z" fill="black"/>
<path d="M136.459 46.2546V36.3368H138.385C140.953 36.3368 143.04 37.9364 143.04 41.2157C143.04 44.495 140.953 46.2546 138.385 46.2546H136.459ZM133.168 48.5741H138.786C142.237 48.5741 146.491 46.3346 146.491 41.2157C146.491 36.1768 142.237 34.0972 138.786 34.0972H133.168V48.5741Z" fill="black"/>
<path d="M121.211 41.3757C121.211 38.7363 122.575 36.5767 124.822 36.5767C126.989 36.5767 128.193 38.7363 128.193 41.3757C128.193 44.0151 126.989 46.1747 124.822 46.1747C122.575 46.1747 121.211 44.0151 121.211 41.3757ZM117.84 41.5357C117.84 45.8547 120.087 48.8941 123.619 48.8941C126.187 48.8941 127.712 47.2145 128.514 44.495V48.5742H131.804V34.0972H128.514V37.9364C127.792 35.377 126.267 33.8573 123.859 33.8573C120.248 33.8573 117.84 37.1366 117.84 41.5357Z" fill="black"/>
<path d="M45.1866 48.894C41.0933 48.894 38.6855 45.6147 38.6855 41.5355C38.6855 37.2964 41.3341 33.8572 46.3905 33.8572C51.6074 33.8572 53.3731 37.3764 53.4534 39.376H49.6812C49.6009 38.2562 48.6378 36.5766 46.3102 36.5766C43.8222 36.5766 42.217 38.7361 42.217 41.3756C42.217 44.015 43.8222 46.1746 46.3102 46.1746C48.5575 46.1746 49.5206 44.4149 49.9219 42.6553H46.3102V41.2156H53.8888V48.574H50.564V43.935C50.3232 45.6147 49.2799 48.894 45.1866 48.894Z" fill="black"/>
<path d="M59.9294 48.8941C56.7993 48.8941 54.873 46.8145 54.873 42.6554V34.0972H58.244V42.6554C58.244 44.8149 59.2873 45.8547 61.053 45.8547C64.5042 45.8547 65.7884 41.6156 65.7884 38.6563V34.0972H69.1593V48.5741H65.8686V43.2153C65.2265 46.1746 63.4608 48.8941 59.9294 48.8941Z" fill="black"/>
<path d="M88.6717 33.8498C85.7959 33.8498 83.9817 36.6184 83.3895 39.1783C83.2882 35.7477 81.5953 33.8498 78.8867 33.8498C76.5465 33.8498 74.3753 35.9295 73.8114 39.2197V34.0961H70.5254V48.5733H73.8536V43.3833C73.8536 42.0966 74.3919 36.8164 77.7422 36.8164C79.9126 36.8164 80.1389 38.7673 80.1389 41.4342V48.5733H83.4655V43.3833C83.4655 42.0966 84.0261 36.8164 87.3765 36.8164C89.5449 36.8164 89.769 38.7673 89.769 41.4342V48.5733H93.1003V40.0101C93.1156 35.902 91.6601 33.8498 88.6717 33.8498Z" fill="black"/>
<path d="M109.576 33.8498C105.267 33.8498 102.348 37.2165 102.348 41.372C102.348 45.9507 105.124 48.8941 109.576 48.8941C113.884 48.8941 116.856 45.5274 116.856 41.372C116.856 36.7933 114.025 33.8498 109.576 33.8498ZM109.576 46.3316C107.067 46.3316 105.443 44.2154 105.443 41.372C105.443 38.5286 107.073 36.4123 109.576 36.4123C112.078 36.4123 113.643 38.5286 113.643 41.372C113.643 44.2154 112.076 46.3316 109.576 46.3316Z" fill="black"/>
<path d="M491.946 69.9067L489.023 66.8426L489.533 66.3184C491.561 64.2348 492.871 61.5579 493.273 58.6776C493.674 55.7974 493.146 52.8641 491.765 50.3052C490.606 48.157 488.892 46.3589 486.803 45.098C484.713 43.837 482.324 43.1592 479.884 43.1352L479.885 41.0952C479.886 38.4477 479.118 35.8571 477.673 33.6388C476.229 31.4206 474.17 29.6706 471.749 28.602C469.328 27.5321 466.647 27.1899 464.035 27.6171C461.422 28.0443 458.99 29.2224 457.035 31.0079L452.653 35.0076L448.468 31.5792C446.393 29.8797 443.864 28.8294 441.196 28.5595C438.528 28.2897 435.839 28.8123 433.466 30.062C431.094 31.309 429.141 33.2272 427.851 35.5773C426.561 37.9274 425.992 40.6053 426.213 43.2771L426.551 47.283L424.355 47.4786C421.735 47.711 419.238 48.6959 417.165 50.3148C415.092 51.9336 413.53 54.1173 412.669 56.6031L389.06 54.4295C385.455 54.0976 381.866 55.2119 379.082 57.5273C376.298 59.8426 374.548 63.1694 374.216 66.7757L368.747 126.179C368.416 129.785 369.53 133.375 371.844 136.159C374.158 138.943 377.483 140.693 381.087 141.025L458.792 148.179C462.397 148.511 465.985 147.397 468.769 145.083C471.553 142.768 473.303 139.442 473.636 135.836L477.559 93.2265L482.711 92.9833C485.324 92.8592 487.848 91.9861 489.98 90.4679C492.112 88.9498 493.762 86.8506 494.735 84.4204C495.712 81.9884 495.968 79.3267 495.473 76.7531C494.978 74.1796 493.754 71.8028 491.946 69.9067Z" fill="#23A094" stroke="black" stroke-width="2.41784" stroke-miterlimit="10"/>
<path d="M465.541 75.0748L386.619 67.8086L381.065 128.14L459.986 135.406L465.541 75.0748Z" stroke="black" stroke-width="2.41784" stroke-linecap="round" stroke-linejoin="round"/>
<path d="M402.727 90.2606L391.814 89.2559L388.713 122.945L399.626 123.949L402.727 90.2606Z" stroke="black" stroke-width="2.41784" stroke-linecap="round" stroke-linejoin="round"/>
<path d="M420.413 95.9792L409.5 94.9745L406.772 124.607L417.685 125.612L420.413 95.9792Z" stroke="black" stroke-width="2.41784" stroke-linecap="round" stroke-linejoin="round"/>
<path d="M439.911 81.9845L428.998 80.9797L424.828 126.27L435.741 127.275L439.911 81.9845Z" stroke="black" stroke-width="2.41784" stroke-linecap="round" stroke-linejoin="round"/>
<path d="M460.013 61.4823L449.1 60.4775L442.889 127.933L453.802 128.937L460.013 61.4823Z" fill="black" stroke="black" stroke-width="2.41784" stroke-linecap="round" stroke-linejoin="round"/>
<path d="M438.974 72.2687L424.968 60.7447L440.95 59.3328L439.448 41.5001L452.972 52.5751L466.275 40.4305L466.264 59.042L480.007 56.3766L470.165 66.4802L482.352 79.2681L465.447 80.0714" stroke="black" stroke-width="2.41784" stroke-linecap="round" stroke-linejoin="round"/>
<circle cx="95.9173" cy="211.973" r="66.7453" transform="rotate(-9.50773 95.9173 211.973)" fill="black" stroke="black" stroke-width="2.41784"/>
<circle cx="87.9173" cy="203.973" r="66.7453" transform="rotate(-9.50773 87.9173 203.973)" fill="#23A094" stroke="black" stroke-width="2.41784"/>
<mask id="mask0_1511_24955" style="mask-type:alpha" maskUnits="userSpaceOnUse" x="20" y="136" width="135" height="135">
<circle cx="87.7912" cy="203.219" r="65.9792" transform="rotate(-9.50773 87.7912 203.219)" fill="#23A094" stroke="black" stroke-width="2.41784"/>
</mask>
<g mask="url(#mask0_1511_24955)">
<path d="M119.022 196.533C113.544 193.236 109.583 187.913 107.996 181.717C106.409 175.52 107.324 168.949 110.542 163.423L53.315 173.008C58.1581 177.183 61.1641 183.098 61.6828 189.473C62.2014 195.849 60.1909 202.171 56.0863 207.074C61.564 210.371 65.5247 215.693 67.1115 221.888C68.6982 228.084 67.7835 234.656 64.5652 240.181L121.793 230.596C116.95 226.421 113.944 220.507 113.425 214.132C112.907 207.757 114.917 201.435 119.022 196.533Z" fill="#FF90E8" stroke="black" stroke-width="2.41784"/>
<path d="M80.9297 237.441L105.43 233.338L113.332 280.518L88.8315 284.621L80.9297 237.441Z" fill="#F1F333" stroke="black" stroke-width="2.41784"/>
<path d="M105.325 281.859L105.525 283.051L107.91 282.652L107.71 281.459L105.325 281.859ZM100.904 240.823C100.794 240.165 100.171 239.721 99.5121 239.831C98.8536 239.941 98.4092 240.564 98.5195 241.223L100.904 240.823ZM107.71 281.459L100.904 240.823L98.5195 241.223L105.325 281.859L107.71 281.459Z" fill="black"/>
<circle cx="76.0471" cy="203.628" r="1.67945" transform="rotate(-9.50773 76.0471 203.628)" fill="black"/>
<circle cx="99.0292" cy="199.778" r="1.67917" transform="rotate(-9.50773 99.0292 199.778)" fill="black"/>
<path d="M83.127 208.68C83.6412 209.386 85.4248 210.766 88.4451 210.64C91.4654 210.515 93.4 208.068 93.9898 206.861" stroke="black" stroke-width="2.41784"/>
</g>
</g>
<defs>
<clipPath id="clip0_1511_24955">
<rect width="515" height="290" fill="white"/>
</clipPath>
</defs>
</svg>
