<svg width="515" height="290" viewBox="0 0 515 290" fill="none" xmlns="http://www.w3.org/2000/svg">
<g clip-path="url(#clip0_1511_25161)">
<rect width="515" height="290" fill="#FF90E8"/>
<path d="M298.637 330.052C293.642 344.435 290.473 363.058 289.058 385.881C270.091 345.465 236.058 320.071 191.831 309.569C148.561 299.294 95.5534 303.271 37.3019 321.288C54.4147 311.433 67.8668 302.845 77.6342 295.523C83.2886 291.285 87.731 287.454 90.939 284.031C94.1297 280.627 96.1784 277.544 96.9153 274.796C97.2883 273.405 97.3321 272.074 96.9923 270.83C96.6516 269.582 95.943 268.489 94.9172 267.552C92.8978 265.706 89.619 264.433 85.2601 263.619C76.9631 262.07 64.2104 262.092 47.0558 263.636C49.0686 261.63 50.8775 259.645 52.3852 257.725C54.3815 255.183 55.8913 252.702 56.6205 250.392C57.355 248.065 57.3232 245.81 56.0694 243.885C54.8382 241.995 52.5582 240.627 49.2594 239.746C42.6768 237.987 31.4051 237.999 13.8538 240.446C-0.498669 242.446 -19.1333 246.088 -42.9792 251.79C-18.6601 242.562 0.622257 234.362 14.9611 227.005C23.6698 222.537 30.5829 218.365 35.7021 214.447C40.8033 210.542 44.2133 206.821 45.7874 203.226C47.3978 199.548 47.0622 196.045 44.8 192.811C42.5919 189.654 38.5907 186.808 32.992 184.176C22.2652 179.133 5.22269 174.672 -17.8857 170.479C25.994 150.437 50.8574 122.684 47.9173 89.3881C46.4195 72.4263 37.7021 54.2019 20.8797 35.0295C6.01794 18.0917 -15.2055 0.371811 -43.4813 -17.9248C-14.5254 -5.37896 9.91834 3.61346 30.1722 9.2221C53.255 15.6142 70.9958 17.6405 83.8031 15.4474C90.2215 14.3483 95.4407 12.1828 99.4681 8.93968C103.503 5.69054 106.289 1.40208 107.898 -3.84918C110.933 -13.7512 109.789 -27.0772 105.069 -43.4877C119.997 -33.1203 132.902 -26.3746 143.77 -23.3253C155.215 -20.1144 164.543 -20.9695 171.545 -26.1982C178.513 -31.4009 182.936 -40.7604 185.004 -54.0079C186.94 -66.4183 186.832 -82.3828 184.709 -101.884C210.537 -64.1851 241.865 -42.228 281.349 -37.3625C320.949 -32.4827 368.582 -44.8201 426.862 -75.3403C411.638 -56.6569 401.907 -41.5632 397.753 -30.0997C395.535 -23.978 394.863 -18.7735 395.906 -14.5664C396.965 -10.2964 399.757 -7.18852 404.135 -5.25391C408.467 -3.33977 414.352 -2.56842 421.708 -2.85469C429.078 -3.14153 438.006 -4.49401 448.477 -6.89884C465.914 -10.9036 487.703 -17.8438 513.825 -27.7176C494.538 -17.3432 479.181 -8.12727 468.006 -0.0567245C461.002 5.00191 455.605 9.63548 451.909 13.8478C448.233 18.0379 446.132 21.9327 445.955 25.5061C445.774 29.1808 447.631 32.2649 451.253 34.7455C454.838 37.2005 460.233 39.1338 467.401 40.6039C481.301 43.4547 502.223 44.631 530.539 44.1858C489.962 78.8872 464.907 113.739 462.296 152.528C459.714 190.899 479.116 232.796 526.399 281.842C499.367 268.456 476.421 259.006 457.561 253.52C437.512 247.689 421.935 246.293 410.947 249.552C405.426 251.189 401.048 254.007 397.871 258.03C394.698 262.048 392.773 267.202 392.042 273.435C390.656 285.238 393.532 301.059 400.533 320.841C383.774 308.305 368.919 300.068 355.93 296.185C342.23 292.089 330.53 292.817 320.898 298.543C311.293 304.254 303.924 314.83 298.637 330.052Z" fill="#90A8ED" stroke="black" stroke-width="2"/>
<path d="M99.778 97.648L111.394 118H116.482V95.6H113.538V115.952L101.89 95.6H96.834V118H99.778V97.648Z" fill="black"/>
<path d="M132.39 112.496C131.782 114.672 130.342 115.888 128.006 115.888C125.318 115.888 123.206 114.128 123.174 110.832H134.15C134.278 110.256 134.342 109.648 134.342 108.976C134.342 106.992 133.734 105.424 132.486 104.272C131.238 103.088 129.606 102.512 127.59 102.512C123.27 102.512 120.358 105.968 120.358 110.32C120.358 115.216 123.558 118.32 128.006 118.32C131.494 118.32 133.766 116.496 134.79 113.424L132.39 112.496ZM123.174 108.848C123.462 106.448 125.222 104.944 127.558 104.944C129.862 104.944 131.622 106.224 131.622 108.4L131.59 108.848H123.174Z" fill="black"/>
<path d="M139.302 102.832H136.582L141.094 118H144.55L147.91 106.352L151.27 118H154.694L159.206 102.832H156.486L152.934 115.312L149.51 102.832H146.278L142.854 115.312L139.302 102.832Z" fill="black"/>
<path d="M161.053 121.296C161.533 121.488 162.045 121.584 162.621 121.584C164.509 121.584 165.437 120.656 165.437 118.832V114.64H162.109V118H162.685C163.421 118 163.837 118.352 163.837 118.992C163.837 119.728 163.357 120.048 162.589 120.048C162.141 120.048 161.725 119.952 161.341 119.76L161.053 121.296Z" fill="black"/>
<path d="M176.939 114.032C177.835 116.624 180.171 118.32 183.595 118.32C187.019 118.32 189.675 116.336 189.675 113.52C189.675 110.992 187.915 109.488 184.363 109.008C181.387 108.592 180.299 108.016 180.299 106.704C180.299 105.52 181.579 104.752 183.243 104.752C184.875 104.752 186.059 105.52 186.571 107.056L188.715 105.872C187.787 103.728 186.091 102.512 183.243 102.512C181.675 102.512 180.363 102.896 179.307 103.696C178.283 104.464 177.771 105.456 177.771 106.672C177.771 109.072 179.499 110.512 182.987 111.024C186.059 111.44 186.987 112.24 186.987 113.68C186.987 114.992 185.739 115.888 183.723 115.888C181.419 115.888 180.075 114.992 179.211 112.848L176.939 114.032Z" fill="black"/>
<path d="M193.361 102.832V118H196.113V102.832H193.361ZM193.201 100.016H196.273V96.784H193.201V100.016Z" fill="black"/>
<path d="M200.632 102.832V118H203.384V108.72C203.384 106.256 204.664 105.008 206.328 105.008C207.992 105.008 209.112 106.096 209.112 108.176V118H211.896V108.56C211.896 106.224 213.208 105.008 214.872 105.008C216.504 105.008 217.656 106.16 217.656 108.048V118H220.408V107.472C220.408 104.272 218.616 102.512 215.8 102.512C213.88 102.512 212.152 103.6 211.352 105.52C210.84 103.568 209.304 102.512 207.48 102.512C205.464 102.512 204.12 103.472 203.384 104.976V102.832H200.632Z" fill="black"/>
<path d="M224.935 102.832V124.336H227.687V115.632C228.711 117.328 230.631 118.32 232.807 118.32C236.935 118.32 239.911 115.12 239.911 110.416C239.911 105.712 237.095 102.512 232.999 102.512C230.727 102.512 228.551 103.856 227.559 105.68V102.832H224.935ZM232.359 115.856C229.991 115.856 227.559 113.808 227.559 110.448C227.559 107.088 229.991 105.008 232.359 105.008C234.855 105.008 237.159 106.96 237.159 110.448C237.159 113.968 234.855 115.856 232.359 115.856Z" fill="black"/>
<path d="M243.519 118H246.271V95.6H243.519V118Z" fill="black"/>
<path d="M250.79 102.832V118H253.542V102.832H250.79ZM250.63 100.016H253.702V96.784H250.63V100.016Z" fill="black"/>
<path d="M270.189 102.832H262.413V100.592C262.413 98.608 263.213 97.616 264.813 97.616C266.317 97.616 267.245 98.448 267.245 99.888L267.213 100.464H269.805C269.837 100.272 269.837 100.048 269.837 99.76C269.837 97.104 268.141 95.28 264.813 95.28C261.517 95.28 259.661 97.36 259.661 100.528V102.832H256.269V105.168H259.661V118H262.413V105.168H267.405V118H270.189V102.832Z" fill="black"/>
<path d="M285.624 112.496C285.016 114.672 283.576 115.888 281.24 115.888C278.552 115.888 276.44 114.128 276.408 110.832H287.384C287.512 110.256 287.576 109.648 287.576 108.976C287.576 106.992 286.968 105.424 285.72 104.272C284.472 103.088 282.84 102.512 280.824 102.512C276.504 102.512 273.592 105.968 273.592 110.32C273.592 115.216 276.792 118.32 281.24 118.32C284.728 118.32 287 116.496 288.024 113.424L285.624 112.496ZM276.408 108.848C276.696 106.448 278.456 104.944 280.792 104.944C283.096 104.944 284.856 106.224 284.856 108.4L284.824 108.848H276.408Z" fill="black"/>
<path d="M290.551 110.512C290.551 115.152 293.463 118.32 297.655 118.32C299.959 118.32 301.879 117.104 302.903 115.28V118H305.559V95.6H302.775V105.584C301.783 103.696 299.927 102.512 297.591 102.512C293.463 102.512 290.551 105.808 290.551 110.512ZM302.903 110.48C302.903 113.872 300.471 115.856 298.103 115.856C295.607 115.856 293.303 113.904 293.303 110.48C293.303 107.088 295.639 105.008 298.103 105.008C300.471 105.008 302.903 107.12 302.903 110.48Z" fill="black"/>
<path d="M318.146 102.832V124.336H320.898V115.632C321.922 117.328 323.842 118.32 326.018 118.32C330.146 118.32 333.122 115.12 333.122 110.416C333.122 105.712 330.306 102.512 326.21 102.512C323.938 102.512 321.762 103.856 320.77 105.68V102.832H318.146ZM325.57 115.856C323.202 115.856 320.77 113.808 320.77 110.448C320.77 107.088 323.202 105.008 325.57 105.008C328.066 105.008 330.37 106.96 330.37 110.448C330.37 113.968 328.066 115.856 325.57 115.856Z" fill="black"/>
<path d="M336.73 102.832V118H339.482V108.336C339.482 106.288 340.602 104.944 342.298 104.944C343.802 104.944 344.73 105.808 344.73 107.216C344.73 107.504 344.698 107.888 344.634 108.336H347.322C347.45 107.824 347.514 107.248 347.514 106.64C347.514 104.336 345.818 102.512 343.354 102.512C341.53 102.512 340.154 103.408 339.482 105.04V102.832H336.73Z" fill="black"/>
<path d="M351.064 102.832V118H353.816V102.832H351.064ZM350.904 100.016H353.976V96.784H350.904V100.016Z" fill="black"/>
<path d="M365.311 115.888C362.623 115.888 360.095 113.712 360.095 110.32C360.095 106.832 362.655 104.944 364.991 104.944C367.455 104.944 369.055 106.352 369.535 108.752L372.063 107.984C371.327 104.528 368.703 102.512 365.023 102.512C360.895 102.512 357.407 105.776 357.407 110.32C357.407 115.12 360.607 118.32 365.375 118.32C369.183 118.32 371.935 116.112 372.799 112.272L370.335 111.344C369.727 114.192 368.255 115.888 365.311 115.888Z" fill="black"/>
<path d="M376.169 102.832V118H378.921V102.832H376.169ZM376.009 100.016H379.081V96.784H376.009V100.016Z" fill="black"/>
<path d="M386.192 118V109.68C386.192 106.768 387.984 104.944 390.288 104.944C392.464 104.944 393.744 106.32 393.744 108.976V118H396.528V108.144C396.528 104.592 394.416 102.512 391.184 102.512C389.04 102.512 387.248 103.536 386.192 105.296V102.832H383.44V118H386.192Z" fill="black"/>
<path d="M400.991 119.984C401.983 123.088 404.287 124.656 407.967 124.656C410.271 124.656 412.063 123.92 413.311 122.448C414.559 120.976 415.199 119.056 415.199 116.656V102.832H412.415V105.104C411.295 103.376 409.599 102.512 407.295 102.512C403.295 102.512 400.127 105.744 400.127 110.48C400.127 115.024 403.295 118 407.135 118C409.663 118 411.519 116.848 412.415 115.152V116.848C412.415 120.272 410.911 122.224 407.967 122.224C405.599 122.224 404.095 121.136 403.487 118.928L400.991 119.984ZM412.543 110.288C412.543 113.392 410.495 115.568 407.743 115.568C404.927 115.568 402.879 113.616 402.879 110.512C402.879 107.056 404.927 104.944 407.743 104.944C410.495 104.944 412.543 107.216 412.543 110.288Z" fill="black"/>
<path d="M87.3105 146.416C87.3105 150.896 90.4145 154.32 94.9905 154.32C99.5345 154.32 102.703 150.896 102.703 146.416C102.703 141.936 99.5985 138.512 94.9905 138.512C90.4145 138.512 87.3105 141.936 87.3105 146.416ZM99.8545 146.416C99.8545 149.616 97.8385 151.824 94.9905 151.824C92.1745 151.824 90.1265 149.584 90.1265 146.416C90.1265 143.248 92.1745 141.008 94.9905 141.008C96.4305 141.008 97.5825 141.52 98.4785 142.544C99.4065 143.536 99.8545 144.848 99.8545 146.416Z" fill="black"/>
<path d="M109.012 154V145.68C109.012 142.768 110.804 140.944 113.108 140.944C115.284 140.944 116.564 142.32 116.564 144.976V154H119.348V144.144C119.348 140.592 117.236 138.512 114.004 138.512C111.86 138.512 110.068 139.536 109.012 141.296V138.832H106.26V154H109.012Z" fill="black"/>
<path d="M142.231 154.32C146.295 154.32 148.919 152.464 150.679 148.976V154H153.207V142.416H139.479V145.168H149.623C149.239 147.984 146.839 151.536 142.583 151.536C137.623 151.536 134.327 147.952 134.327 142.8C134.327 137.584 137.975 134.064 142.423 134.064C146.615 134.064 149.175 136.016 150.135 139.952L153.015 138.992C151.863 134.256 148.183 131.28 142.391 131.28C136.151 131.152 131.159 136.368 131.255 142.8C131.159 149.424 135.991 154.416 142.231 154.32Z" fill="black"/>
<path d="M167.817 138.832V146.896C167.817 149.936 165.993 151.888 163.593 151.888C161.385 151.888 160.169 150.576 160.169 147.92V138.832H157.417V148.56C157.417 152.304 159.529 154.32 162.857 154.32C165.065 154.32 166.793 153.2 167.817 151.44V154H170.601V138.832H167.817Z" fill="black"/>
<path d="M175.095 138.832V154H177.847V144.72C177.847 142.256 179.127 141.008 180.791 141.008C182.455 141.008 183.575 142.096 183.575 144.176V154H186.359V144.56C186.359 142.224 187.671 141.008 189.335 141.008C190.967 141.008 192.119 142.16 192.119 144.048V154H194.871V143.472C194.871 140.272 193.079 138.512 190.263 138.512C188.343 138.512 186.615 139.6 185.815 141.52C185.303 139.568 183.767 138.512 181.943 138.512C179.927 138.512 178.583 139.472 177.847 140.976V138.832H175.095Z" fill="black"/>
<path d="M199.397 138.832V154H202.149V144.336C202.149 142.288 203.269 140.944 204.965 140.944C206.469 140.944 207.397 141.808 207.397 143.216C207.397 143.504 207.365 143.888 207.301 144.336H209.989C210.117 143.824 210.181 143.248 210.181 142.64C210.181 140.336 208.485 138.512 206.021 138.512C204.197 138.512 202.821 139.408 202.149 141.04V138.832H199.397Z" fill="black"/>
<path d="M212.522 146.416C212.522 150.896 215.626 154.32 220.202 154.32C224.746 154.32 227.914 150.896 227.914 146.416C227.914 141.936 224.81 138.512 220.202 138.512C215.626 138.512 212.522 141.936 212.522 146.416ZM225.066 146.416C225.066 149.616 223.05 151.824 220.202 151.824C217.386 151.824 215.338 149.584 215.338 146.416C215.338 143.248 217.386 141.008 220.202 141.008C221.642 141.008 222.794 141.52 223.69 142.544C224.618 143.536 225.066 144.848 225.066 146.416Z" fill="black"/>
<path d="M230.767 149.68C230.767 151.088 231.247 152.208 232.207 153.072C233.199 153.904 234.383 154.32 235.791 154.32C238.223 154.32 240.239 153.232 241.007 151.6V154H243.663V144.496C243.663 140.752 241.327 138.512 237.199 138.512C233.647 138.512 231.279 140.368 230.671 143.28L233.167 143.984C233.551 142.032 235.023 140.848 237.199 140.848C239.471 140.848 241.007 142.064 241.007 144.272V145.84L239.631 145.456C238.607 145.136 237.519 144.976 236.399 144.976C233.103 144.976 230.767 146.576 230.767 149.68ZM241.007 148.336C241.007 150.544 239.247 151.888 236.719 151.888C234.703 151.888 233.615 150.928 233.615 149.52C233.615 147.952 234.831 147.12 236.783 147.12C237.583 147.12 238.543 147.28 239.599 147.6L241.007 148.016V148.336Z" fill="black"/>
<path d="M247.252 146.512C247.252 151.152 250.164 154.32 254.356 154.32C256.66 154.32 258.58 153.104 259.604 151.28V154H262.26V131.6H259.476V141.584C258.484 139.696 256.628 138.512 254.292 138.512C250.164 138.512 247.252 141.808 247.252 146.512ZM259.604 146.48C259.604 149.872 257.172 151.856 254.804 151.856C252.308 151.856 250.004 149.904 250.004 146.48C250.004 143.088 252.34 141.008 254.804 141.008C257.172 141.008 259.604 143.12 259.604 146.48Z" fill="black"/>
<path d="M266.732 143.088H270.06V139.728H266.732V143.088ZM266.732 154H270.06V150.64H266.732V154Z" fill="black"/>
<path d="M282.65 138.832V160.336H285.402V151.632C286.426 153.328 288.346 154.32 290.522 154.32C294.65 154.32 297.626 151.12 297.626 146.416C297.626 141.712 294.81 138.512 290.714 138.512C288.442 138.512 286.266 139.856 285.274 141.68V138.832H282.65ZM290.074 151.856C287.706 151.856 285.274 149.808 285.274 146.448C285.274 143.088 287.706 141.008 290.074 141.008C292.57 141.008 294.874 142.96 294.874 146.448C294.874 149.968 292.57 151.856 290.074 151.856Z" fill="black"/>
<path d="M300.53 149.68C300.53 151.088 301.01 152.208 301.97 153.072C302.962 153.904 304.146 154.32 305.554 154.32C307.986 154.32 310.002 153.232 310.77 151.6V154H313.426V144.496C313.426 140.752 311.09 138.512 306.962 138.512C303.41 138.512 301.042 140.368 300.434 143.28L302.93 143.984C303.314 142.032 304.786 140.848 306.962 140.848C309.234 140.848 310.77 142.064 310.77 144.272V145.84L309.394 145.456C308.37 145.136 307.282 144.976 306.162 144.976C302.866 144.976 300.53 146.576 300.53 149.68ZM310.77 148.336C310.77 150.544 309.01 151.888 306.482 151.888C304.466 151.888 303.378 150.928 303.378 149.52C303.378 147.952 304.594 147.12 306.546 147.12C307.346 147.12 308.306 147.28 309.362 147.6L310.77 148.016V148.336Z" fill="black"/>
<path d="M327.205 138.832L322.693 148.816L318.437 138.832H315.429L321.221 152.048L317.477 160.336H320.421L330.149 138.832H327.205Z" fill="black"/>
<path d="M341.047 154H343.799V131.6H341.047V154Z" fill="black"/>
<path d="M359.423 148.496C358.815 150.672 357.375 151.888 355.039 151.888C352.351 151.888 350.239 150.128 350.207 146.832H361.183C361.311 146.256 361.375 145.648 361.375 144.976C361.375 142.992 360.767 141.424 359.519 140.272C358.271 139.088 356.639 138.512 354.623 138.512C350.303 138.512 347.391 141.968 347.391 146.32C347.391 151.216 350.591 154.32 355.039 154.32C358.527 154.32 360.799 152.496 361.823 149.424L359.423 148.496ZM350.207 144.848C350.495 142.448 352.255 140.944 354.591 140.944C356.895 140.944 358.655 142.224 358.655 144.4L358.623 144.848H350.207Z" fill="black"/>
<path d="M364.189 150.032C365.085 152.624 367.421 154.32 370.845 154.32C374.269 154.32 376.925 152.336 376.925 149.52C376.925 146.992 375.165 145.488 371.613 145.008C368.637 144.592 367.549 144.016 367.549 142.704C367.549 141.52 368.829 140.752 370.493 140.752C372.125 140.752 373.309 141.52 373.821 143.056L375.965 141.872C375.037 139.728 373.341 138.512 370.493 138.512C368.925 138.512 367.613 138.896 366.557 139.696C365.533 140.464 365.021 141.456 365.021 142.672C365.021 145.072 366.749 146.512 370.237 147.024C373.309 147.44 374.237 148.24 374.237 149.68C374.237 150.992 372.989 151.888 370.973 151.888C368.669 151.888 367.325 150.992 366.461 148.848L364.189 150.032Z" fill="black"/>
<path d="M379.523 150.032C380.419 152.624 382.755 154.32 386.179 154.32C389.603 154.32 392.259 152.336 392.259 149.52C392.259 146.992 390.499 145.488 386.947 145.008C383.971 144.592 382.883 144.016 382.883 142.704C382.883 141.52 384.163 140.752 385.827 140.752C387.459 140.752 388.643 141.52 389.155 143.056L391.299 141.872C390.371 139.728 388.675 138.512 385.827 138.512C384.259 138.512 382.947 138.896 381.891 139.696C380.867 140.464 380.355 141.456 380.355 142.672C380.355 145.072 382.083 146.512 385.571 147.024C388.643 147.44 389.571 148.24 389.571 149.68C389.571 150.992 388.323 151.888 386.307 151.888C384.003 151.888 382.659 150.992 381.795 148.848L379.523 150.032Z" fill="black"/>
<path d="M403.325 149.68C403.325 151.088 403.805 152.208 404.765 153.072C405.757 153.904 406.941 154.32 408.349 154.32C410.781 154.32 412.797 153.232 413.565 151.6V154H416.221V144.496C416.221 140.752 413.885 138.512 409.757 138.512C406.205 138.512 403.837 140.368 403.229 143.28L405.725 143.984C406.109 142.032 407.581 140.848 409.757 140.848C412.029 140.848 413.565 142.064 413.565 144.272V145.84L412.189 145.456C411.165 145.136 410.077 144.976 408.957 144.976C405.661 144.976 403.325 146.576 403.325 149.68ZM413.565 148.336C413.565 150.544 411.805 151.888 409.277 151.888C407.261 151.888 406.173 150.928 406.173 149.52C406.173 147.952 407.389 147.12 409.341 147.12C410.141 147.12 411.101 147.28 412.157 147.6L413.565 148.016V148.336Z" fill="black"/>
<path d="M419.462 150.032C420.358 152.624 422.694 154.32 426.118 154.32C429.542 154.32 432.198 152.336 432.198 149.52C432.198 146.992 430.438 145.488 426.886 145.008C423.91 144.592 422.822 144.016 422.822 142.704C422.822 141.52 424.102 140.752 425.766 140.752C427.398 140.752 428.582 141.52 429.094 143.056L431.238 141.872C430.31 139.728 428.614 138.512 425.766 138.512C424.198 138.512 422.886 138.896 421.83 139.696C420.806 140.464 420.294 141.456 420.294 142.672C420.294 145.072 422.022 146.512 425.51 147.024C428.582 147.44 429.51 148.24 429.51 149.68C429.51 150.992 428.262 151.888 426.246 151.888C423.942 151.888 422.598 150.992 421.734 148.848L419.462 150.032Z" fill="black"/>
<path d="M168.962 174.832L164.45 184.816L160.194 174.832H157.186L162.978 188.048L159.234 196.336H162.178L171.906 174.832H168.962Z" fill="black"/>
<path d="M173.417 182.416C173.417 186.896 176.521 190.32 181.097 190.32C185.641 190.32 188.809 186.896 188.809 182.416C188.809 177.936 185.705 174.512 181.097 174.512C176.521 174.512 173.417 177.936 173.417 182.416ZM185.961 182.416C185.961 185.616 183.945 187.824 181.097 187.824C178.281 187.824 176.233 185.584 176.233 182.416C176.233 179.248 178.281 177.008 181.097 177.008C182.537 177.008 183.689 177.52 184.585 178.544C185.513 179.536 185.961 180.848 185.961 182.416Z" fill="black"/>
<path d="M202.767 174.832V182.896C202.767 185.936 200.943 187.888 198.543 187.888C196.335 187.888 195.119 186.576 195.119 183.92V174.832H192.367V184.56C192.367 188.304 194.479 190.32 197.807 190.32C200.015 190.32 201.743 189.2 202.767 187.44V190H205.551V174.832H202.767Z" fill="black"/>
<path d="M229.232 184.496C228.624 186.672 227.184 187.888 224.848 187.888C222.16 187.888 220.048 186.128 220.016 182.832H230.992C231.12 182.256 231.184 181.648 231.184 180.976C231.184 178.992 230.576 177.424 229.328 176.272C228.08 175.088 226.448 174.512 224.432 174.512C220.112 174.512 217.2 177.968 217.2 182.32C217.2 187.216 220.4 190.32 224.848 190.32C228.336 190.32 230.608 188.496 231.632 185.424L229.232 184.496ZM220.016 180.848C220.304 178.448 222.064 176.944 224.4 176.944C226.704 176.944 228.464 178.224 228.464 180.4L228.432 180.848H220.016Z" fill="black"/>
<path d="M234.508 185.68C234.508 187.088 234.988 188.208 235.948 189.072C236.94 189.904 238.124 190.32 239.532 190.32C241.964 190.32 243.98 189.232 244.748 187.6V190H247.404V180.496C247.404 176.752 245.068 174.512 240.94 174.512C237.388 174.512 235.02 176.368 234.412 179.28L236.908 179.984C237.292 178.032 238.764 176.848 240.94 176.848C243.212 176.848 244.748 178.064 244.748 180.272V181.84L243.372 181.456C242.348 181.136 241.26 180.976 240.14 180.976C236.844 180.976 234.508 182.576 234.508 185.68ZM244.748 184.336C244.748 186.544 242.988 187.888 240.46 187.888C238.444 187.888 237.356 186.928 237.356 185.52C237.356 183.952 238.572 183.12 240.524 183.12C241.324 183.12 242.284 183.28 243.34 183.6L244.748 184.016V184.336Z" fill="black"/>
<path d="M251.92 174.832V190H254.672V180.336C254.672 178.288 255.792 176.944 257.488 176.944C258.992 176.944 259.92 177.808 259.92 179.216C259.92 179.504 259.888 179.888 259.824 180.336H262.512C262.64 179.824 262.704 179.248 262.704 178.64C262.704 176.336 261.008 174.512 258.544 174.512C256.72 174.512 255.344 175.408 254.672 177.04V174.832H251.92Z" fill="black"/>
<path d="M269.006 190V181.68C269.006 178.768 270.798 176.944 273.102 176.944C275.278 176.944 276.558 178.32 276.558 180.976V190H279.342V180.144C279.342 176.592 277.23 174.512 273.998 174.512C271.854 174.512 270.062 175.536 269.006 177.296V174.832H266.254V190H269.006Z" fill="black"/>
<path d="M291.953 174.832V190H294.705V180.72C294.705 178.256 295.985 177.008 297.649 177.008C299.313 177.008 300.433 178.096 300.433 180.176V190H303.217V180.56C303.217 178.224 304.529 177.008 306.193 177.008C307.825 177.008 308.977 178.16 308.977 180.048V190H311.729V179.472C311.729 176.272 309.937 174.512 307.121 174.512C305.201 174.512 303.473 175.6 302.673 177.52C302.161 175.568 300.625 174.512 298.801 174.512C296.785 174.512 295.441 175.472 294.705 176.976V174.832H291.953Z" fill="black"/>
<path d="M315.327 182.416C315.327 186.896 318.431 190.32 323.007 190.32C327.551 190.32 330.719 186.896 330.719 182.416C330.719 177.936 327.615 174.512 323.007 174.512C318.431 174.512 315.327 177.936 315.327 182.416ZM327.871 182.416C327.871 185.616 325.855 187.824 323.007 187.824C320.191 187.824 318.143 185.584 318.143 182.416C318.143 179.248 320.191 177.008 323.007 177.008C324.447 177.008 325.599 177.52 326.495 178.544C327.423 179.536 327.871 180.848 327.871 182.416Z" fill="black"/>
<path d="M334.277 174.832V190H337.029V180.336C337.029 178.288 338.149 176.944 339.845 176.944C341.349 176.944 342.277 177.808 342.277 179.216C342.277 179.504 342.245 179.888 342.181 180.336H344.869C344.997 179.824 345.061 179.248 345.061 178.64C345.061 176.336 343.365 174.512 340.901 174.512C339.077 174.512 337.701 175.408 337.029 177.04V174.832H334.277Z" fill="black"/>
<path d="M359.433 184.496C358.825 186.672 357.385 187.888 355.049 187.888C352.361 187.888 350.249 186.128 350.217 182.832H361.193C361.321 182.256 361.385 181.648 361.385 180.976C361.385 178.992 360.777 177.424 359.529 176.272C358.281 175.088 356.649 174.512 354.633 174.512C350.313 174.512 347.401 177.968 347.401 182.32C347.401 187.216 350.601 190.32 355.049 190.32C358.537 190.32 360.809 188.496 361.833 185.424L359.433 184.496ZM350.217 180.848C350.505 178.448 352.265 176.944 354.601 176.944C356.905 176.944 358.665 178.224 358.665 180.4L358.633 180.848H350.217Z" fill="black"/>
<path d="M267.874 33.8504C265.496 33.8504 263.172 36.0068 262.905 39.1225V34.1073H259.49V49.2294H262.946V41.9097C262.946 39.8593 264.397 36.9669 267.874 36.9669V33.8504Z" fill="black"/>
<path d="M304.127 46.8081V36.4476H306.129C308.799 36.4476 310.968 38.1186 310.968 41.5443C310.968 44.9699 308.799 46.8081 306.129 46.8081H304.127ZM300.707 49.2311H306.547C310.134 49.2311 314.555 46.8916 314.555 41.5443C314.555 36.2805 310.134 34.1081 306.547 34.1081H300.707V49.2311Z" fill="black"/>
<path d="M287.619 41.712C287.619 38.9548 289.037 36.6989 291.373 36.6989C293.625 36.6989 294.877 38.9548 294.877 41.712C294.877 44.4692 293.625 46.7252 291.373 46.7252C289.037 46.7252 287.619 44.4692 287.619 41.712ZM284.115 41.8791C284.115 46.391 286.451 49.5659 290.122 49.5659C292.791 49.5659 294.376 47.8113 295.21 44.9706V49.2317H298.63V34.1088H295.21V38.1193C294.46 35.4456 292.875 33.8581 290.372 33.8581C286.618 33.8581 284.115 37.2837 284.115 41.8791Z" fill="black"/>
<path d="M206.23 49.5656C201.975 49.5656 199.473 46.1399 199.473 41.8788C199.473 37.4505 202.226 33.8577 207.481 33.8577C212.904 33.8577 214.739 37.534 214.822 39.6228H210.901C210.818 38.4531 209.817 36.6985 207.398 36.6985C204.812 36.6985 203.143 38.9544 203.143 41.7117C203.143 44.4689 204.812 46.7248 207.398 46.7248C209.734 46.7248 210.735 44.8866 211.152 43.0485H207.398V41.5445H215.275V49.2314H211.819V44.3853C211.569 46.1399 210.484 49.5656 206.23 49.5656Z" fill="black"/>
<path d="M222.281 49.5653C219.028 49.5653 217.025 47.3929 217.025 43.0482V34.1081H220.529V43.0482C220.529 45.3041 221.614 46.3903 223.449 46.3903C227.036 46.3903 228.371 41.962 228.371 38.8706V34.1081H231.874V49.2311H228.454V43.6331C227.787 46.7245 225.952 49.5653 222.281 49.5653Z" fill="black"/>
<path d="M252.81 33.8498C249.821 33.8498 247.936 36.7419 247.32 39.4161C247.215 35.8324 245.455 33.8498 242.64 33.8498C240.208 33.8498 237.951 36.0224 237.365 39.4594V34.107H233.949V49.2304H237.409V43.8087C237.409 42.4647 237.968 36.9488 241.45 36.9488C243.706 36.9488 243.941 38.9868 243.941 41.7727V49.2304H247.399V43.8087C247.399 42.4647 247.982 36.9488 251.464 36.9488C253.718 36.9488 253.951 38.9868 253.951 41.7727V49.2304H257.413V40.285C257.429 35.9935 255.917 33.8498 252.81 33.8498Z" fill="black"/>
<path d="M275.296 33.8498C270.818 33.8498 267.783 37.3668 267.783 41.7077C267.783 46.4907 270.669 49.5655 275.296 49.5655C279.774 49.5655 282.863 46.0486 282.863 41.7077C282.863 36.9246 279.921 33.8498 275.296 33.8498ZM275.296 46.8886C272.689 46.8886 271 44.678 271 41.7077C271 38.7374 272.695 36.5267 275.296 36.5267C277.897 36.5267 279.524 38.7374 279.524 41.7077C279.524 44.678 277.895 46.8886 275.296 46.8886Z" fill="black"/>
</g>
<defs>
<clipPath id="clip0_1511_25161">
<rect width="515" height="290" fill="white"/>
</clipPath>
</defs>
</svg>
