<svg width="515" height="290" viewBox="0 0 515 290" fill="none" xmlns="http://www.w3.org/2000/svg">
<g clip-path="url(#clip0_1511_25019)">
<rect width="515" height="290" fill="#23A094"/>
<path d="M280.466 -68.2618L280.47 -68.2635C308.492 -80.0062 331.131 -84.6647 348.744 -81.9211C366.241 -79.1958 378.921 -69.1439 387.082 -51.0225C392.881 -38.1436 393.792 -28.317 394.746 -18.0209C394.775 -17.7041 394.805 -17.3869 394.834 -17.0691C395.829 -6.37637 397.033 4.86951 403.972 20.2793C413.678 41.8319 427.246 52.5259 441.596 63.8353C442.764 64.7558 443.937 65.6804 445.113 66.6153C460.709 79.0066 477.121 93.3255 490.991 124.123C502.339 149.323 501.999 172.791 493.006 192.593C484.003 212.42 466.265 228.7 442.596 239.359C428.182 245.851 412.268 248.327 395.177 250.987C394.088 251.156 392.994 251.326 391.895 251.498C373.608 254.363 354.111 257.727 334.153 266.714C313.263 276.122 300.346 287.658 287.028 299.554C286.445 300.075 285.862 300.595 285.277 301.117C271.34 313.547 256.512 326.34 231.175 337.751C215.189 344.95 200.014 347.848 186.12 344.489C172.258 341.137 159.452 331.504 148.287 313.183C132.319 286.466 115.183 268.22 88.573 266.61C71.3091 265.565 56.3678 264.063 44.2609 259.558C32.2265 255.079 23.0128 247.64 17.1617 234.647C11.5256 222.132 10.6108 210.218 13.5309 199.325C16.4545 188.419 23.2482 178.441 33.1837 169.866C43.1342 161.279 50.2139 151.606 53.7567 139.856C57.2972 128.113 57.2709 114.411 53.2094 97.8162C47.7416 75.4757 51.6859 53.1464 66.4429 32.1126C81.2252 11.0428 106.895 -8.77354 144.94 -25.9065C174.223 -39.0939 195.515 -44.4736 215.767 -49.1538C217.464 -49.5458 219.153 -49.933 220.84 -50.3195C239.308 -54.5518 257.437 -58.7064 280.466 -68.2618Z" fill="#F1F333" stroke="black" stroke-width="2.41784"/>
<path d="M117.993 113H104.194C104.194 116.74 103.88 120.701 103.251 124.818L106.143 125.478C106.898 123.844 108.941 122.555 111.109 122.555C114.473 122.555 116.264 124.63 116.264 127.616C116.264 130.602 114.315 132.771 110.921 132.771C107.903 132.771 106.112 131.073 105.64 128.087L103 128.842C103.283 130.916 104.132 132.519 105.609 133.651C107.086 134.751 108.846 135.317 110.921 135.317C115.887 135.317 118.999 131.985 118.999 127.302C118.999 122.775 115.793 120.104 111.738 120.104C109.318 120.104 107.243 121.141 105.955 122.618C106.489 119.946 106.74 117.589 106.74 115.546H117.993V113Z" fill="black"/>
<path d="M131.66 120.104H128.989L133.42 135.002H136.815L140.115 123.561L143.416 135.002H146.779L151.211 120.104H148.539L145.05 132.362L141.687 120.104H138.512L135.149 132.362L131.66 120.104Z" fill="black"/>
<path d="M153.31 130.759C153.31 132.142 153.781 133.242 154.724 134.091C155.699 134.908 156.862 135.317 158.245 135.317C160.634 135.317 162.614 134.248 163.368 132.645V135.002H165.977V125.667C165.977 121.99 163.683 119.789 159.628 119.789C156.139 119.789 153.813 121.612 153.216 124.473L155.667 125.164C156.045 123.247 157.49 122.084 159.628 122.084C161.859 122.084 163.368 123.278 163.368 125.447V126.987L162.017 126.61C161.011 126.296 159.942 126.139 158.842 126.139C155.605 126.139 153.31 127.71 153.31 130.759ZM163.368 129.439C163.368 131.608 161.639 132.928 159.156 132.928C157.176 132.928 156.107 131.985 156.107 130.602C156.107 129.062 157.302 128.244 159.219 128.244C160.005 128.244 160.948 128.402 161.985 128.716L163.368 129.125V129.439Z" fill="black"/>
<path d="M179.512 120.104L175.08 129.91L170.9 120.104H167.945L173.634 133.085L169.957 141.226H172.849L182.404 120.104H179.512Z" fill="black"/>
<path d="M183.823 131.105C184.703 133.651 186.998 135.317 190.361 135.317C193.724 135.317 196.333 133.368 196.333 130.602C196.333 128.119 194.604 126.641 191.115 126.17C188.192 125.761 187.124 125.196 187.124 123.907C187.124 122.744 188.381 121.99 190.015 121.99C191.618 121.99 192.781 122.744 193.284 124.253L195.39 123.09C194.479 120.984 192.813 119.789 190.015 119.789C188.475 119.789 187.186 120.166 186.149 120.952C185.143 121.707 184.641 122.681 184.641 123.875C184.641 126.233 186.338 127.647 189.764 128.15C192.781 128.559 193.693 129.345 193.693 130.759C193.693 132.048 192.467 132.928 190.487 132.928C188.224 132.928 186.904 132.048 186.055 129.942L183.823 131.105Z" fill="black"/>
<path d="M209.465 130.57C209.465 133.556 211.194 135.317 214.337 135.317C216.883 135.317 218.581 133.839 218.989 131.168L216.475 130.602C216.223 132.236 215.5 132.928 214.243 132.928C213.08 132.928 212.2 132.111 212.2 130.696V122.398H217.543V120.104H212.2V115.483H209.465V120.104H206.511V122.398H209.465V130.57Z" fill="black"/>
<path d="M220.632 127.553C220.632 131.953 223.681 135.317 228.175 135.317C232.639 135.317 235.751 131.953 235.751 127.553C235.751 123.153 232.702 119.789 228.175 119.789C223.681 119.789 220.632 123.153 220.632 127.553ZM232.953 127.553C232.953 130.696 230.973 132.865 228.175 132.865C225.409 132.865 223.398 130.665 223.398 127.553C223.398 124.441 225.409 122.241 228.175 122.241C229.59 122.241 230.721 122.744 231.602 123.75C232.513 124.724 232.953 126.013 232.953 127.553Z" fill="black"/>
<path d="M246.273 127.647C246.273 132.205 249.134 135.317 253.251 135.317C255.514 135.317 257.4 134.122 258.406 132.331V135.002H261.015V113H258.28V122.807C257.306 120.952 255.483 119.789 253.188 119.789C249.134 119.789 246.273 123.027 246.273 127.647ZM258.406 127.616C258.406 130.948 256.017 132.896 253.691 132.896C251.24 132.896 248.977 130.979 248.977 127.616C248.977 124.284 251.271 122.241 253.691 122.241C256.017 122.241 258.406 124.315 258.406 127.616Z" fill="black"/>
<path d="M264.527 127.553C264.527 131.953 267.576 135.317 272.071 135.317C276.534 135.317 279.646 131.953 279.646 127.553C279.646 123.153 276.597 119.789 272.071 119.789C267.576 119.789 264.527 123.153 264.527 127.553ZM276.849 127.553C276.849 130.696 274.868 132.865 272.071 132.865C269.305 132.865 267.293 130.665 267.293 127.553C267.293 124.441 269.305 122.241 272.071 122.241C273.485 122.241 274.617 122.744 275.497 123.75C276.408 124.724 276.849 126.013 276.849 127.553Z" fill="black"/>
<path d="M293.355 120.104V128.024C293.355 131.01 291.564 132.928 289.206 132.928C287.038 132.928 285.843 131.639 285.843 129.03V120.104H283.14V129.659C283.14 133.336 285.215 135.317 288.483 135.317C290.652 135.317 292.35 134.217 293.355 132.488V135.002H296.09V120.104H293.355Z" fill="black"/>
<path d="M300.504 113V135.002H303.081V132.551C304.118 134.279 306.036 135.317 308.173 135.317C312.291 135.317 315.214 132.268 315.214 127.647C315.214 123.027 312.448 119.789 308.487 119.789C306.256 119.789 304.213 121.047 303.207 122.901V113H300.504ZM307.796 132.896C305.376 132.896 303.081 130.916 303.081 127.616C303.081 124.315 305.407 122.241 307.796 122.241C310.342 122.241 312.511 124.284 312.511 127.616C312.511 130.979 310.342 132.896 307.796 132.896Z" fill="black"/>
<path d="M318.758 135.002H321.461V113H318.758V135.002Z" fill="black"/>
<path d="M336.807 129.596C336.209 131.733 334.795 132.928 332.5 132.928C329.86 132.928 327.786 131.199 327.754 127.962H338.535C338.661 127.396 338.724 126.799 338.724 126.139C338.724 124.19 338.127 122.65 336.901 121.518C335.675 120.355 334.072 119.789 332.092 119.789C327.849 119.789 324.988 123.184 324.988 127.459C324.988 132.268 328.131 135.317 332.5 135.317C335.927 135.317 338.158 133.525 339.164 130.508L336.807 129.596ZM327.754 126.013C328.037 123.655 329.766 122.178 332.06 122.178C334.324 122.178 336.052 123.435 336.052 125.573L336.021 126.013H327.754Z" fill="black"/>
<path d="M360.21 120.104L355.778 129.91L351.598 120.104H348.643L354.332 133.085L350.655 141.226H353.547L363.102 120.104H360.21Z" fill="black"/>
<path d="M364.586 127.553C364.586 131.953 367.635 135.317 372.13 135.317C376.593 135.317 379.705 131.953 379.705 127.553C379.705 123.153 376.656 119.789 372.13 119.789C367.635 119.789 364.586 123.153 364.586 127.553ZM376.908 127.553C376.908 130.696 374.927 132.865 372.13 132.865C369.364 132.865 367.352 130.665 367.352 127.553C367.352 124.441 369.364 122.241 372.13 122.241C373.544 122.241 374.676 122.744 375.556 123.75C376.468 124.724 376.908 126.013 376.908 127.553Z" fill="black"/>
<path d="M393.415 120.104V128.024C393.415 131.01 391.623 132.928 389.266 132.928C387.097 132.928 385.902 131.639 385.902 129.03V120.104H383.199V129.659C383.199 133.336 385.274 135.317 388.543 135.317C390.711 135.317 392.409 134.217 393.415 132.488V135.002H396.149V120.104H393.415Z" fill="black"/>
<path d="M400.563 120.104V135.002H403.266V125.51C403.266 123.498 404.366 122.178 406.032 122.178C407.509 122.178 408.421 123.027 408.421 124.41C408.421 124.693 408.389 125.07 408.327 125.51H410.967C411.093 125.007 411.155 124.441 411.155 123.844C411.155 121.581 409.49 119.789 407.069 119.789C405.278 119.789 403.926 120.669 403.266 122.272V120.104H400.563Z" fill="black"/>
<path d="M134.587 156.104V171.002H137.29V161.887C137.29 159.467 138.547 158.241 140.182 158.241C141.816 158.241 142.916 159.31 142.916 161.353V171.002H145.651V161.73C145.651 159.435 146.94 158.241 148.574 158.241C150.177 158.241 151.309 159.373 151.309 161.227V171.002H154.012V160.661C154.012 157.518 152.251 155.789 149.485 155.789C147.6 155.789 145.902 156.858 145.116 158.744C144.614 156.827 143.105 155.789 141.313 155.789C139.333 155.789 138.013 156.732 137.29 158.21V156.104H134.587Z" fill="black"/>
<path d="M169.365 165.596C168.768 167.733 167.353 168.928 165.059 168.928C162.418 168.928 160.344 167.199 160.312 163.962H171.093C171.219 163.396 171.282 162.799 171.282 162.139C171.282 160.19 170.685 158.65 169.459 157.518C168.233 156.355 166.63 155.789 164.65 155.789C160.407 155.789 157.546 159.184 157.546 163.459C157.546 168.268 160.689 171.317 165.059 171.317C168.485 171.317 170.716 169.525 171.722 166.508L169.365 165.596ZM160.312 162.013C160.595 159.655 162.324 158.178 164.618 158.178C166.882 158.178 168.61 159.435 168.61 161.573L168.579 162.013H160.312Z" fill="black"/>
<path d="M175.116 156.104V171.002H177.819V161.887C177.819 159.467 179.076 158.241 180.71 158.241C182.345 158.241 183.445 159.31 183.445 161.353V171.002H186.18V161.73C186.18 159.435 187.468 158.241 189.103 158.241C190.706 158.241 191.837 159.373 191.837 161.227V171.002H194.54V160.661C194.54 157.518 192.78 155.789 190.014 155.789C188.128 155.789 186.431 156.858 185.645 158.744C185.142 156.827 183.634 155.789 181.842 155.789C179.862 155.789 178.542 156.732 177.819 158.21V156.104H175.116Z" fill="black"/>
<path d="M198.987 149V171.002H201.564V168.551C202.601 170.279 204.519 171.317 206.656 171.317C210.774 171.317 213.697 168.268 213.697 163.647C213.697 159.027 210.931 155.789 206.97 155.789C204.739 155.789 202.696 157.047 201.69 158.901V149H198.987ZM206.279 168.896C203.859 168.896 201.564 166.916 201.564 163.616C201.564 160.315 203.89 158.241 206.279 158.241C208.825 158.241 210.994 160.284 210.994 163.616C210.994 166.979 208.825 168.896 206.279 168.896Z" fill="black"/>
<path d="M228.147 165.596C227.55 167.733 226.136 168.928 223.841 168.928C221.201 168.928 219.126 167.199 219.095 163.962H229.876C230.002 163.396 230.065 162.799 230.065 162.139C230.065 160.19 229.467 158.65 228.242 157.518C227.016 156.355 225.413 155.789 223.433 155.789C219.189 155.789 216.329 159.184 216.329 163.459C216.329 168.268 219.472 171.317 223.841 171.317C227.267 171.317 229.499 169.525 230.505 166.508L228.147 165.596ZM219.095 162.013C219.378 159.655 221.107 158.178 223.401 158.178C225.664 158.178 227.393 159.435 227.393 161.573L227.362 162.013H219.095Z" fill="black"/>
<path d="M233.898 156.104V171.002H236.601V161.51C236.601 159.498 237.701 158.178 239.367 158.178C240.845 158.178 241.756 159.027 241.756 160.41C241.756 160.693 241.725 161.07 241.662 161.51H244.302C244.428 161.007 244.491 160.441 244.491 159.844C244.491 157.581 242.825 155.789 240.405 155.789C238.613 155.789 237.261 156.669 236.601 158.272V156.104H233.898Z" fill="black"/>
<path d="M246.663 167.105C247.543 169.651 249.838 171.317 253.201 171.317C256.564 171.317 259.173 169.368 259.173 166.602C259.173 164.119 257.444 162.641 253.955 162.17C251.032 161.761 249.964 161.196 249.964 159.907C249.964 158.744 251.221 157.99 252.855 157.99C254.458 157.99 255.621 158.744 256.124 160.253L258.23 159.09C257.319 156.984 255.653 155.789 252.855 155.789C251.315 155.789 250.026 156.166 248.989 156.952C247.983 157.707 247.48 158.681 247.48 159.875C247.48 162.233 249.178 163.647 252.604 164.15C255.621 164.559 256.533 165.345 256.533 166.759C256.533 168.048 255.307 168.928 253.327 168.928C251.064 168.928 249.743 168.048 248.895 165.942L246.663 167.105Z" fill="black"/>
<path d="M265.374 171.002V163.302C265.374 160.221 267.26 158.115 269.649 158.115C271.912 158.115 273.2 159.435 273.2 161.981V171.002H275.935V161.353C275.935 157.958 273.892 155.789 270.623 155.789C268.203 155.789 266.222 157.109 265.374 159.247V149H262.671V171.002H265.374Z" fill="black"/>
<path d="M280.341 156.104V171.002H283.044V156.104H280.341ZM280.184 153.338H283.202V150.163H280.184V153.338Z" fill="black"/>
<path d="M287.483 156.104V177.226H290.187V168.676C291.192 170.342 293.078 171.317 295.216 171.317C299.27 171.317 302.194 168.173 302.194 163.553C302.194 158.932 299.428 155.789 295.404 155.789C293.173 155.789 291.035 157.109 290.061 158.901V156.104H287.483ZM294.776 168.896C292.45 168.896 290.061 166.885 290.061 163.584C290.061 160.284 292.45 158.241 294.776 158.241C297.227 158.241 299.49 160.158 299.49 163.584C299.49 167.042 297.227 168.896 294.776 168.896Z" fill="black"/>
<path d="M312.609 167.105C313.489 169.651 315.783 171.317 319.147 171.317C322.51 171.317 325.119 169.368 325.119 166.602C325.119 164.119 323.39 162.641 319.901 162.17C316.978 161.761 315.909 161.196 315.909 159.907C315.909 158.744 317.166 157.99 318.801 157.99C320.404 157.99 321.567 158.744 322.07 160.253L324.176 159.09C323.264 156.984 321.598 155.789 318.801 155.789C317.261 155.789 315.972 156.166 314.935 156.952C313.929 157.707 313.426 158.681 313.426 159.875C313.426 162.233 315.123 163.647 318.549 164.15C321.567 164.559 322.478 165.345 322.478 166.759C322.478 168.048 321.253 168.928 319.272 168.928C317.009 168.928 315.689 168.048 314.841 165.942L312.609 167.105Z" fill="black"/>
<path d="M327.986 166.759C327.986 168.142 328.458 169.242 329.401 170.091C330.375 170.908 331.538 171.317 332.921 171.317C335.31 171.317 337.29 170.248 338.044 168.645V171.002H340.653V161.667C340.653 157.99 338.359 155.789 334.304 155.789C330.815 155.789 328.489 157.612 327.892 160.473L330.344 161.164C330.721 159.247 332.167 158.084 334.304 158.084C336.536 158.084 338.044 159.278 338.044 161.447V162.987L336.693 162.61C335.687 162.296 334.618 162.139 333.518 162.139C330.281 162.139 327.986 163.71 327.986 166.759ZM338.044 165.439C338.044 167.608 336.316 168.928 333.832 168.928C331.852 168.928 330.784 167.985 330.784 166.602C330.784 165.062 331.978 164.244 333.895 164.244C334.681 164.244 335.624 164.402 336.661 164.716L338.044 165.125V165.439Z" fill="black"/>
<path d="M345.09 171.002H347.793V149H345.09V171.002Z" fill="black"/>
<path d="M363.139 165.596C362.542 167.733 361.127 168.928 358.833 168.928C356.192 168.928 354.118 167.199 354.086 163.962H364.868C364.993 163.396 365.056 162.799 365.056 162.139C365.056 160.19 364.459 158.65 363.233 157.518C362.007 156.355 360.404 155.789 358.424 155.789C354.181 155.789 351.32 159.184 351.32 163.459C351.32 168.268 354.464 171.317 358.833 171.317C362.259 171.317 364.49 169.525 365.496 166.508L363.139 165.596ZM354.086 162.013C354.369 159.655 356.098 158.178 358.393 158.178C360.656 158.178 362.384 159.435 362.384 161.573L362.353 162.013H354.086Z" fill="black"/>
<path d="M367.821 167.105C368.701 169.651 370.996 171.317 374.359 171.317C377.722 171.317 380.331 169.368 380.331 166.602C380.331 164.119 378.602 162.641 375.113 162.17C372.19 161.761 371.121 161.196 371.121 159.907C371.121 158.744 372.379 157.99 374.013 157.99C375.616 157.99 376.779 158.744 377.282 160.253L379.388 159.09C378.476 156.984 376.811 155.789 374.013 155.789C372.473 155.789 371.184 156.166 370.147 156.952C369.141 157.707 368.638 158.681 368.638 159.875C368.638 162.233 370.336 163.647 373.762 164.15C376.779 164.559 377.691 165.345 377.691 166.759C377.691 168.048 376.465 168.928 374.485 168.928C372.221 168.928 370.901 168.048 370.053 165.942L367.821 167.105Z" fill="black"/>
<path d="M268.579 33.8504C266.195 33.8504 263.865 36.0158 263.597 39.1445V34.1083H260.174V49.2938H263.639V41.9434C263.639 39.8844 265.094 36.9799 268.579 36.9799V33.8504Z" fill="black"/>
<path d="M304.929 46.8623V36.4584H306.937C309.613 36.4584 311.788 38.1365 311.788 41.5765C311.788 45.0164 309.613 46.8623 306.937 46.8623H304.929ZM301.5 49.2954H307.355C310.951 49.2954 315.384 46.9462 315.384 41.5765C315.384 36.2906 310.951 34.1092 307.355 34.1092H301.5V49.2954Z" fill="black"/>
<path d="M288.378 41.7449C288.378 38.9761 289.8 36.7108 292.142 36.7108C294.4 36.7108 295.655 38.9761 295.655 41.7449C295.655 44.5136 294.4 46.779 292.142 46.779C289.8 46.779 288.378 44.5136 288.378 41.7449ZM284.865 41.9127C284.865 46.4434 287.207 49.6317 290.887 49.6317C293.564 49.6317 295.153 47.8697 295.989 45.0171V49.2961H299.418V34.1098H295.989V38.1371C295.237 35.4522 293.647 33.8581 291.138 33.8581C287.374 33.8581 284.865 37.2981 284.865 41.9127Z" fill="black"/>
<path d="M206.775 49.6314C202.509 49.6314 200 46.1914 200 41.9124C200 37.4656 202.76 33.8578 208.029 33.8578C213.466 33.8578 215.306 37.5495 215.39 39.6471H211.459C211.375 38.4725 210.371 36.7105 207.946 36.7105C205.353 36.7105 203.68 38.9759 203.68 41.7446C203.68 44.5134 205.353 46.7788 207.946 46.7788C210.288 46.7788 211.291 44.9329 211.71 43.0871H207.946V41.5768H215.844V49.2958H212.379V44.4295C212.128 46.1914 211.04 49.6314 206.775 49.6314Z" fill="black"/>
<path d="M222.867 49.6311C219.605 49.6311 217.598 47.4496 217.598 43.0867V34.1092H221.111V43.0867C221.111 45.3521 222.198 46.4428 224.038 46.4428C227.634 46.4428 228.973 41.996 228.973 38.8916V34.1092H232.486V49.2954H229.056V43.674C228.387 46.7784 226.547 49.6311 222.867 49.6311Z" fill="black"/>
<path d="M253.479 33.8498C250.482 33.8498 248.591 36.754 247.974 39.4394C247.869 35.8407 246.104 33.8498 243.282 33.8498C240.843 33.8498 238.58 36.0314 237.993 39.4828V34.1081H234.568V49.2948H238.037V43.8504C238.037 42.5007 238.598 36.9617 242.089 36.9617C244.351 36.9617 244.587 39.0083 244.587 41.8058V49.2948H248.053V43.8504C248.053 42.5007 248.638 36.9617 252.129 36.9617C254.389 36.9617 254.622 39.0083 254.622 41.8058V49.2948H258.094V40.312C258.11 36.0025 256.593 33.8498 253.479 33.8498Z" fill="black"/>
<path d="M276.023 33.8498C271.533 33.8498 268.49 37.3815 268.49 41.7406C268.49 46.5436 271.384 49.6312 276.023 49.6312C280.513 49.6312 283.609 46.0996 283.609 41.7406C283.609 36.9375 280.66 33.8498 276.023 33.8498ZM276.023 46.9432C273.409 46.9432 271.716 44.7233 271.716 41.7406C271.716 38.7578 273.415 36.5379 276.023 36.5379C278.631 36.5379 280.261 38.7578 280.261 41.7406C280.261 44.7233 278.629 46.9432 276.023 46.9432Z" fill="black"/>
</g>
<defs>
<clipPath id="clip0_1511_25019">
<rect width="515" height="290" fill="white"/>
</clipPath>
</defs>
</svg>
