<svg width="207" height="182" viewBox="0 0 207 182" fill="none" xmlns="http://www.w3.org/2000/svg">
<path d="M126.667 5.53636L21.3081 60.3954C3.18231 69.8332 -3.8407 92.5744 5.62176 111.189L30.2742 159.686C39.7367 178.301 62.1013 185.74 80.2271 176.303L185.586 121.444C203.712 112.006 210.735 89.2645 201.273 70.6497L176.62 22.1528C167.158 3.53793 144.793 -3.90148 126.667 5.53636Z" fill="#23A094" stroke="black" stroke-width="2" stroke-miterlimit="10"/>
<path d="M53.6247 140.103L38.5134 147.956C31.5135 133.793 18.2536 107.703 8.18945 88.3032L22.9057 80.6327L26.583 87.8746C22.9422 89.5736 20.9289 90.617 19.2586 91.3882C20.9206 94.6447 22.5421 98.0257 24.3571 101.61C27.0261 100.116 30.0104 98.5556 31.0156 97.9254L34.8183 105.427C33.6903 105.91 30.6329 107.405 27.9228 108.816C32.5735 118.164 37.5871 128.002 42.2786 137.055C44.5255 135.882 47.1216 134.426 49.8568 132.696L53.6247 140.103Z" fill="#23A094" stroke="black" stroke-width="2" stroke-miterlimit="10"/>
<path d="M55.5721 111.676C59.4937 121.305 63.9732 132.253 67.6559 141.406L59.2085 145.8C55.4698 132.655 51.7757 120.397 47.7406 105.703C41.3274 98.5714 33.5651 90.3443 29.3477 85.9092L37.024 81.9505C39.7374 85.161 44.3645 90.6036 48.7962 96.0419C47.2308 90.2211 45.7718 83.9359 43.919 78.3534L52.2034 74.0417C53.6041 83.1367 54.7855 92.4137 56.2227 101.025C65.4047 112.536 74.6155 123.329 83.1536 133.374L75.7187 137.268C70.5089 130.656 62.679 120.458 55.5721 111.676Z" fill="#23A094" stroke="black" stroke-width="2" stroke-miterlimit="10"/>
<path d="M96.606 102.327C111.094 128.891 112.724 140.008 104.985 144.041C97.8599 147.747 88.4388 138.27 78.6039 118.932C68.8275 99.7761 67.0012 86.6565 74.5051 82.7442C79.3076 80.2403 83.7597 82.4527 88.7256 89.1208C90.58 91.7865 92.2339 94.5905 93.6729 97.5082L86.1604 101.423C85.0074 98.9694 83.7284 96.5785 82.3288 94.2604C79.9579 90.5694 78.767 89.3742 77.9793 89.7471C76.2748 90.6317 79.9915 102.182 86.4157 114.823C95.4409 132.561 100.415 137.92 101.814 137.203C103.212 136.486 101.192 128.665 89.0111 106.245L96.606 102.327Z" fill="#23A094" stroke="black" stroke-width="2" stroke-miterlimit="10"/>
<path d="M99.1731 79.9933C105.805 93.4402 121.702 124.693 129.497 139.646L122.062 143.54C114.503 128.467 98.685 97.1641 91.7383 83.8871L99.1731 79.9933Z" fill="#23A094" stroke="black" stroke-width="2" stroke-miterlimit="10"/>
<path d="M111.239 69.825C119.092 85.8514 132.713 112.46 137.927 122.319L130.5 126.211C125.634 116.267 112.121 89.4781 104.038 73.5897C102.181 74.5626 100.325 75.5354 99.6642 75.9688L95.9893 68.7357L111.786 60.5093L115.461 67.7424C114.882 67.9267 112.909 68.9497 111.239 69.825Z" fill="#23A094" stroke="black" stroke-width="2" stroke-miterlimit="10"/>
<path d="M117.707 48.6494C124.344 62.0852 140.235 93.3492 148.039 108.299L140.604 112.193C133.045 97.1204 117.229 65.8267 110.28 52.5409L117.707 48.6494Z" fill="#23A094" stroke="black" stroke-width="2" stroke-miterlimit="10"/>
<path d="M135.75 26.1424C144.985 45.0741 159.553 74.3071 165.838 85.915C165.579 85.9846 159.453 89.1381 159.348 89.2989C156.668 85.7668 146.229 71.9893 136.956 59.5181C134.917 56.8555 133.074 54.1972 131.308 51.6886L131.144 51.7327C133.081 55.152 134.881 58.3048 136.107 60.5231C142.475 71.8907 148.242 82.4637 153.449 92.3345L146.144 96.127C140.15 84.1567 125.478 55.0845 115.82 36.4746C117.525 35.59 123.497 32.5159 124.795 31.5985C127.245 35.448 134.26 45.7799 142.513 57.3795C144.429 59.9993 146.355 62.825 148.117 65.5241L148.23 65.361C147.298 63.7174 146.472 62.263 145.938 61.2416C139.403 49.1515 133.128 38.166 128.755 29.7473L135.75 26.1424Z" fill="#23A094" stroke="black" stroke-width="2" stroke-miterlimit="10"/>
<path d="M174.674 69.1705C167.371 72.9718 158.046 63.4411 147.736 43.1599C138.472 24.9463 136.148 12.0742 144.197 7.88277C149.002 5.3877 154.008 7.90584 158.458 14.3431C160.188 16.7317 161.684 19.2864 162.923 21.9698L155.411 25.8845C154.328 23.5975 153.13 21.3685 151.821 19.2064C149.522 15.2687 148.379 14.5625 147.599 14.9619C145.742 15.9347 149.618 27.5939 156.006 40.1687C164.704 57.2748 169.638 63.3451 171.261 62.5013C172.884 61.6576 171.646 55.1615 161.398 36.3506C159.111 37.6477 158.144 38.2487 157.568 38.65L153.89 31.4081C154.628 31.1245 157.565 29.5958 160.121 28.2644C162.452 27.0598 164.463 26.0076 165.121 25.5654C178.885 50.6764 183.346 64.6503 174.674 69.1705Z" fill="#23A094" stroke="black" stroke-width="2" stroke-miterlimit="10"/>
</svg>
