<svg width="328" height="234" viewBox="0 0 328 234" fill="none" xmlns="http://www.w3.org/2000/svg">
<path d="M33.9272 211.838C29.5065 211.454 26.2428 207.545 26.6537 203.127L30.4441 162.364L9.23463 160.521C4.81438 160.137 1.55111 156.229 1.96161 151.811L10.8602 56.0429C11.2672 51.6628 15.1342 48.433 19.5168 48.813L30.6986 49.7824L34.4874 8.97997C34.8942 4.59905 38.7623 1.36885 43.1455 1.74967L304.122 24.4232C308.542 24.8072 311.805 28.7151 311.395 33.133L307.615 73.8296L318.703 74.7973C323.122 75.183 326.384 79.0905 325.974 83.5073L317.075 179.269C316.668 183.648 312.802 186.878 308.42 186.499L289.426 184.856L285.637 225.714C285.23 230.095 281.362 233.326 276.979 232.945L33.9272 211.838Z" fill="#FF90E8" stroke="black" stroke-width="2" stroke-miterlimit="10"/>
<path d="M97.1929 74.5682C101.185 74.915 104.39 74.1877 106.808 72.3302C109.335 70.2884 111.169 67.5594 112.072 64.4972L116.122 66.5114C113.519 74.3444 106.6 79.5925 96.7995 78.742C85.9001 77.8916 79.2123 69.3313 80.3231 59.1149C81.0983 49.0439 89.9497 41.5467 100.155 42.6321C104.563 43.0125 108.034 44.4337 110.476 46.8619C112.932 49.2758 114.549 52.3695 115.104 55.7131L110.568 57.2461C109.851 51.5169 106.102 47.399 99.7268 46.8507C92.3101 46.2017 86.0505 51.1141 85.2637 59.5401C84.4885 68.313 89.5101 73.908 97.1929 74.5682Z" fill="black"/>
<path d="M126.537 56.8992L126.213 60.3569C126.817 59.1954 127.783 58.2466 128.975 57.6443C130.166 57.0421 131.523 56.8166 132.854 56.9999C133.745 57.0492 134.616 57.2738 135.414 57.6598C136.212 58.0459 136.921 58.5854 137.496 59.2453C138.071 59.9052 138.501 60.6716 138.759 61.4976C139.017 62.3237 139.099 63.1921 138.998 64.0496C138.919 64.9477 138.733 65.834 138.443 66.6904L134.081 66.31C134.228 65.7357 134.337 65.1525 134.405 64.5643C134.613 62.3263 133.248 60.8716 130.795 60.659C128.041 60.424 126.039 62.3711 125.738 65.5826L124.327 80.7226L119.872 80.3421L122.082 56.4628L126.537 56.8992Z" fill="black"/>
<path d="M164.511 76.9294C163.644 79.1724 162.01 81.0612 159.88 82.2824C157.75 83.5037 155.253 83.9839 152.802 83.6433C145.593 83.0167 140.861 77.7015 141.579 70.0252C142.203 63.1993 147.433 58.1974 154.433 58.8352C157.363 58.9638 160.123 60.2017 162.116 62.2817C163.045 63.321 163.733 64.5412 164.132 65.8598C164.532 67.1784 164.633 68.5646 164.43 69.9245C164.349 70.901 164.155 71.8656 163.852 72.8003L146.068 71.2561C145.64 76.4258 148.799 79.4807 153.161 79.8611C154.801 80.0988 156.475 79.7536 157.873 78.8896C159.27 78.0255 160.297 76.7011 160.762 75.1614L164.511 76.9294ZM159.987 69.309L160.103 68.6153C160.427 65.2023 157.789 62.9531 154.028 62.6286C152.263 62.405 150.476 62.8528 149.046 63.8776C147.615 64.9025 146.651 66.4244 146.357 68.1229L159.987 69.309Z" fill="black"/>
<path d="M178.28 71.0993C180.054 71.2438 181.794 71.6514 183.44 72.3078L185.615 73.1023L185.847 70.6405C186.171 67.1828 183.857 65.0455 180.177 64.7434C176.498 64.4412 174.091 66.0862 173.235 69.0851L169.289 67.6304C170.701 63.1544 174.809 60.5807 180.559 61.0843C187.247 61.6662 190.706 65.5603 190.163 71.3678L188.786 86.2617L184.482 85.8924L184.829 82.1326C183.348 84.5832 179.923 86.0043 175.977 85.6574C173.856 85.5249 171.857 84.6498 170.354 83.1956C169.646 82.4643 169.113 81.5904 168.795 80.6366C168.477 79.6828 168.381 78.6728 168.514 77.679C168.919 72.8113 172.934 70.6405 178.28 71.0993ZM185.303 76.5152L183.081 75.6648C181.648 75.0855 180.136 74.7087 178.592 74.5458C175.422 74.2772 173.339 75.4074 173.108 77.9028C172.899 80.1408 174.519 81.7745 177.736 82.0542C181.832 82.4123 184.875 80.5548 185.199 77.0971L185.303 76.5152Z" fill="black"/>
<path d="M198.585 66.8471L193.714 66.4219L194.049 62.7628L198.932 63.188L199.615 55.8138L204.127 56.2055L203.445 63.5796L212.25 64.3405L211.914 67.9997L203.098 67.2388L201.871 80.4765C201.78 80.9266 201.788 81.3903 201.896 81.8371C202.003 82.2838 202.208 82.7034 202.495 83.0682C202.783 83.433 203.147 83.7347 203.564 83.9534C203.981 84.1721 204.441 84.3028 204.914 84.337C206.985 84.516 208.281 83.5089 208.941 80.98L213.002 82.2333C211.937 86.4407 208.917 88.5556 204.717 88.1975C199.522 87.7387 196.93 84.6839 197.382 79.917L198.585 66.8471Z" fill="black"/>
<path d="M229.213 65.3142C236.676 65.9632 241.211 71.7596 240.552 78.7421C239.892 85.7246 234.269 90.6818 226.91 90.044C219.551 89.4061 214.958 83.5985 215.617 76.616C216.277 69.6335 221.796 64.6651 229.213 65.3142ZM234.281 72.1288C233.655 71.2844 232.842 70.5859 231.901 70.0844C230.96 69.583 229.915 69.2913 228.842 69.2306C224.284 68.839 220.639 72.0617 220.176 77.0636C219.713 82.0655 222.71 85.8253 227.269 86.217C231.828 86.6086 235.472 83.4419 235.947 78.384C236.245 76.1692 235.648 73.9286 234.281 72.1288V72.1288Z" fill="black"/>
<path d="M251.254 67.731L250.93 71.1887C251.535 70.0272 252.501 69.0784 253.692 68.4761C254.884 67.8738 256.241 67.6484 257.572 67.8317C258.463 67.881 259.334 68.1055 260.132 68.4916C260.93 68.8777 261.638 69.4172 262.214 70.077C262.789 70.7369 263.218 71.5034 263.477 72.3294C263.735 73.1555 263.816 74.0239 263.716 74.8814C263.643 75.7803 263.456 76.6672 263.16 77.5222L258.798 77.1417C258.946 76.5674 259.055 75.9843 259.122 75.3961C259.331 73.1581 257.965 71.7034 255.512 71.4908C252.759 71.2558 250.757 73.2029 250.456 76.4144L249.044 91.5544L244.59 91.1739L246.8 67.3953L251.254 67.731Z" fill="black"/>
<path d="M69.0649 98.7609C68.7409 102.23 72.0501 104.356 77.9626 106.012C86.3628 108.351 89.9265 111.607 89.4174 117.112C88.862 123.133 82.7528 127.004 74.7692 126.311C71.4225 126.039 68.2189 124.877 65.5128 122.954C62.6439 120.788 60.7165 117.662 60.1094 114.192L64.7376 111.954C65.6516 117.851 69.2963 121.454 75.151 121.958C80.3924 122.416 84.0834 120.413 84.4074 116.844C84.7082 113.688 82.5329 111.685 75.8452 110.04C67.5762 107.899 63.7001 104.039 64.2169 98.4588C64.6913 93.3002 70.0021 89.5068 77.3262 90.1447C83.3429 90.6706 88.0289 94.1618 89.4636 99.589L84.8355 101.659C84.0371 97.351 81.1792 94.878 76.5626 94.4752C72.4782 94.1059 69.3426 95.7508 69.0649 98.7609Z" fill="black"/>
<path d="M99.9942 104.031L99.5777 108.507C100.616 107.095 102.013 105.966 103.635 105.229C105.256 104.492 107.047 104.172 108.834 104.3C115.475 104.882 119.571 110.286 118.889 117.661C118.206 125.035 112.918 129.634 106.161 129.052C104.515 128.961 102.921 128.459 101.536 127.594C100.151 126.729 99.0213 125.531 98.2586 124.117L96.9974 137.758L92.5312 137.377L95.7825 103.662L99.9942 104.031ZM114.446 117.314C114.955 111.853 111.507 108.462 107.503 108.116C103.662 107.78 99.4041 110.7 98.9297 115.948C98.4553 121.197 102.088 124.766 105.872 125.102C109.922 125.471 113.937 122.83 114.446 117.314Z" fill="black"/>
<path d="M136.187 106.661C143.649 107.31 148.185 113.118 147.537 120.089C146.889 127.06 141.254 132.04 133.884 131.391C126.514 130.742 121.943 124.945 122.591 117.963C123.239 110.98 128.77 106.023 136.187 106.661ZM141.254 113.532C140.632 112.686 139.821 111.987 138.882 111.485C137.943 110.984 136.899 110.693 135.828 110.633C131.2 110.242 127.613 113.464 127.15 118.466C126.687 123.468 129.684 127.228 134.254 127.631C138.825 128.034 142.458 124.856 142.921 119.798C143.228 117.579 142.63 115.332 141.254 113.532Z" fill="black"/>
<path d="M155.821 112.569L150.938 112.144L151.286 108.485L156.157 108.91L156.839 101.536L161.352 101.928L160.669 109.302L169.486 110.063L169.139 113.722L160.334 112.961L159.096 126.199C159.004 126.648 159.013 127.111 159.12 127.558C159.228 128.004 159.433 128.423 159.72 128.787C160.008 129.15 160.372 129.451 160.789 129.669C161.206 129.886 161.666 130.015 162.139 130.048C164.21 130.227 165.506 129.231 166.165 126.691L170.226 127.956C169.162 132.163 166.142 134.278 161.942 133.909C156.758 133.461 154.167 130.406 154.606 125.639L155.821 112.569Z" fill="black"/>
<path d="M177.227 99.3088L181.693 99.7005L178.43 134.792L173.964 134.401L177.227 99.3088Z" fill="black"/>
<path d="M191.817 111.998L189.607 135.766L185.152 135.385L187.362 111.618L191.817 111.998ZM187.976 102.106L192.962 102.543L192.488 107.612L187.513 107.175L187.976 102.106Z" fill="black"/>
<path d="M200.066 138.149C200.738 141.697 203.017 143.61 206.847 143.946C211.625 144.36 214.344 141.518 214.842 136.113L215.085 133.45C213.396 135.99 210.214 137.534 206.118 137.176C199.893 136.639 195.195 131.525 195.855 124.408C196.549 116.978 202.149 112.357 208.582 112.927C210.223 112.973 211.821 113.439 213.214 114.279C214.607 115.118 215.744 116.301 216.508 117.705L216.832 114.147L221.345 114.539L219.331 136.202C219.179 139.501 217.793 142.635 215.432 145.02C214.244 146.097 212.819 146.9 211.264 147.369C209.709 147.838 208.064 147.961 206.453 147.728C200.483 147.202 196.989 144.427 195.832 139.414L200.066 138.149ZM208.999 116.888C204.44 116.497 200.819 119.518 200.309 124.934C199.858 129.791 202.901 133.136 207.46 133.539C212.019 133.942 215.559 130.809 216.011 125.941C216.462 121.074 213.465 117.224 208.999 116.888Z" fill="black"/>
<path d="M225.881 138.921L229.132 103.819L233.598 104.21L232.083 120.559C232.916 118.948 234.244 117.625 235.884 116.772C237.524 115.918 239.397 115.576 241.246 115.792C246.638 116.262 249.693 120.01 249.195 125.426L247.761 140.824L243.248 140.432L244.59 126.042C244.961 121.98 243.028 119.686 239.303 119.328C235.357 118.981 231.932 122.08 231.481 126.993L230.324 139.302L225.881 138.921Z" fill="black"/>
<path d="M258.186 121.454L253.314 121.029L253.65 117.37L258.521 117.795L259.204 110.421L263.716 110.812L263.034 118.187L271.85 118.959L271.515 122.618L262.698 121.846L261.472 135.094C261.38 135.543 261.388 136.005 261.495 136.451C261.602 136.896 261.806 137.315 262.092 137.678C262.379 138.042 262.742 138.343 263.157 138.561C263.573 138.779 264.032 138.91 264.503 138.944C266.586 139.123 267.882 138.127 268.53 135.587L272.603 136.851C271.526 141.048 268.507 143.162 264.306 142.804C259.123 142.346 256.531 139.291 256.971 134.535L258.186 121.454Z" fill="black"/>
<path d="M89.5681 141.126L96.2095 141.708L108.139 178.131L102.851 177.672L99.9468 168.418L80.9712 166.773L76.343 175.378L71.1016 174.92L89.5681 141.126ZM98.5815 164.054L92.5533 145.031L83.0539 162.767L98.5815 164.054Z" fill="black"/>
<path d="M118.645 155.08L118.333 158.538C118.925 157.364 119.887 156.401 121.08 155.788C122.273 155.175 123.636 154.943 124.974 155.125C125.866 155.174 126.737 155.399 127.536 155.786C128.334 156.173 129.042 156.713 129.617 157.375C130.191 158.036 130.62 158.804 130.876 159.631C131.132 160.459 131.21 161.328 131.106 162.186C131.034 163.081 130.847 163.964 130.551 164.815L126.201 164.435C126.346 163.861 126.451 163.277 126.513 162.689C126.721 160.451 125.356 158.997 122.903 158.784C120.161 158.549 118.148 160.496 117.847 163.707L116.447 178.859L111.98 178.433L114.19 154.666L118.645 155.08Z" fill="black"/>
<path d="M154.49 171.641L158.343 173.442C156.388 179.339 151.609 182.394 145.431 181.879C137.713 181.208 132.992 175.736 133.687 168.217C133.791 166.619 134.226 165.057 134.964 163.624C135.703 162.191 136.73 160.916 137.987 159.873C139.243 158.83 140.702 158.041 142.279 157.552C143.855 157.063 145.517 156.885 147.166 157.027C153.125 157.553 157.082 161.077 157.776 166.594L153.565 167.444C153.137 163.618 150.753 161.189 146.761 160.842C142.978 160.507 138.546 163.08 138.049 168.575C137.89 169.683 137.963 170.811 138.264 171.891C138.565 172.972 139.087 173.983 139.799 174.865C140.511 175.746 141.399 176.481 142.41 177.025C143.421 177.568 144.535 177.91 145.685 178.03C150.452 178.433 153.09 176.016 154.49 171.641Z" fill="black"/>
<path d="M162.335 182.842L165.598 147.739L170.052 148.12L168.537 164.468C169.373 162.857 170.703 161.535 172.345 160.682C173.987 159.829 175.861 159.487 177.712 159.701C183.104 160.171 186.147 163.931 185.65 169.347L184.215 184.744L179.702 184.353L181.044 169.951C181.426 165.889 179.494 163.607 175.757 163.237C171.811 162.89 168.398 165.979 167.935 170.891L166.778 183.2L162.335 182.842Z" fill="black"/>
<path d="M197.521 161.928L195.288 185.707L190.833 185.315L193.043 161.548L197.521 161.928ZM193.679 152.047L198.666 152.472L198.192 157.542L193.217 157.105L193.679 152.047Z" fill="black"/>
<path d="M212.459 182.909L222.051 164.032L226.818 164.446L214.762 187.385L209.312 186.904L201.722 162.286L206.442 162.7L212.459 182.909Z" fill="black"/>
<path d="M250.583 183.278C249.72 185.522 248.089 187.411 245.96 188.633C243.832 189.855 241.335 190.334 238.886 189.992C231.677 189.366 226.945 184.05 227.651 176.374C228.287 169.559 233.505 164.546 240.505 165.184C241.958 165.241 243.384 165.575 244.702 166.167C246.021 166.758 247.205 167.595 248.188 168.631C249.117 169.668 249.805 170.886 250.204 172.203C250.603 173.52 250.705 174.904 250.502 176.262C250.417 177.243 250.22 178.211 249.912 179.149L232.128 177.605C231.7 182.775 234.871 185.83 239.221 186.199C240.862 186.444 242.54 186.102 243.939 185.237C245.339 184.372 246.364 183.043 246.823 181.499L250.583 183.278ZM246.071 175.658L246.187 174.953C246.499 171.54 243.872 169.291 240.1 168.966C238.336 168.76 236.557 169.216 235.13 170.24C233.703 171.264 232.736 172.779 232.429 174.472L246.071 175.658Z" fill="black"/>
</svg>
