<svg width="163" height="92" viewBox="0 0 163 92" fill="none" xmlns="http://www.w3.org/2000/svg">
<path d="M89.1011 78.587L30.7949 27.3339L102.947 1.03653L161.251 52.2857L89.1011 78.587Z" fill="#FF90E8" stroke="black" stroke-width="2" stroke-linecap="round" stroke-linejoin="round"/>
<path d="M96.024 39.8123C96.024 39.8123 79.1915 54.1459 56.6498 55.0292C32.609 55.972 20.1006 64.7981 20.1006 64.7981" stroke="black" stroke-width="2" stroke-linecap="round" stroke-linejoin="round"/>
<path d="M11.7965 72.9908C13.5095 75.6002 17.0118 76.328 19.6191 74.6163C22.2265 72.9047 22.9515 69.4018 21.2385 66.7924C19.5255 64.1831 16.0232 63.4553 13.4159 65.167C10.8085 66.8786 10.0835 70.3815 11.7965 72.9908Z" fill="#FF90E8" stroke="black" stroke-width="2" stroke-linecap="round" stroke-linejoin="round"/>
<path d="M1.7832 85.1448C8.66207 82.2901 12.7233 74.8399 12.7233 74.8399C12.7233 74.8399 14.7522 82.0518 7.83217 89.3023" stroke="black" stroke-width="2" stroke-linecap="round" stroke-linejoin="round"/>
<path d="M13.2939 75.7118C13.2939 75.7118 19.3977 80.8798 14.842 90.122" stroke="black" stroke-width="2" stroke-linecap="round" stroke-linejoin="round"/>
</svg>
