<svg width="294" height="251" viewBox="0 0 294 251" fill="none" xmlns="http://www.w3.org/2000/svg">
<path d="M169.641 166.303L14.5381 108.998L137.866 1.54663L292.961 58.8462L169.641 166.303Z" fill="#FF90E8" stroke="black" stroke-width="2" stroke-linecap="round" stroke-linejoin="round"/>
<path d="M153.753 83.9252C153.753 83.9252 131.251 125.291 87.1141 144.284C40.0423 164.542 21.9248 191.652 21.9248 191.652" stroke="black" stroke-width="2" stroke-linecap="round" stroke-linejoin="round"/>
<path d="M11.6807 214.289C17.0813 218.167 24.6003 216.935 28.4748 211.539C32.3493 206.142 31.1121 198.624 25.7114 194.747C20.3107 190.869 12.7917 192.101 8.91723 197.497C5.04275 202.893 6.27999 210.411 11.6807 214.289Z" fill="#FF90E8" stroke="black" stroke-width="2" stroke-linecap="round" stroke-linejoin="round"/>
<path d="M1.06934 246.108C12.5615 235.173 14.9382 217.257 14.9382 217.257C14.9382 217.257 24.4863 230.043 16.2737 249.748" stroke="black" stroke-width="2" stroke-linecap="round" stroke-linejoin="round"/>
<path d="M16.7393 218.551C16.7393 218.551 32.8252 224.158 30.8357 246.015" stroke="black" stroke-width="2" stroke-linecap="round" stroke-linejoin="round"/>
</svg>
