<svg width="122" height="112" viewBox="0 0 122 112" fill="none" xmlns="http://www.w3.org/2000/svg">
<path d="M1.49023 67.5261L43.5573 1.21753L120.061 22.971L93.8467 64.2807L92.9809 63.6439C96.0198 58.8 97.2963 53.5901 96.1892 48.789L92.6812 34.3376C90.035 22.8551 74.7741 18.0601 58.5893 23.6424C42.4046 29.2246 31.4446 43.017 34.0908 54.4995L37.5947 68.9498C38.9652 74.8923 43.7185 79.0428 50.2343 80.8955L50.1026 81.3588L1.49023 67.5261Z" fill="#FF90E8"/>
<path d="M37.7155 61.2531C37.0789 63.8054 37.037 66.4553 37.594 68.9494L34.09 54.4992C31.4439 43.0166 42.4145 29.2022 58.5886 23.6419C74.7627 18.0817 90.0277 22.8778 92.6804 34.3372L96.1885 48.7886C95.576 46.2042 94.3399 43.8894 92.6074 42.0824C86.614 35.6665 74.6338 33.7621 62.1197 38.0749C49.4283 42.4474 39.9583 51.8617 37.7155 61.2531Z" fill="#FF90E8"/>
<path d="M37.7178 61.2529C39.9401 51.8708 49.4306 42.4473 62.0989 38.0933C74.6295 33.7852 86.6097 35.6896 92.5866 42.1007L92.5149 42.1805C90.2102 51.5392 80.7679 60.8713 68.1487 65.2092C55.6783 69.5093 43.7285 67.6236 37.7178 61.2529Z" fill="#FF90E8"/>
<path d="M50.0996 81.348L50.2313 80.8848C56.2938 82.6086 63.8853 82.3388 71.6865 79.6551C81.0974 76.4177 88.7474 70.3964 92.9743 63.6772L93.8401 64.3139L77.9941 89.2897L50.0996 81.348Z" fill="#FF90E8"/>
<path d="M68.1747 65.2175C80.7844 60.8818 90.2306 51.5359 92.5409 42.1887L92.6126 42.1089C94.3451 43.916 95.5812 46.2308 96.1937 48.8152C97.2955 53.6349 96.0202 58.8251 92.9854 63.6702C88.7532 70.4079 81.1032 76.4292 71.6976 79.6481C63.8963 82.3317 56.3048 82.6015 50.2424 80.8777C43.7348 79.0273 38.9816 74.8768 37.6028 68.932C37.0458 66.4379 37.0877 63.7879 37.7243 61.2356C43.7297 67.6248 55.6796 69.5106 68.1747 65.2175Z" fill="#FF90E8"/>
<path d="M107.726 98.7697C107.191 99.3348 106.525 99.722 105.814 99.8824C105.103 100.043 104.377 99.969 103.729 99.6705C103.081 99.372 102.54 98.8622 102.173 98.2055C101.807 97.5488 101.632 96.7747 101.671 95.981C101.71 95.1873 101.961 94.4097 102.392 93.7464C102.823 93.0832 103.415 92.5641 104.093 92.2548C104.77 91.9454 105.504 91.8597 106.2 92.0085C106.896 92.1573 107.524 92.5339 108.004 93.0907C108.324 93.4604 108.57 93.9007 108.729 94.3865C108.888 94.8723 108.957 95.3939 108.931 95.9215C108.905 96.449 108.786 96.9722 108.579 97.461C108.372 97.9497 108.082 98.3945 107.726 98.7697Z" fill="#FF90E8"/>
<path d="M107.727 98.7706C108.261 98.205 108.642 97.4869 108.82 96.7073C108.998 95.9277 108.965 95.1214 108.726 94.3905C108.488 93.6595 108.053 93.0367 107.478 92.6007C106.903 92.1647 106.213 91.9351 105.495 91.941C104.778 91.9469 104.065 92.188 103.446 92.6337C102.828 93.0795 102.332 93.71 102.021 94.4454C101.711 95.1809 101.599 95.9883 101.701 96.7657C101.802 97.543 102.112 98.2554 102.592 98.8127C102.911 99.183 103.297 99.4757 103.727 99.6741C104.158 99.8724 104.625 99.9725 105.102 99.9686C105.579 99.9647 106.056 99.8568 106.506 99.6513C106.957 99.4457 107.371 99.1465 107.727 98.7706Z" stroke="black" stroke-width="2" stroke-linecap="round" stroke-linejoin="round"/>
<path d="M94.4453 101.639C100.06 103.01 103.159 99.8057 103.349 99.6046C103.24 99.879 100.91 105.52 95.5965 106.833" stroke="black" stroke-width="2" stroke-linecap="round" stroke-linejoin="round"/>
<path d="M103.341 99.5913C103.341 99.5913 103.844 107.019 99.5615 110.253" stroke="black" stroke-width="2" stroke-linecap="round" stroke-linejoin="round"/>
<path d="M92.5317 42.1865C90.227 51.5453 80.7848 60.8773 68.1655 65.2153C55.6704 69.5084 43.7205 67.6226 37.7098 61.252L37.6752 61.2171" stroke="black" stroke-width="2" stroke-linecap="round" stroke-linejoin="round"/>
<path d="M96.1848 48.8122L92.6768 34.3607C90.0306 22.8782 74.7698 18.0832 58.585 23.6655C42.4002 29.2478 31.4403 43.0402 34.0864 54.5227L37.5904 68.9729" stroke="black" stroke-width="2" stroke-linecap="round" stroke-linejoin="round"/>
<path d="M37.717 61.254C39.9393 51.8718 49.4298 42.4483 62.0981 38.0943C74.6287 33.7862 86.6089 35.6906 92.5858 42.1017C94.3184 43.9088 95.5544 46.2236 96.1669 48.808C97.2687 53.6277 95.9934 58.8178 92.9586 63.663C88.7264 70.4007 81.0764 76.422 71.6708 79.6409C63.8696 82.3245 56.2781 82.5943 50.2156 80.8705C43.708 79.0201 38.9548 74.8696 37.576 68.9247C37.0296 66.4367 37.0782 63.7961 37.717 61.254Z" stroke="black" stroke-width="2" stroke-linecap="round" stroke-linejoin="round"/>
<path d="M98.4912 58.0118C98.4912 58.0118 118.517 64.1116 107.452 91.5433" stroke="black" stroke-width="2" stroke-linecap="round" stroke-linejoin="round"/>
<path d="M50.098 81.3472L1.49121 67.5261L43.5583 1.21753L120.062 22.971L93.8411 64.3039L77.6545 89.2336L50.098 81.3472Z" stroke="black" stroke-width="2" stroke-linecap="round" stroke-linejoin="round"/>
</svg>
