<svg width="245" height="139" viewBox="0 0 245 139" fill="none" xmlns="http://www.w3.org/2000/svg">
<path d="M216.556 51.915C218.068 52.5767 219.351 53.6717 220.241 55.0614C221.131 56.451 221.589 58.0729 221.557 59.7219C221.524 61.3709 221.003 62.9729 220.06 64.3253C219.116 65.6777 217.792 66.7197 216.255 67.3195C214.718 67.9193 213.037 68.05 211.425 67.695C209.812 67.34 208.342 66.5153 207.198 65.3251C206.054 64.135 205.289 62.6329 205 61.009C204.71 59.385 204.909 57.712 205.571 56.2017C206.458 54.1777 208.114 52.5892 210.174 51.7854C212.233 50.9816 214.529 51.0282 216.556 51.915Z" fill="#FF90E8"/>
<path d="M211.234 1.64923L178.682 46.0121C176.631 44.0643 174.471 41.8497 172.094 39.334C164.488 31.2692 157.055 19.2845 149.219 11.1256L211.234 1.64923Z" fill="#FF90E8"/>
<path d="M178.682 46.0126L168.66 59.6722L168.165 59.9776L156.479 41.0667C148.613 28.0807 119.396 31.3502 91.2739 48.3807C63.1519 65.4113 46.7496 89.7609 54.6372 102.756L61.484 113.84L1 123.355L75.3231 22.4225L149.218 11.1261C157.055 19.285 164.488 31.2697 172.094 39.3345C174.471 41.8502 176.631 44.0648 178.682 46.0126Z" fill="#FF90E8"/>
<path d="M72.2335 110.669C68.7769 117.979 68.2176 124.668 71.2546 129.67L54.6185 102.742C46.7526 89.756 63.1309 65.4023 91.2552 48.3663C119.38 31.3304 148.572 28.0568 156.46 41.0523L173.096 67.9806C170.008 62.9044 163.671 60.3123 155.417 60.052C142.549 59.6481 125.024 64.9203 107.889 75.3001C90.6192 85.7818 77.7627 99.0195 72.2335 110.669Z" fill="#FF90E8"/>
<path d="M173.118 67.9905C180.984 80.9766 164.6 105.328 136.481 122.366C108.362 139.405 79.1641 142.676 71.2765 129.68C68.2395 124.678 68.7989 117.989 72.2554 110.678C85.1296 111.098 102.692 105.829 119.855 95.4163C137.42 84.7608 150.083 72.5537 155.428 60.7659L155.449 60.0403C163.693 60.3222 170.03 62.9143 173.118 67.9905Z" fill="#FF90E8"/>
<path d="M155.438 60.0597L155.418 60.7853C150.068 72.5838 137.42 84.785 119.844 95.4357C102.692 105.827 85.1287 111.096 72.2451 110.698C77.7527 99.0393 90.6091 85.8017 107.901 75.3294C125.045 64.928 142.57 59.6558 155.438 60.0597Z" fill="#FF90E8"/>
<path d="M61.9218 113.768L61.486 113.835L1.00195 123.35L75.3227 22.4229L211.234 1.65015L168.662 59.6672" stroke="black" stroke-width="2" stroke-linecap="round" stroke-linejoin="round"/>
<path d="M173.116 67.9903C180.982 80.9763 164.598 105.328 136.479 122.366C108.36 139.404 79.1621 142.676 71.2745 129.68C68.2376 124.678 68.7969 117.988 72.2535 110.678C77.7611 99.0197 90.6175 85.782 107.909 75.3097C125.044 64.93 142.569 59.6578 155.437 60.0617C163.691 60.322 170.028 62.9141 173.116 67.9903Z" stroke="black" stroke-width="2" stroke-linecap="round" stroke-linejoin="round"/>
<path d="M173.117 67.9917L156.481 41.0634C148.615 28.0774 119.398 31.3468 91.2764 48.3774C63.1544 65.408 46.752 89.7576 54.6396 102.753L71.2757 129.681" stroke="black" stroke-width="2" stroke-linecap="round" stroke-linejoin="round"/>
<path d="M155.418 60.7843C150.069 72.5828 137.421 84.7839 119.845 95.4346C102.692 105.826 85.1291 111.095 72.2455 110.697L72.0547 110.691" stroke="black" stroke-width="2" stroke-linecap="round" stroke-linejoin="round"/>
<path d="M121.769 13.6724C121.769 13.6724 123.14 -0.285414 136.133 2.48676C140.682 3.45881 145.014 6.73983 149.234 11.1319C157.07 19.2908 164.503 31.2754 172.11 39.3403C174.486 41.856 176.646 44.0706 178.697 46.0184C186.76 53.6899 193.132 57.3352 204.081 59.5158" stroke="black" stroke-width="2" stroke-linecap="round" stroke-linejoin="round"/>
<path d="M220.875 62.8949C220.215 64.4061 219.121 65.6875 217.732 66.5768C216.342 67.4662 214.72 67.9236 213.07 67.8913C211.419 67.8589 209.815 67.3383 208.461 66.3951C207.106 65.4519 206.061 64.1286 205.459 62.5926C204.856 61.0567 204.723 59.377 205.076 57.766C205.428 56.1551 206.252 54.6853 207.441 53.5425C208.63 52.3998 210.132 51.6355 211.757 51.3462C213.382 51.0569 215.056 51.2557 216.569 51.9175C218.595 52.8043 220.187 54.4588 220.995 56.5172C221.802 58.5757 221.759 60.8696 220.875 62.8949V62.8949Z" stroke="black" stroke-width="2" stroke-linecap="round" stroke-linejoin="round"/>
<path d="M221.433 57.2815C221.433 57.2815 227.968 56.5 235.794 37.7294" stroke="black" stroke-width="2" stroke-linecap="round" stroke-linejoin="round"/>
<path d="M241.19 46.2756C232.462 59.5601 221.434 57.2804 221.434 57.2804C221.434 57.2804 227.207 64.9042 243.259 57.3694" stroke="black" stroke-width="2" stroke-linecap="round" stroke-linejoin="round"/>
</svg>
