<svg width="522" height="522" viewBox="0 0 522 522" fill="none" xmlns="http://www.w3.org/2000/svg">
<path d="M520.081 260.6C520.081 293.38 513.999 324.757 502.91 353.636C489.761 387.895 469.554 418.659 444.067 444.15C440.977 447.241 437.81 450.255 434.566 453.181C388.533 494.816 327.498 520.177 260.546 520.177C220.868 520.177 183.272 511.278 149.642 495.353C118.226 480.481 90.273 459.494 67.3384 433.925C26.0823 387.972 1 327.212 1 260.6C1 188.914 30.0491 124.023 77.0141 77.0392C123.99 30.0666 188.871 1.01294 260.546 1.01294C332.21 1.01294 397.102 30.0666 444.067 77.0392C491.032 124.023 520.081 188.914 520.081 260.6Z" fill="#23A094" stroke="black" stroke-width="2" stroke-miterlimit="10" stroke-linecap="round" stroke-linejoin="round"/>
<path d="M342.96 206.822C341.93 209.386 338.16 223.239 328.068 235.547C322.151 242.758 305.221 268.184 289.113 291.999C277.761 308.778 266.814 324.757 260.415 332.988C245.918 351.63 160.677 478.87 149.643 495.353C118.227 480.481 90.2735 459.494 67.3389 433.925L213.538 249.498C213.538 249.498 193.824 240.544 196.52 226.012C199.216 211.469 217.121 186.163 224.046 181.22C229.7 177.187 240.012 180.662 242.773 186.547C243.562 188.213 243.748 190.076 243.047 192.016C242.006 194.372 240.044 197.484 237.842 200.948C235.464 204.674 232.79 208.827 230.665 212.893C228.057 217.858 226.27 222.702 226.785 226.538C228.133 236.435 250.509 247.098 253.873 243.153C257.204 239.24 246.455 224.817 246.455 224.817C246.455 224.817 262.738 234.034 266.124 226.9C268.381 222.143 261.85 215.425 261.5 215.063C261.971 215.272 275.613 221.475 278.495 216.072C280.807 211.732 272.841 202.46 272.841 202.46C272.841 202.46 287.755 207.348 291.173 203.194C294.987 198.569 277.98 178.393 269.422 173.867C281.355 160.923 298.34 163.839 296.882 176.08C314.875 169.527 316.716 179.807 314.064 185.933C322.556 183.062 328.397 184.037 330.479 189.846C330.052 191.687 330.128 193.133 330.128 193.133C330.128 193.133 330.567 193.484 331.279 194.065C334.577 196.816 343.793 204.718 342.96 206.822Z" fill="#FDC82E" stroke="black" stroke-width="2" stroke-miterlimit="10" stroke-linecap="round" stroke-linejoin="round"/>
<path d="M502.91 353.636C489.761 387.895 469.555 418.659 444.067 444.15C440.977 447.241 437.81 450.255 434.567 453.181L289.113 291.999C305.221 268.184 322.151 242.758 328.068 235.547C338.16 223.239 341.93 209.386 342.96 206.822C343.793 204.718 334.577 196.816 331.279 194.065C331.18 192.443 330.906 191.04 330.479 189.846C331.093 187.139 332.78 183.577 337.349 182.437C345.031 180.519 355.156 187.161 363.363 197.287C371.571 207.414 368.886 211.743 366.563 216.85C363.484 223.623 357.851 234.374 357.851 234.374L502.91 353.636Z" fill="#98282A" stroke="black" stroke-width="2" stroke-miterlimit="10" stroke-linecap="round" stroke-linejoin="round"/>
<path d="M291.173 203.194C287.754 207.348 272.841 202.46 272.841 202.46C272.841 202.46 260.973 189.725 253.248 185.758C249.139 177.089 260.963 169.855 269.422 173.867C277.98 178.393 294.986 198.569 291.173 203.194Z" fill="#98282A" stroke="black" stroke-width="2" stroke-miterlimit="10" stroke-linecap="round" stroke-linejoin="round"/>
<path d="M278.495 216.072C275.613 221.475 261.971 215.272 261.5 215.063C261.489 215.053 261.489 215.053 261.489 215.053C253.522 206.153 243.058 202.361 237.842 200.948C240.044 197.484 242.006 194.372 243.047 192.016C243.748 190.076 243.562 188.213 242.773 186.547C244.537 185.056 247.189 183.829 250.783 184.76C251.539 184.958 252.361 185.297 253.248 185.758C260.974 189.725 272.841 202.46 272.841 202.46C272.841 202.46 280.807 211.732 278.495 216.072Z" fill="#98282A" stroke="black" stroke-width="2" stroke-miterlimit="10" stroke-linecap="round" stroke-linejoin="round"/>
<path d="M253.873 243.153C250.509 247.098 228.133 236.434 226.785 226.538C226.27 222.702 228.056 217.858 230.664 212.893C237.655 217.683 246.454 224.817 246.454 224.817C246.454 224.817 257.204 239.24 253.873 243.153Z" fill="#98282A" stroke="black" stroke-width="2" stroke-miterlimit="10" stroke-linecap="round" stroke-linejoin="round"/>
<path d="M266.123 226.9C262.737 234.034 246.454 224.817 246.454 224.817C246.454 224.817 237.655 217.683 230.664 212.893C232.79 208.827 235.464 204.674 237.841 200.948C243.057 202.361 253.522 206.153 261.488 215.052C261.488 215.052 261.488 215.052 261.499 215.063C261.85 215.425 268.381 222.143 266.123 226.9Z" fill="#98282A" stroke="black" stroke-width="2" stroke-miterlimit="10" stroke-linecap="round" stroke-linejoin="round"/>
</svg>
