<svg width="178" height="211" viewBox="0 0 178 211" fill="none" xmlns="http://www.w3.org/2000/svg">
<path d="M1.00107 209.06L1 105.599L1.00107 90.4819H36.4234V71.1972H74.9929V45.2734H105.659V20.2981H131.582V1.00007L176.908 1V209.06H1.00107Z" fill="#F1F333" stroke="black" stroke-width="2"/>
<path d="M35.3881 182.154C35.3881 170.106 21.8498 124.74 21.8498 116.503C21.8498 114.29 23.0443 112.938 25.0353 112.938C26.628 112.938 28.6189 113.675 29.9462 114.659L34.7245 104.824C32.0699 103.471 28.3535 102.242 23.8407 102.242C15.4788 102.242 9.77148 107.405 9.77148 115.643C9.77148 125.97 22.9116 169.983 22.9116 181.17C22.9116 183.998 20.9207 185.596 18.5316 185.596C16.9388 185.596 14.9479 184.981 13.0897 183.506L9.77148 194.448C13.0897 195.8 16.9388 196.661 20.788 196.661C29.2826 196.661 35.3881 191.866 35.3881 182.154Z" fill="#F1F333" stroke="black" stroke-width="2"/>
<path d="M60.8344 128.591C61.8157 171.251 59.3625 184.377 57.1545 184.377C54.9466 184.377 52.1253 172.593 52.1253 139.33C52.1253 115.614 54.8239 95.6265 57.5225 95.6265C58.7492 95.6265 59.4851 98.3113 60.0985 105.62C60.3438 109.051 60.4665 113.824 60.3438 119.194H72.2421C72.2421 113.227 71.9968 107.559 71.3835 102.935C69.4209 89.2126 65.2503 82.5004 57.6452 82.5004C45.7468 82.5004 39.7363 103.383 39.7363 139.33C39.7363 175.576 45.5015 196.906 56.7865 196.906C69.0529 196.906 74.0821 179.156 72.8555 128.591H60.8344Z" fill="#F1F333" stroke="black" stroke-width="2"/>
<path d="M98.1794 195.679H109.955C107.379 159.688 102.718 85.3174 101.369 57.9564H85.2997C82.8464 103.864 79.5345 158.035 76.8359 195.679H88.489C88.9796 179.887 89.7156 158.219 90.6969 135.999C92.4142 135.999 94.4995 135.999 96.2168 135.999C97.1981 161.157 97.934 184.111 98.1794 195.679ZM91.0649 119.289C91.8009 102.579 92.5369 86.4191 93.2728 73.3814H93.6408C94.2541 85.8682 94.9901 102.395 95.6034 119.289C94.1315 119.289 92.5369 119.289 91.0649 119.289Z" fill="#F1F333" stroke="black" stroke-width="2"/>
<path d="M137.106 176.478C133.794 176.914 130.728 177.133 128.029 177.133C127.907 125.419 127.784 59.5232 128.152 32.03H116.131C116.376 61.2687 116.622 159.895 116.131 195.68C123.981 195.243 131.341 195.461 137.106 195.68V176.478Z" fill="#F1F333" stroke="black" stroke-width="2"/>
<path d="M164.828 174.255C160.289 174.946 156.118 175.176 152.561 175.176C152.439 148.914 152.439 120.348 152.561 93.3946C156.854 93.3946 161.638 93.6249 163.356 93.8553V72.2004C161.761 72.4308 156.977 72.4308 152.684 72.6611C152.684 62.2944 152.807 42.5023 152.807 33.057C155.382 33.2874 158.572 33.2874 164.214 33.7482V12.7844H140.908C141.154 69.2254 141.154 154.904 140.908 195.679H164.828V174.255Z" fill="#F1F333" stroke="black" stroke-width="2"/>
</svg>
