<svg width="157" height="136" viewBox="0 0 157 136" fill="none" xmlns="http://www.w3.org/2000/svg">
<path d="M122.08 9.5L150.938 59.483C153.975 64.7428 153.975 71.2232 150.938 76.483L122.08 126.466C119.043 131.726 113.431 134.966 107.358 134.966H49.6423C43.5688 134.966 37.9566 131.726 34.9199 126.466L6.06218 76.483C3.02542 71.2232 3.02542 64.7428 6.06218 59.483L34.9199 9.5C37.9566 4.24018 43.5688 1 49.6423 1L107.358 1C113.431 1 119.043 4.24018 122.08 9.5Z" fill="#FF90E8" stroke="black" stroke-width="2"/>
<path d="M60.8667 123.536C61.2046 105.585 61.4648 38.3699 61.4716 14.9922L78.9307 15.1213L78.8731 21.562C76.9949 21.4801 75.4661 21.4306 74.1706 21.3913C73.9485 21.3846 73.7335 21.3781 73.5252 21.3719C72.2973 21.3352 71.2961 21.3052 70.3879 21.2592L69.3466 21.2063L69.3373 22.2489C69.3206 24.1159 69.2793 30.5085 69.237 37.0477L69.234 37.5189C69.1906 44.2219 69.1469 50.9686 69.1282 53.0635L69.119 54.0914L70.1467 54.0723C71.6451 54.0444 73.2441 54.0335 74.6915 54.0237C75.9878 54.0148 77.1626 54.0068 78.0347 53.9882L77.9751 60.6531C76.0915 60.5648 72.8819 60.4793 69.9581 60.4577L68.969 60.4503L68.9508 61.4393C68.7506 72.3511 68.6473 105.686 68.6548 116.308L68.6555 117.3L69.6474 117.308C72.3564 117.328 75.4896 117.274 78.8948 117.076L78.8358 123.669L60.8667 123.536ZM95.4786 123.792L87.6732 123.734C87.8839 113.864 88.125 77.7912 88.3072 50.5355C88.3879 38.4596 88.457 28.1146 88.5068 22.5463L88.5158 21.5448L87.5142 21.5374L87.4068 21.5366C85.6722 21.5237 83.8922 21.5106 82.6751 21.5393L82.7325 15.1156L101.635 15.2554L101.577 21.6754C101.221 21.6622 100.818 21.6524 100.397 21.6444C99.38 21.6252 98.1714 21.6162 97.047 21.6079L97.0432 21.6079L96.0611 21.6006L96.0362 22.5824C95.5739 40.7526 95.3943 109.492 95.4786 123.792ZM113.354 71.8675L112.426 71.8606L112.35 72.7861C112.087 76.0109 111.665 81.0031 111.186 86.6733C110.053 100.079 108.6 117.274 108.163 123.864L100.498 123.808C102.103 110.652 104.762 80.4133 107.039 54.5315C108.234 40.9401 109.324 28.5504 110.1 20.4672L121.684 20.5529C121.807 22.2698 121.961 24.4354 122.14 26.9517C123.502 46.1224 126.31 85.6537 128.049 102.261L120.299 102.204C120.119 96.0653 119.625 84.9552 118.956 72.8464L118.904 71.9086L117.965 71.9016L113.354 71.8675ZM112.733 64.3094L112.646 65.3826L113.723 65.3906L117.514 65.4186L118.574 65.4265L118.52 64.3679C118.33 60.6389 118.119 54.2564 117.903 47.7325C117.627 39.3925 117.343 30.8214 117.087 27.2672L117.021 26.3458L116.097 26.339L115.79 26.3367L114.88 26.3299L114.788 27.2352C114.447 30.5758 114.105 37.7576 113.764 45.1184C113.746 45.502 113.728 45.8861 113.71 46.2702C113.385 53.286 113.059 60.3132 112.733 64.3094Z" fill="#FF90E8" stroke="black" stroke-width="2"/>
<path d="M32.9963 103.739C33.3929 75.9068 33.6069 46.7434 33.6048 20.8232C40.5133 21.1612 46.0011 22.6778 49.7807 25.514C53.6903 28.4478 55.8994 32.8898 55.8523 39.3041C55.8016 46.2144 52.4541 49.9892 48.838 51.699L48.2701 51.9675L48.2655 52.5957L48.2631 52.9325L48.259 53.4935L48.7356 53.7894C51.0468 55.2242 52.9623 57.8497 54.2909 61.685C55.6179 65.5159 56.3321 70.482 56.2882 76.4691C56.2194 85.8585 53.8547 92.6039 49.7343 97.0219C45.8089 101.231 40.1632 103.463 32.9963 103.739ZM40.7905 92.047L40.7761 94.0107L42.3727 92.8673C46.2723 90.0748 49.1169 85.0305 49.1859 75.6158C49.2292 69.7187 48.5729 65.4682 47.3991 62.5223C46.2164 59.5541 44.4666 57.8245 42.322 57.1921L41.0609 56.8202L41.0393 58.1348C40.9172 65.5575 40.8839 73.1861 40.8508 80.7739C40.8343 84.5518 40.8179 88.3197 40.7905 92.047ZM41.1083 48.7139L41.0992 49.958L42.3161 49.6994C44.078 49.325 45.6974 48.3267 46.8692 46.6491C48.0348 44.9804 48.7189 42.698 48.7401 39.7979C48.7567 37.539 48.3164 35.5761 47.2675 34.0147C46.2076 32.4369 44.5994 31.3778 42.4953 30.8049L41.2421 30.4637L41.2326 31.7624L41.1083 48.7139Z" fill="#FF90E8" stroke="black" stroke-width="2"/>
</svg>
