<svg width="340" height="232" viewBox="0 0 340 232" fill="none" xmlns="http://www.w3.org/2000/svg">
<path d="M6.18584 63.0117C21.1999 16.6133 70.9845 -8.8287 117.383 6.18535L276.874 57.7952C323.273 72.8093 348.715 122.594 333.701 168.992C318.687 215.391 268.902 240.833 222.504 225.819L63.0122 174.209C16.6138 159.195 -8.82821 109.41 6.18584 63.0117Z" fill="#FF90E8" stroke="black" stroke-width="2" stroke-miterlimit="10"/>
<path d="M96.1089 32.3638L92.1123 43.3008C89.1151 42.1553 86.7461 41.2832 84.7719 40.561C84.4729 40.4517 84.1833 40.3458 83.9021 40.2431C82.131 39.596 80.6959 39.0717 79.3806 38.5587L78.4286 38.1873L78.0779 39.1471C76.949 42.2365 75.7478 45.4151 74.5127 48.6838L74.4137 48.9457C73.1444 52.3048 71.8408 55.7576 70.5483 59.2945L70.1873 60.2825L71.1923 60.5932C73.4771 61.2994 75.9152 62.0857 78.1154 62.7953C80.352 63.5167 82.3426 64.1587 83.6761 64.5565L79.5474 75.8549C76.8667 74.8089 71.7237 72.946 67.0141 71.3521L66.0962 71.0415L65.7569 71.9491C58.4978 91.3636 50.8318 112.335 44.0821 131.678L31.7152 127.493C41.1328 102.594 57.5755 57.5935 69.7353 23.4381L96.1089 32.3638ZM159.851 53.9361C152.723 72.1558 137.616 113.949 125.752 146.863L125.406 147.822L126.372 148.149C129.388 149.17 132.818 150.197 136.545 151.192L132.721 161.656C126.176 159.295 118.024 156.409 109.196 153.683C118.371 130.277 140.281 69.4704 147.198 49.6541L159.851 53.9361ZM187.61 63.3306C180.482 81.5504 165.375 123.343 153.511 156.257L153.166 157.217L154.132 157.543C157.147 158.564 160.577 159.591 164.304 160.586L160.481 171.05C153.935 168.69 145.783 165.803 136.955 163.078C146.13 139.672 168.04 78.865 174.957 59.0486L187.61 63.3306ZM314.049 106.122C298.402 135.905 275.474 183.12 264.347 206.223L247.762 200.61C250.314 190.915 254.717 175.32 259.317 159.181L259.32 159.173C264.436 140.598 269.695 122.546 273.285 110.434L273.559 109.511L272.647 109.202L272.052 109.001L271.14 108.693L270.797 109.591C266.943 119.682 261.202 133.11 253.569 149.88L253.566 149.887C246.406 165.93 236.515 186.432 232.066 195.298L214.443 189.334C220.861 166.639 237.288 108.067 243.569 82.2688L255.283 86.2332C253.265 92.4335 249.708 105.776 244.736 124.424C243.539 128.911 242.261 133.706 240.903 138.782C238.137 148.88 234.667 160.622 231.635 170.88C230.833 173.593 230.061 176.203 229.342 178.651L229.071 179.572L229.981 179.88L230.725 180.132L231.6 180.428L231.964 179.579C236.484 169.043 242.838 154.397 247.989 143.952L247.993 143.944L247.997 143.936C253.225 132.836 257.525 123.13 261.372 114.433L261.625 113.86C265.227 105.717 268.433 98.4693 271.648 91.7716L284.666 96.1774C282.249 105.651 280.396 113.084 277.755 123.67C276.303 129.495 274.612 136.274 272.458 144.874C269.581 155.945 263.855 175.729 259.999 189.03L259.732 189.949L260.638 190.256L261.234 190.457L262.095 190.749L262.467 189.919C264.32 185.784 266.153 181.597 267.987 177.406C271.549 169.269 275.119 161.113 278.865 153.277L278.87 153.266C281.665 147.233 283.979 141.95 286.495 136.206C290.362 127.378 294.707 117.459 302.013 102.048L314.049 106.122ZM82.698 86.1528C88.8551 69.3035 95.2132 56.4825 101.771 48.4963C108.329 40.5096 114.857 37.5979 121.492 39.8432C124.819 40.9692 127.23 43.0588 128.825 46.0822C130.435 49.1345 131.237 53.1881 131.216 58.2441C131.173 68.3675 127.832 82.2046 121.597 99.2668C115.312 116.467 108.815 129.44 102.187 137.503C95.5535 145.573 89.025 148.476 82.5453 146.283C79.2641 145.172 76.8809 143.069 75.3058 140.004C73.7155 136.908 72.9296 132.789 72.9672 127.657C73.0425 117.383 76.4122 103.354 82.698 86.1528ZM95.7019 90.503C90.3773 105.074 87.1696 116.028 85.6297 123.474C84.8614 127.19 84.4984 130.078 84.5101 132.124C84.516 133.141 84.614 134.015 84.8381 134.697C85.0559 135.361 85.4665 136.051 86.2397 136.313C87.0024 136.571 87.7514 136.286 88.3401 135.908C88.9505 135.516 89.5905 134.899 90.2555 134.11C91.5928 132.525 93.1869 130.056 95.0042 126.696C98.6459 119.962 103.269 109.488 108.593 94.9166C113.892 80.417 116.985 69.7779 118.415 62.6274C119.129 59.0604 119.439 56.3117 119.385 54.366C119.359 53.3981 119.241 52.5643 118.998 51.9088C118.757 51.2596 118.33 50.6282 117.591 50.3782C116.861 50.1311 116.135 50.3622 115.539 50.7153C114.932 51.0747 114.303 51.6482 113.654 52.3855C112.35 53.8669 110.806 56.1947 109.042 59.4064C105.508 65.8435 101 76.0032 95.7019 90.503ZM182.544 119.944C188.701 103.094 195.059 90.2734 201.616 82.2872C208.174 74.3005 214.703 71.3887 221.337 73.6341C224.665 74.7601 227.076 76.8497 228.67 79.8731C230.28 82.9254 231.083 86.979 231.062 92.035C231.019 102.158 227.678 115.995 221.443 133.058C215.158 150.258 208.661 163.231 202.033 171.294C195.399 179.364 188.871 182.266 182.391 180.073C179.11 178.963 176.727 176.86 175.151 173.795C173.561 170.699 172.775 166.58 172.813 161.447C172.888 151.174 176.258 137.145 182.544 119.944ZM195.547 124.294C190.223 138.865 187.015 149.819 185.475 157.265C184.707 160.981 184.344 163.869 184.356 165.915C184.362 166.932 184.46 167.806 184.684 168.488C184.901 169.152 185.312 169.842 186.085 170.103C186.848 170.362 187.597 170.077 188.186 169.699C188.796 169.307 189.436 168.69 190.101 167.901C191.438 166.316 193.032 163.847 194.85 160.487C198.491 153.753 203.114 143.279 208.439 128.707C213.737 114.208 216.83 103.569 218.261 96.4183C218.974 92.8512 219.285 90.1026 219.231 88.1568C219.204 87.189 219.086 86.3552 218.843 85.6997C218.603 85.0504 218.175 84.4191 217.436 84.169C216.706 83.922 215.981 84.153 215.385 84.5062C214.778 84.8655 214.149 85.4391 213.5 86.1764C212.196 87.6577 210.651 89.9856 208.888 93.1973C205.354 99.6344 200.846 109.794 195.547 124.294Z" fill="#FF90E8" stroke="black" stroke-width="2"/>
</svg>
