<svg width="640" height="360" viewBox="0 0 640 360" fill="none" xmlns="http://www.w3.org/2000/svg">
<g clip-path="url(#clip0_1511_19149)">
<rect width="640" height="360" fill="white"/>
<rect width="641.444" height="360" fill="black"/>
<circle cx="-3.05603" cy="336.845" r="112.22" fill="#90A8ED" stroke="black" stroke-width="2"/>
<circle cx="563.877" cy="131.455" r="69.646" fill="#23A094"/>
<path d="M561.78 73.0172C561.744 72.3905 562.273 71.8652 562.891 71.7638C570.406 70.5428 577.64 73.7913 579.488 79.3391C581.244 84.6013 574.857 85.1404 569.743 82.3619C565.868 80.2607 562.038 77.2932 561.78 73.0172Z" stroke="black" stroke-width="2" stroke-miterlimit="10"/>
<path d="M551.657 81.5938L553.717 83.4645" stroke="black" stroke-width="2" stroke-miterlimit="10" stroke-linecap="round" stroke-linejoin="round"/>
<path d="M577.028 132.219L578.567 134.541" stroke="black" stroke-width="2" stroke-miterlimit="10" stroke-linecap="round" stroke-linejoin="round"/>
<path d="M568.245 151.418L570.07 153.519" stroke="black" stroke-width="2" stroke-miterlimit="10" stroke-linecap="round" stroke-linejoin="round"/>
<path d="M591.74 175.68L593.565 177.781" stroke="black" stroke-width="2" stroke-miterlimit="10" stroke-linecap="round" stroke-linejoin="round"/>
<path d="M599.762 166.457L600.804 167.65" stroke="black" stroke-width="2" stroke-miterlimit="10" stroke-linecap="round" stroke-linejoin="round"/>
<path d="M577.124 118.594L578.345 119.838" stroke="black" stroke-width="2" stroke-miterlimit="10" stroke-linecap="round" stroke-linejoin="round"/>
<path d="M568.964 74.8672L567.088 77.3278" stroke="black" stroke-width="2" stroke-miterlimit="10" stroke-linecap="round" stroke-linejoin="round"/>
<path d="M571.862 76.0977L570.457 78.4983" stroke="black" stroke-width="2" stroke-miterlimit="10" stroke-linecap="round" stroke-linejoin="round"/>
<path d="M574.323 77.5898L572.797 79.6403" stroke="black" stroke-width="2" stroke-miterlimit="10" stroke-linecap="round" stroke-linejoin="round"/>
<path d="M576.576 78.8203L575.143 80.493" stroke="black" stroke-width="2" stroke-miterlimit="10" stroke-linecap="round" stroke-linejoin="round"/>
<path d="M587.907 93.0517C588.948 91.8352 590.386 91.0242 591.938 90.651C599.988 88.7249 607.02 93.2959 608.701 98.9221C610.632 105.387 605.637 112.902 598.034 111.93C590.252 110.93 586.621 104.862 586.027 99.8068C585.649 96.5951 586.732 94.4248 587.907 93.0517Z" stroke="black" stroke-width="2" stroke-miterlimit="10"/>
<path d="M592.261 95.5859L590.819 97.3093" stroke="black" stroke-width="2" stroke-miterlimit="10" stroke-linecap="round" stroke-linejoin="round"/>
<path d="M597.947 93.2109L591.146 101.97" stroke="black" stroke-width="2" stroke-miterlimit="10" stroke-linecap="round" stroke-linejoin="round"/>
<path d="M600.974 95.0781L592.915 105.469" stroke="black" stroke-width="2" stroke-miterlimit="10" stroke-linecap="round" stroke-linejoin="round"/>
<path d="M603.352 98.0586L595.942 107.657" stroke="black" stroke-width="2" stroke-miterlimit="10" stroke-linecap="round" stroke-linejoin="round"/>
<path d="M604.702 101.551L600.089 107.656" stroke="black" stroke-width="2" stroke-miterlimit="10" stroke-linecap="round" stroke-linejoin="round"/>
<path d="M605.96 136.866C606.605 136.621 607.291 136.511 607.978 136.529C615.857 136.76 619.391 141.727 617.682 148.574C615.899 155.703 605.351 157.859 600.804 149.422C596.454 141.358 603.255 137.884 605.96 136.866Z" stroke="black" stroke-width="2" stroke-miterlimit="10"/>
<path d="M605.748 141.738L604.227 145.71" stroke="black" stroke-width="2" stroke-miterlimit="10" stroke-linecap="round" stroke-linejoin="round"/>
<path d="M610.738 141.738L609.116 146.443" stroke="black" stroke-width="2" stroke-miterlimit="10" stroke-linecap="round" stroke-linejoin="round"/>
<path d="M613.705 145.711L612.691 147.6" stroke="black" stroke-width="2" stroke-miterlimit="10" stroke-linecap="round" stroke-linejoin="round"/>
<path d="M522.186 94.9574C528.286 88.9903 536.802 89.193 547.058 93.082C557.315 96.9711 555.44 110.781 551.952 114.333C548.464 117.886 543.64 120.969 534.051 121.508C524.462 122.047 518.5 117.955 515.279 116.278C512.062 114.601 513.334 105.754 514.611 105.284C515.882 104.814 520.978 101.261 522.186 94.9574Z" stroke="black" stroke-width="2" stroke-miterlimit="10"/>
<path d="M531.023 95.8516C531.023 95.8516 524.176 106.012 520.476 110.426" stroke="black" stroke-width="2" stroke-miterlimit="10" stroke-linecap="round" stroke-linejoin="round"/>
<path d="M536.106 98.2266L525.338 112.469" stroke="black" stroke-width="2" stroke-miterlimit="10" stroke-linecap="round" stroke-linejoin="round"/>
<path d="M541.46 99.5469C541.46 99.5469 532.627 109.265 529.701 113.9" stroke="black" stroke-width="2" stroke-miterlimit="10" stroke-linecap="round" stroke-linejoin="round"/>
<path d="M545.602 99.7656L534.889 113.902" stroke="black" stroke-width="2" stroke-miterlimit="10" stroke-linecap="round" stroke-linejoin="round"/>
<path d="M547.81 104.297L541.073 112.854" stroke="black" stroke-width="2" stroke-miterlimit="10" stroke-linecap="round" stroke-linejoin="round"/>
<path d="M531.613 141.55C531.106 140.085 530.176 138.804 528.918 137.901C524.503 134.73 520.26 131.417 517.306 130.934C513.071 130.242 503.621 132.708 501.69 138.569C499.612 144.881 500.649 154.046 508.196 159.977C515.744 165.907 516.509 178.325 523.914 182.569C531.318 186.813 531.231 181.938 543.423 190.338C555.707 189.794 563.794 191.241 568.24 186.633C572.687 182.025 570.659 175.883 568.24 173.174C565.821 170.464 562.388 164.142 560.946 161.705C559.499 159.267 546.524 157.258 538.276 150.595C534.161 147.268 532.373 143.734 531.613 141.55Z" stroke="black" stroke-width="2" stroke-miterlimit="10"/>
<path d="M559.016 174.422L557.113 178.68" stroke="black" stroke-width="2" stroke-miterlimit="10" stroke-linecap="round" stroke-linejoin="round"/>
<path d="M555.21 170.07L551.496 179.586" stroke="black" stroke-width="2" stroke-miterlimit="10" stroke-linecap="round" stroke-linejoin="round"/>
<path d="M550.952 166.805L545.787 179.223" stroke="black" stroke-width="2" stroke-miterlimit="10" stroke-linecap="round" stroke-linejoin="round"/>
<path d="M546.782 164.723L540.165 178.68" stroke="black" stroke-width="2" stroke-miterlimit="10" stroke-linecap="round" stroke-linejoin="round"/>
<path d="M541.796 162.82L535.18 177.413" stroke="black" stroke-width="2" stroke-miterlimit="10" stroke-linecap="round" stroke-linejoin="round"/>
<path d="M536.995 161.281L528.475 177.413" stroke="black" stroke-width="2" stroke-miterlimit="10" stroke-linecap="round" stroke-linejoin="round"/>
<path d="M524.757 141.07L518.868 150.59" stroke="black" stroke-width="2" stroke-miterlimit="10" stroke-linecap="round" stroke-linejoin="round"/>
<path d="M518.868 139.895L511.256 151.856" stroke="black" stroke-width="2" stroke-miterlimit="10" stroke-linecap="round" stroke-linejoin="round"/>
<path d="M511.616 139.895L505.906 148.958" stroke="black" stroke-width="2" stroke-miterlimit="10" stroke-linecap="round" stroke-linejoin="round"/>
<path d="M525.75 170.564L514.875 156.127L527.5 152.501C536.5 145.751 555.302 132.278 557.812 130.439C561.312 127.876 562.938 126.689 564.562 128.438C565.789 129.759 565.875 131.501 561.875 134.751C558.675 137.351 541.167 152.251 532.5 159.001L525.75 170.564Z" fill="#F1F333" stroke="black" stroke-width="2"/>
<path d="M530.363 150.588L534.75 156.75M554.375 133L558 137.875" stroke="black" stroke-width="2"/>
<path d="M79.6226 260.019C75.1208 261.945 72.204 260.328 69.6237 258.899C69.0385 258.577 68.4902 258.272 67.9372 258.014C66.4259 257.153 64.5136 255.651 63.8732 253.324C63.3525 251.421 63.758 249.264 65.0758 246.914C70.2872 250.868 75.153 255.254 79.6226 260.019Z" fill="#23A094" stroke="black" stroke-width="2"/>
<path d="M64.168 246.23L65.1448 246.793C65.1218 246.834 65.0987 246.871 65.0757 246.912C64.7762 246.682 64.4721 246.456 64.168 246.23Z" fill="black"/>
<path d="M80.4518 260.918C80.1754 260.614 79.8989 260.319 79.6224 260.019C79.733 259.973 79.8528 259.922 79.968 259.867L80.4518 260.918Z" fill="black"/>
<path d="M53.0491 336.401C41.2277 333.774 36.5907 335.012 34.122 340.422C18.0428 341.274 24.4616 347.378 14.4148 350.619C19.6744 361.339 18.05 369.54 18.05 369.54H-13.3497V233.785V233.227C-0.16156 233.227 -0.55513 240.204 0.210543 242.451C1.34116 245.778 3.08718 251.331 8.37533 254.565C15.2878 258.795 14.5866 265.278 15.7172 272.083C16.6475 277.672 25.95 290.159 32.791 274.652C37.6712 263.589 39.9897 250.465 42.8878 250.014C45.1491 249.657 45.514 249.199 43.9469 263.36C43.2528 269.672 40.7196 270.953 40.6123 276.899C40.4978 282.839 45.9434 281.028 39.4888 286.824C36.2973 289.021 35.7964 297.172 41.6284 302.789C41.0703 304.206 29.943 315.462 47.6393 321.874C44.7841 328.365 45.0131 333.002 53.0491 336.401Z" fill="#23A094" stroke="black" stroke-width="2"/>
<path d="M444.904 266.424C445.517 266.424 446.015 265.927 446.015 265.314C446.015 264.7 445.517 264.203 444.904 264.203C444.291 264.203 443.794 264.7 443.794 265.314C443.794 265.927 444.291 266.424 444.904 266.424Z" fill="#FBFBF9"/>
<path d="M127.548 43.4319C128.161 43.4319 128.658 42.9347 128.658 42.3214C128.658 41.7081 128.161 41.2109 127.548 41.2109C126.935 41.2109 126.437 41.7081 126.437 42.3214C126.437 42.9347 126.935 43.4319 127.548 43.4319Z" fill="#FBFBF9"/>
<path d="M477.288 281.777C478.598 281.777 479.661 280.715 479.661 279.404C479.661 278.094 478.598 277.031 477.288 277.031C475.977 277.031 474.915 278.094 474.915 279.404C474.915 280.715 475.977 281.777 477.288 281.777Z" fill="#FBFBF9"/>
<path d="M159.931 58.7851C161.242 58.7851 162.304 57.7227 162.304 56.4121C162.304 55.1015 161.242 54.0391 159.931 54.0391C158.621 54.0391 157.558 55.1015 157.558 56.4121C157.558 57.7227 158.621 58.7851 159.931 58.7851Z" fill="#FBFBF9"/>
<path d="M462.879 253.039C463.447 253.039 463.907 252.579 463.907 252.012C463.907 251.444 463.447 250.984 462.879 250.984C462.312 250.984 461.852 251.444 461.852 252.012C461.852 252.579 462.312 253.039 462.879 253.039Z" fill="#FBFBF9"/>
<path d="M145.523 30.0434C146.09 30.0434 146.55 29.5833 146.55 29.0158C146.55 28.4483 146.09 27.9883 145.523 27.9883C144.955 27.9883 144.495 28.4483 144.495 29.0158C144.495 29.5833 144.955 30.0434 145.523 30.0434Z" fill="#FBFBF9"/>
<path d="M484.808 257.795C485.421 257.795 485.918 257.298 485.918 256.685C485.918 256.071 485.421 255.574 484.808 255.574C484.194 255.574 483.697 256.071 483.697 256.685C483.697 257.298 484.194 257.795 484.808 257.795Z" fill="#FBFBF9"/>
<path d="M167.451 34.7991C168.064 34.7991 168.562 34.3019 168.562 33.6886C168.562 33.0753 168.064 32.5781 167.451 32.5781C166.838 32.5781 166.341 33.0753 166.341 33.6886C166.341 34.3019 166.838 34.7991 167.451 34.7991Z" fill="#FBFBF9"/>
<path d="M484.176 230.48C484.876 230.48 485.443 229.912 485.443 229.212C485.443 228.513 484.876 227.945 484.176 227.945C483.476 227.945 482.909 228.513 482.909 229.212C482.909 229.912 483.476 230.48 484.176 230.48Z" fill="#FBFBF9"/>
<path d="M166.82 7.48354C167.52 7.48354 168.087 6.91621 168.087 6.21638C168.087 5.51654 167.52 4.94922 166.82 4.94922C166.12 4.94922 165.553 5.51654 165.553 6.21638C165.553 6.91621 166.12 7.48354 166.82 7.48354Z" fill="#FBFBF9"/>
<path d="M516.08 220.583C517.348 220.583 518.375 220.105 518.375 219.514C518.375 218.924 517.348 218.445 516.08 218.445C514.813 218.445 513.786 218.924 513.786 219.514C513.786 220.105 514.813 220.583 516.08 220.583Z" fill="#FBFBF9"/>
<path d="M539.672 232.929C540.372 232.929 540.939 232.362 540.939 231.662C540.939 230.962 540.372 230.395 539.672 230.395C538.972 230.395 538.405 230.962 538.405 231.662C538.405 232.362 538.972 232.929 539.672 232.929Z" fill="#FBFBF9"/>
<path d="M222.316 9.93274C223.016 9.93274 223.583 9.36542 223.583 8.66559C223.583 7.96576 223.016 7.39844 222.316 7.39844C221.616 7.39844 221.049 7.96576 221.049 8.66559C221.049 9.36542 221.616 9.93274 222.316 9.93274Z" fill="#FBFBF9"/>
<path d="M530.885 251.974C531.476 251.974 531.954 251.495 531.954 250.905C531.954 250.315 531.476 249.836 530.885 249.836C530.295 249.836 529.816 250.315 529.816 250.905C529.816 251.495 530.295 251.974 530.885 251.974Z" fill="#FBFBF9"/>
<path d="M213.529 28.9818C214.119 28.9818 214.598 28.5032 214.598 27.9128C214.598 27.3224 214.119 26.8438 213.529 26.8438C212.938 26.8438 212.46 27.3224 212.46 27.9128C212.46 28.5032 212.938 28.9818 213.529 28.9818Z" fill="#FBFBF9"/>
<path d="M544.741 258.346C545.397 258.346 545.93 257.814 545.93 257.158C545.93 256.501 545.397 255.969 544.741 255.969C544.084 255.969 543.552 256.501 543.552 257.158C543.552 257.814 544.084 258.346 544.741 258.346Z" fill="#FBFBF9"/>
<path d="M227.384 35.3542C228.041 35.3542 228.573 34.822 228.573 34.1654C228.573 33.5088 228.041 32.9766 227.384 32.9766C226.728 32.9766 226.196 33.5088 226.196 34.1654C226.196 34.822 226.728 35.3542 227.384 35.3542Z" fill="#FBFBF9"/>
<path d="M574.272 219.08C574.885 219.08 575.383 218.583 575.383 217.97C575.383 217.357 574.885 216.859 574.272 216.859C573.659 216.859 573.162 217.357 573.162 217.97C573.162 218.583 573.659 219.08 574.272 219.08Z" fill="#FBFBF9"/>
<path d="M600.398 227.193C600.989 227.193 601.467 226.714 601.467 226.124C601.467 225.533 600.989 225.055 600.398 225.055C599.808 225.055 599.329 225.533 599.329 226.124C599.329 226.714 599.808 227.193 600.398 227.193Z" fill="#FBFBF9"/>
<path d="M583.12 264.274C583.335 263.441 582.289 262.452 580.786 262.066C579.282 261.679 577.89 262.041 577.676 262.874C577.462 263.707 578.507 264.696 580.011 265.082C581.514 265.469 582.906 265.107 583.12 264.274Z" fill="#FBFBF9"/>
<path d="M629.316 240.864C630.658 240.864 631.745 239.777 631.745 238.436C631.745 237.095 630.658 236.008 629.316 236.008C627.975 236.008 626.888 237.095 626.888 238.436C626.888 239.777 627.975 240.864 629.316 240.864Z" fill="#FBFBF9"/>
<path d="M612.245 259.055C612.896 259.055 613.424 258.526 613.424 257.875C613.424 257.223 612.896 256.695 612.245 256.695C611.593 256.695 611.065 257.223 611.065 257.875C611.065 258.526 611.593 259.055 612.245 259.055Z" fill="#FBFBF9"/>
<path d="M600.186 283.499C600.878 283.499 601.44 282.938 601.44 282.246C601.44 281.553 600.878 280.992 600.186 280.992C599.494 280.992 598.933 281.553 598.933 282.246C598.933 282.938 599.494 283.499 600.186 283.499Z" fill="#FBFBF9"/>
<path d="M632.837 290.171C634.26 290.171 635.413 289.018 635.413 287.595C635.413 286.173 634.26 285.02 632.837 285.02C631.414 285.02 630.261 286.173 630.261 287.595C630.261 289.018 631.414 290.171 632.837 290.171Z" fill="#FBFBF9"/>
<path d="M584.847 309.447C585.409 309.447 585.865 308.991 585.865 308.428C585.865 307.866 585.409 307.41 584.847 307.41C584.285 307.41 583.829 307.866 583.829 308.428C583.829 308.991 584.285 309.447 584.847 309.447Z" fill="#FBFBF9"/>
<path d="M615.083 310.707C615.778 310.707 616.341 310.144 616.341 309.449C616.341 308.755 615.778 308.191 615.083 308.191C614.388 308.191 613.825 308.755 613.825 309.449C613.825 310.144 614.388 310.707 615.083 310.707Z" fill="#FBFBF9"/>
<path d="M634.666 310.38C635.384 310.38 635.966 309.798 635.966 309.081C635.966 308.363 635.384 307.781 634.666 307.781C633.949 307.781 633.367 308.363 633.367 309.081C633.367 309.798 633.949 310.38 634.666 310.38Z" fill="#FBFBF9"/>
<path d="M624.266 197.774C624.834 197.774 625.294 197.314 625.294 196.746C625.294 196.179 624.834 195.719 624.266 195.719C623.699 195.719 623.239 196.179 623.239 196.746C623.239 197.314 623.699 197.774 624.266 197.774Z" fill="#FBFBF9"/>
<path d="M640.49 89.9828C641.139 89.9828 641.665 89.4567 641.665 88.8078C641.665 88.1589 641.139 87.6328 640.49 87.6328C639.842 87.6328 639.315 88.1589 639.315 88.8078C639.315 89.4567 639.842 89.9828 640.49 89.9828Z" fill="#FBFBF9"/>
<path d="M632.072 84.7531C632.772 84.7531 633.339 84.1857 633.339 83.4859C633.339 82.7861 632.772 82.2188 632.072 82.2188C631.372 82.2188 630.805 82.7861 630.805 83.4859C630.805 84.1857 631.372 84.7531 632.072 84.7531Z" fill="#FBFBF9"/>
<path d="M639.993 65.341C640.71 65.341 641.292 64.7592 641.292 64.0416C641.292 63.324 640.71 62.7422 639.993 62.7422C639.275 62.7422 638.693 63.324 638.693 64.0416C638.693 64.7592 639.275 65.341 639.993 65.341Z" fill="#FBFBF9"/>
<path d="M618.511 62.3428C619.076 62.3428 619.534 61.8848 619.534 61.3198C619.534 60.7549 619.076 60.2969 618.511 60.2969C617.946 60.2969 617.488 60.7549 617.488 61.3198C617.488 61.8848 617.946 62.3428 618.511 62.3428Z" fill="#FBFBF9"/>
<path d="M521.066 277.033C521.969 277.033 522.702 276.301 522.702 275.398C522.702 274.494 521.969 273.762 521.066 273.762C520.163 273.762 519.43 274.494 519.43 275.398C519.43 276.301 520.163 277.033 521.066 277.033Z" fill="#FBFBF9"/>
<path d="M516.458 294.914C517.201 294.914 517.804 294.311 517.804 293.568C517.804 292.825 517.201 292.223 516.458 292.223C515.715 292.223 515.113 292.825 515.113 293.568C515.113 294.311 515.715 294.914 516.458 294.914Z" fill="#FBFBF9"/>
<path d="M511.763 308.435C512.58 308.435 513.242 307.773 513.242 306.956C513.242 306.139 512.58 305.477 511.763 305.477C510.946 305.477 510.284 306.139 510.284 306.956C510.284 307.773 510.946 308.435 511.763 308.435Z" fill="#FBFBF9"/>
<path d="M471.251 310.436C471.971 310.436 472.555 309.852 472.555 309.132C472.555 308.412 471.971 307.828 471.251 307.828C470.531 307.828 469.947 308.412 469.947 309.132C469.947 309.852 470.531 310.436 471.251 310.436Z" fill="#FBFBF9"/>
<path d="M450.452 296.314C451.022 296.314 451.484 295.852 451.484 295.282C451.484 294.712 451.022 294.25 450.452 294.25C449.882 294.25 449.42 294.712 449.42 295.282C449.42 295.852 449.882 296.314 450.452 296.314Z" fill="#FBFBF9"/>
<path d="M434.048 312.026C434.45 312.026 434.776 311.7 434.776 311.298C434.776 310.896 434.45 310.57 434.048 310.57C433.646 310.57 433.32 310.896 433.32 311.298C433.32 311.7 433.646 312.026 434.048 312.026Z" fill="#FBFBF9"/>
<path d="M431.905 294.039C432.613 294.039 433.186 293.465 433.186 292.758C433.186 292.05 432.613 291.477 431.905 291.477C431.198 291.477 430.625 292.05 430.625 292.758C430.625 293.465 431.198 294.039 431.905 294.039Z" fill="#FBFBF9"/>
<path d="M395.103 306.909C395.661 306.909 396.112 306.457 396.112 305.9C396.112 305.342 395.661 304.891 395.103 304.891C394.546 304.891 394.094 305.342 394.094 305.9C394.094 306.457 394.546 306.909 395.103 306.909Z" fill="#FBFBF9"/>
<path d="M369.203 292.716C370.147 292.716 370.912 291.951 370.912 291.006C370.912 290.062 370.147 289.297 369.203 289.297C368.259 289.297 367.493 290.062 367.493 291.006C367.493 291.951 368.259 292.716 369.203 292.716Z" fill="#FBFBF9"/>
<path d="M367.765 267.122C368.333 267.122 368.793 266.661 368.793 266.094C368.793 265.526 368.333 265.066 367.765 265.066C367.198 265.066 366.738 265.526 366.738 266.094C366.738 266.661 367.198 267.122 367.765 267.122Z" fill="#FBFBF9"/>
<path d="M340.865 294.571C341.659 294.571 342.303 293.927 342.303 293.133C342.303 292.339 341.659 291.695 340.865 291.695C340.071 291.695 339.427 292.339 339.427 293.133C339.427 293.927 340.071 294.571 340.865 294.571Z" fill="#FBFBF9"/>
<path d="M355.048 232.938C356.165 232.938 357.07 232.53 357.07 232.026C357.07 231.522 356.165 231.113 355.048 231.113C353.931 231.113 353.025 231.522 353.025 232.026C353.025 232.53 353.931 232.938 355.048 232.938Z" fill="#FBFBF9"/>
<path d="M259.063 242.531C259.636 242.531 260.1 242.066 260.1 241.494C260.1 240.921 259.636 240.457 259.063 240.457C258.491 240.457 258.026 240.921 258.026 241.494C258.026 242.066 258.491 242.531 259.063 242.531Z" fill="#FBFBF9"/>
<path d="M242.586 272.442C243.131 271.312 242.916 270.079 242.104 269.688C241.293 269.296 240.193 269.895 239.648 271.024C239.103 272.154 239.319 273.388 240.13 273.779C240.941 274.171 242.041 273.572 242.586 272.442Z" fill="#FBFBF9"/>
<path d="M257.579 269.161C258.233 269.161 258.764 268.631 258.764 267.977C258.764 267.323 258.233 266.793 257.579 266.793C256.925 266.793 256.395 267.323 256.395 267.977C256.395 268.631 256.925 269.161 257.579 269.161Z" fill="#FBFBF9"/>
<path d="M237.789 296.988C238.448 296.988 238.982 296.454 238.982 295.795C238.982 295.136 238.448 294.602 237.789 294.602C237.13 294.602 236.596 295.136 236.596 295.795C236.596 296.454 237.13 296.988 237.789 296.988Z" fill="#FBFBF9"/>
<path d="M224.104 285.265C224.684 285.265 225.155 284.795 225.155 284.215C225.155 283.634 224.684 283.164 224.104 283.164C223.524 283.164 223.053 283.634 223.053 284.215C223.053 284.795 223.524 285.265 224.104 285.265Z" fill="#FBFBF9"/>
<path d="M219.395 304.854C219.96 304.854 220.418 304.396 220.418 303.831C220.418 303.267 219.96 302.809 219.395 302.809C218.83 302.809 218.372 303.267 218.372 303.831C218.372 304.396 218.83 304.854 219.395 304.854Z" fill="#FBFBF9"/>
<path d="M266.763 297.152C267.236 297.152 267.62 296.768 267.62 296.295C267.62 295.821 267.236 295.438 266.763 295.438C266.289 295.438 265.906 295.821 265.906 296.295C265.906 296.768 266.289 297.152 266.763 297.152Z" fill="#FBFBF9"/>
<path d="M272.804 306.541C273.353 306.541 273.799 306.096 273.799 305.546C273.799 304.996 273.353 304.551 272.804 304.551C272.254 304.551 271.808 304.996 271.808 305.546C271.808 306.096 272.254 306.541 272.804 306.541Z" fill="#FBFBF9"/>
<path d="M129.465 309.865C130.035 309.865 130.497 309.403 130.497 308.833C130.497 308.263 130.035 307.801 129.465 307.801C128.895 307.801 128.433 308.263 128.433 308.833C128.433 309.403 128.895 309.865 129.465 309.865Z" fill="#FBFBF9"/>
<path d="M158.931 301.945C159.654 301.945 160.24 301.36 160.24 300.637C160.24 299.914 159.654 299.328 158.931 299.328C158.209 299.328 157.623 299.914 157.623 300.637C157.623 301.36 158.209 301.945 158.931 301.945Z" fill="#FBFBF9"/>
<path d="M155.231 288.77C155.857 288.77 156.365 287.959 156.365 286.959C156.365 285.959 155.857 285.148 155.231 285.148C154.605 285.148 154.098 285.959 154.098 286.959C154.098 287.959 154.605 288.77 155.231 288.77Z" fill="#FBFBF9"/>
<path d="M164.06 271.122C164.643 271.122 165.115 270.65 165.115 270.067C165.115 269.484 164.643 269.012 164.06 269.012C163.477 269.012 163.005 269.484 163.005 270.067C163.005 270.65 163.477 271.122 164.06 271.122Z" fill="#FBFBF9"/>
<path d="M438.628 64.8397C439.394 64.8397 440.015 63.8061 440.015 62.5312C440.015 61.2562 439.394 60.2227 438.628 60.2227C437.862 60.2227 437.241 61.2562 437.241 62.5312C437.241 63.8061 437.862 64.8397 438.628 64.8397Z" fill="#FBFBF9"/>
<path d="M470.344 66.7292C471 66.7292 471.532 66.197 471.532 65.5404C471.532 64.8838 471 64.3516 470.344 64.3516C469.687 64.3516 469.155 64.8838 469.155 65.5404C469.155 66.197 469.687 66.7292 470.344 66.7292Z" fill="#FBFBF9"/>
<path d="M491.728 76.0844C492.576 76.0844 493.263 75.3975 493.263 74.55C493.263 73.7026 492.576 73.0156 491.728 73.0156C490.881 73.0156 490.194 73.7026 490.194 74.55C490.194 75.3975 490.881 76.0844 491.728 76.0844Z" fill="#FBFBF9"/>
<path d="M466.114 95.0903C466.78 95.0903 467.321 94.5498 467.321 93.883C467.321 93.2163 466.78 92.6758 466.114 92.6758C465.447 92.6758 464.906 93.2163 464.906 93.883C464.906 94.5498 465.447 95.0903 466.114 95.0903Z" fill="#FBFBF9"/>
<path d="M438.628 90.2505C439.394 90.2505 440.015 89.6295 440.015 88.8635C440.015 88.0975 439.394 87.4766 438.628 87.4766C437.862 87.4766 437.241 88.0975 437.241 88.8635C437.241 89.6295 437.862 90.2505 438.628 90.2505Z" fill="#FBFBF9"/>
<path d="M438.835 130.325C439.416 130.325 439.886 129.663 439.886 128.846C439.886 128.029 439.416 127.367 438.835 127.367C438.255 127.367 437.785 128.029 437.785 128.846C437.785 129.663 438.255 130.325 438.835 130.325Z" fill="#FBFBF9"/>
<path d="M480.877 123.359C481.429 123.359 481.877 122.912 481.877 122.359C481.877 121.807 481.429 121.359 480.877 121.359C480.325 121.359 479.877 121.807 479.877 122.359C479.877 122.912 480.325 123.359 480.877 123.359Z" fill="#FBFBF9"/>
<path d="M463.091 146.808C463.727 146.808 464.243 146.292 464.243 145.656C464.243 145.02 463.727 144.504 463.091 144.504C462.455 144.504 461.939 145.02 461.939 145.656C461.939 146.292 462.455 146.808 463.091 146.808Z" fill="#FBFBF9"/>
<path d="M454.571 170.263C455.042 170.263 455.424 169.882 455.424 169.411C455.424 168.94 455.042 168.559 454.571 168.559C454.1 168.559 453.719 168.94 453.719 169.411C453.719 169.882 454.1 170.263 454.571 170.263Z" fill="#FBFBF9"/>
<path d="M436.181 168.507C436.818 168.507 437.333 167.991 437.333 167.355C437.333 166.719 436.818 166.203 436.181 166.203C435.545 166.203 435.03 166.719 435.03 167.355C435.03 167.991 435.545 168.507 436.181 168.507Z" fill="#FBFBF9"/>
<path d="M430.334 207.156C430.942 207.156 431.435 206.663 431.435 206.054C431.435 205.446 430.942 204.953 430.334 204.953C429.726 204.953 429.233 205.446 429.233 206.054C429.233 206.663 429.726 207.156 430.334 207.156Z" fill="#FBFBF9"/>
<path d="M326.834 166.238C327.855 166.238 328.682 164.912 328.682 163.275C328.682 161.639 327.855 160.312 326.834 160.312C325.814 160.312 324.987 161.639 324.987 163.275C324.987 164.912 325.814 166.238 326.834 166.238Z" fill="#FBFBF9"/>
<path d="M329.378 136.824C330.1 136.824 330.686 136.238 330.686 135.516C330.686 134.793 330.1 134.207 329.378 134.207C328.655 134.207 328.069 134.793 328.069 135.516C328.069 136.238 328.655 136.824 329.378 136.824Z" fill="#FBFBF9"/>
<path d="M355.905 107.406C356.946 107.406 357.789 106.286 357.789 104.904C357.789 103.523 356.946 102.402 355.905 102.402C354.864 102.402 354.02 103.523 354.02 104.904C354.02 106.286 354.864 107.406 355.905 107.406Z" fill="#FBFBF9"/>
<path d="M333.073 103.864C333.669 103.864 334.151 103.381 334.151 102.785C334.151 102.19 333.669 101.707 333.073 101.707C332.478 101.707 331.995 102.19 331.995 102.785C331.995 103.381 332.478 103.864 333.073 103.864Z" fill="#FBFBF9"/>
<path d="M311.011 113.184C311.798 113.184 312.435 112.184 312.435 110.95C312.435 109.715 311.798 108.715 311.011 108.715C310.225 108.715 309.587 109.715 309.587 110.95C309.587 112.184 310.225 113.184 311.011 113.184Z" fill="#FBFBF9"/>
<path d="M351.555 91.0037C352.107 91.0037 352.555 90.556 352.555 90.0038C352.555 89.4516 352.107 89.0039 351.555 89.0039C351.003 89.0039 350.555 89.4516 350.555 90.0038C350.555 90.556 351.003 91.0037 351.555 91.0037Z" fill="#FBFBF9"/>
<path d="M54.0425 34.1795C54.5948 34.1795 55.0424 33.7318 55.0424 33.1796C55.0424 32.6274 54.5948 32.1797 54.0425 32.1797C53.4903 32.1797 53.0426 32.6274 53.0426 33.1796C53.0426 33.7318 53.4903 34.1795 54.0425 34.1795Z" fill="#FBFBF9"/>
<path d="M367.033 83.1882C367.608 83.1882 368.074 82.722 368.074 82.1468C368.074 81.5717 367.608 81.1055 367.033 81.1055C366.457 81.1055 365.991 81.5717 365.991 82.1468C365.991 82.722 366.457 83.1882 367.033 83.1882Z" fill="#FBFBF9"/>
<path d="M69.52 26.364C70.0951 26.364 70.5613 25.8978 70.5613 25.3226C70.5613 24.7475 70.0951 24.2812 69.52 24.2812C68.9449 24.2812 68.4786 24.7475 68.4786 25.3226C68.4786 25.8978 68.9449 26.364 69.52 26.364Z" fill="#FBFBF9"/>
<path d="M384.362 65.9774C384.874 65.9774 385.289 65.5627 385.289 65.0512C385.289 64.5397 384.874 64.125 384.362 64.125C383.851 64.125 383.436 64.5397 383.436 65.0512C383.436 65.5627 383.851 65.9774 384.362 65.9774Z" fill="#FBFBF9"/>
<path d="M86.8499 9.15313C87.3614 9.15313 87.776 8.73847 87.776 8.22696C87.776 7.71545 87.3614 7.30078 86.8499 7.30078C86.3383 7.30078 85.9237 7.71545 85.9237 8.22696C85.9237 8.73847 86.3383 9.15313 86.8499 9.15313Z" fill="#FBFBF9"/>
<path d="M341.16 68.0507C342.01 68.0507 342.699 67.3617 342.699 66.5117C342.699 65.6617 342.01 64.9727 341.16 64.9727C340.31 64.9727 339.621 65.6617 339.621 66.5117C339.621 67.3617 340.31 68.0507 341.16 68.0507Z" fill="#FBFBF9"/>
<path d="M43.6473 11.2265C44.4973 11.2265 45.1863 10.5374 45.1863 9.68746C45.1863 8.83748 44.4973 8.14844 43.6473 8.14844C42.7973 8.14844 42.1083 8.83748 42.1083 9.68746C42.1083 10.5374 42.7973 11.2265 43.6473 11.2265Z" fill="#FBFBF9"/>
<path d="M301.04 84.3747C301.719 84.3747 302.27 83.8238 302.27 83.1444C302.27 82.4649 301.719 81.9141 301.04 81.9141C300.36 81.9141 299.81 82.4649 299.81 83.1444C299.81 83.8238 300.36 84.3747 301.04 84.3747Z" fill="#FBFBF9"/>
<path d="M3.5273 27.5543C4.20676 27.5543 4.75757 27.0035 4.75757 26.324C4.75757 25.6446 4.20676 25.0938 3.5273 25.0938C2.84783 25.0938 2.297 25.6446 2.297 26.324C2.297 27.0035 2.84783 27.5543 3.5273 27.5543Z" fill="#FBFBF9"/>
<path d="M265.076 80.3752C265.672 80.3752 266.155 79.8925 266.155 79.297C266.155 78.7015 265.672 78.2188 265.076 78.2188C264.481 78.2188 263.998 78.7015 263.998 79.297C263.998 79.8925 264.481 80.3752 265.076 80.3752Z" fill="#FBFBF9"/>
<path d="M232.038 90.8518C232.634 90.8518 233.117 90.369 233.117 89.7735C233.117 89.1781 232.634 88.6953 232.038 88.6953C231.443 88.6953 230.96 89.1781 230.96 89.7735C230.96 90.369 231.443 90.8518 232.038 90.8518Z" fill="#FBFBF9"/>
<path d="M232.734 67.9031C233.246 67.9031 233.66 67.4885 233.66 66.977C233.66 66.4654 233.246 66.0508 232.734 66.0508C232.223 66.0508 231.808 66.4654 231.808 66.977C231.808 67.4885 232.223 67.9031 232.734 67.9031Z" fill="#FBFBF9"/>
<path d="M256.372 116.805C257.138 116.805 257.759 116.184 257.759 115.418C257.759 114.652 257.138 114.031 256.372 114.031C255.606 114.031 254.985 114.652 254.985 115.418C254.985 116.184 255.606 116.805 256.372 116.805Z" fill="#FBFBF9"/>
<path d="M233.117 128.048C233.926 128.048 234.582 127.392 234.582 126.582C234.582 125.773 233.926 125.117 233.117 125.117C232.307 125.117 231.651 125.773 231.651 126.582C231.651 127.392 232.307 128.048 233.117 128.048Z" fill="#FBFBF9"/>
<path d="M201.083 136.442C201.679 136.442 202.162 135.493 202.162 134.323C202.162 133.152 201.679 132.203 201.083 132.203C200.488 132.203 200.005 133.152 200.005 134.323C200.005 135.493 200.488 136.442 201.083 136.442Z" fill="#FBFBF9"/>
<path d="M225.03 151.297C225.71 151.297 226.26 150.746 226.26 150.066C226.26 149.387 225.71 148.836 225.03 148.836C224.351 148.836 223.8 149.387 223.8 150.066C223.8 150.746 224.351 151.297 225.03 151.297Z" fill="#FBFBF9"/>
<path d="M220.874 178.524C221.406 178.524 221.837 178.093 221.837 177.561C221.837 177.029 221.406 176.598 220.874 176.598C220.342 176.598 219.911 177.029 219.911 177.561C219.911 178.093 220.342 178.524 220.874 178.524Z" fill="#FBFBF9"/>
<path d="M106.246 225.658C106.837 225.658 107.315 225.179 107.315 224.589C107.315 223.998 106.837 223.52 106.246 223.52C105.656 223.52 105.177 223.998 105.177 224.589C105.177 225.179 105.656 225.658 106.246 225.658Z" fill="#FBFBF9"/>
<path d="M96.1597 223.636C96.8519 223.636 97.413 223.074 97.413 222.382C97.413 221.69 96.8519 221.129 96.1597 221.129C95.4675 221.129 94.9064 221.69 94.9064 222.382C94.9064 223.074 95.4675 223.636 96.1597 223.636Z" fill="#FBFBF9"/>
<path d="M132.008 200.555C132.639 200.555 133.151 200.043 133.151 199.412C133.151 198.781 132.639 198.27 132.008 198.27C131.377 198.27 130.865 198.781 130.865 199.412C130.865 200.043 131.377 200.555 132.008 200.555Z" fill="#FBFBF9"/>
<path d="M129.285 184.469C129.855 184.469 130.317 183.728 130.317 182.814C130.317 181.901 129.855 181.16 129.285 181.16C128.715 181.16 128.253 181.901 128.253 182.814C128.253 183.728 128.715 184.469 129.285 184.469Z" fill="#FBFBF9"/>
<path d="M74.1483 208.877C74.8609 208.877 75.4385 208.3 75.4385 207.587C75.4385 206.875 74.8609 206.297 74.1483 206.297C73.4358 206.297 72.8582 206.875 72.8582 207.587C72.8582 208.3 73.4358 208.877 74.1483 208.877Z" fill="#FBFBF9"/>
<path d="M82.9077 171.59C83.7221 171.59 84.3822 170.929 84.3822 170.115C84.3822 169.301 83.7221 168.641 82.9077 168.641C82.0934 168.641 81.4332 169.301 81.4332 170.115C81.4332 170.929 82.0934 171.59 82.9077 171.59Z" fill="#FBFBF9"/>
<path d="M109.78 155.394C110.595 155.394 111.255 154.734 111.255 153.92C111.255 153.105 110.595 152.445 109.78 152.445C108.966 152.445 108.306 153.105 108.306 153.92C108.306 154.734 108.966 155.394 109.78 155.394Z" fill="#FBFBF9"/>
<path d="M117.065 131.47C117.839 131.47 118.466 130.842 118.466 130.069C118.466 129.295 117.839 128.668 117.065 128.668C116.292 128.668 115.664 129.295 115.664 130.069C115.664 130.842 116.292 131.47 117.065 131.47Z" fill="#FBFBF9"/>
<path d="M141.104 128.667C141.735 128.667 142.247 127.778 142.247 126.681C142.247 125.584 141.735 124.695 141.104 124.695C140.473 124.695 139.961 125.584 139.961 126.681C139.961 127.778 140.473 128.667 141.104 128.667Z" fill="#FBFBF9"/>
<path d="M188.343 103.541C189.005 103.541 189.541 103.004 189.541 102.343C189.541 101.681 189.005 101.145 188.343 101.145C187.681 101.145 187.145 101.681 187.145 102.343C187.145 103.004 187.681 103.541 188.343 103.541Z" fill="#FBFBF9"/>
<path d="M206.193 75.6036C206.791 75.6036 207.276 74.7392 207.276 73.6729C207.276 72.6066 206.791 71.7422 206.193 71.7422C205.595 71.7422 205.111 72.6066 205.111 73.6729C205.111 74.7392 205.595 75.6036 206.193 75.6036Z" fill="#FBFBF9"/>
<path d="M170.34 83.1374C170.915 83.1374 171.382 82.6712 171.382 82.0961C171.382 81.5209 170.915 81.0547 170.34 81.0547C169.765 81.0547 169.299 81.5209 169.299 82.0961C169.299 82.6712 169.765 83.1374 170.34 83.1374Z" fill="#FBFBF9"/>
<path d="M129.847 76.6108C130.572 76.6108 131.16 76.0229 131.16 75.2976C131.16 74.5723 130.572 73.9844 129.847 73.9844C129.122 73.9844 128.534 74.5723 128.534 75.2976C128.534 76.0229 129.122 76.6108 129.847 76.6108Z" fill="#FBFBF9"/>
<path d="M101.178 64.6332C101.646 64.6332 102.025 64.2536 102.025 63.7853C102.025 63.3171 101.646 62.9375 101.178 62.9375C100.709 62.9375 100.33 63.3171 100.33 63.7853C100.33 64.2536 100.709 64.6332 101.178 64.6332Z" fill="#FBFBF9"/>
<path d="M96.2703 89.2833C96.8887 89.2833 97.39 88.4705 97.39 87.4678C97.39 86.4652 96.8887 85.6523 96.2703 85.6523C95.6519 85.6523 95.1506 86.4652 95.1506 87.4678C95.1506 88.4705 95.6519 89.2833 96.2703 89.2833Z" fill="#FBFBF9"/>
<path d="M74.7519 93.5331C75.5204 93.5331 76.1434 92.9101 76.1434 92.1416C76.1434 91.373 75.5204 90.75 74.7519 90.75C73.9834 90.75 73.3604 91.373 73.3604 92.1416C73.3604 92.9101 73.9834 93.5331 74.7519 93.5331Z" fill="#FBFBF9"/>
<path d="M45.0364 79.0024C45.9118 79.0024 46.6214 78.1029 46.6214 76.9934C46.6214 75.8838 45.9118 74.9844 45.0364 74.9844C44.161 74.9844 43.4513 75.8838 43.4513 76.9934C43.4513 78.1029 44.161 79.0024 45.0364 79.0024Z" fill="#FBFBF9"/>
<path d="M80.4425 137.077C81.1983 137.077 81.811 136.464 81.811 135.708C81.811 134.953 81.1983 134.34 80.4425 134.34C79.6867 134.34 79.074 134.953 79.074 135.708C79.074 136.464 79.6867 137.077 80.4425 137.077Z" fill="#FBFBF9"/>
<path d="M41.1013 140.162C42.0251 140.162 42.774 139.166 42.774 137.937C42.774 136.707 42.0251 135.711 41.1013 135.711C40.1776 135.711 39.4287 136.707 39.4287 137.937C39.4287 139.166 40.1776 140.162 41.1013 140.162Z" fill="#FBFBF9"/>
<path d="M49.2525 204.315C50.0083 204.315 50.6211 203.702 50.6211 202.947C50.6211 202.191 50.0083 201.578 49.2525 201.578C48.4967 201.578 47.884 202.191 47.884 202.947C47.884 203.702 48.4967 204.315 49.2525 204.315Z" fill="#FBFBF9"/>
<path d="M539.912 317.933C540.678 317.933 541.299 316.9 541.299 315.625C541.299 314.35 540.678 313.316 539.912 313.316C539.146 313.316 538.525 314.35 538.525 315.625C538.525 316.9 539.146 317.933 539.912 317.933Z" fill="#FBFBF9"/>
<path d="M571.627 319.823C572.284 319.823 572.816 319.291 572.816 318.634C572.816 317.978 572.284 317.445 571.627 317.445C570.971 317.445 570.438 317.978 570.438 318.634C570.438 319.291 570.971 319.823 571.627 319.823Z" fill="#FBFBF9"/>
<path d="M593.012 329.178C593.859 329.178 594.546 328.491 594.546 327.644C594.546 326.796 593.859 326.109 593.012 326.109C592.165 326.109 591.478 326.796 591.478 327.644C591.478 328.491 592.165 329.178 593.012 329.178Z" fill="#FBFBF9"/>
<path d="M567.397 348.184C568.064 348.184 568.605 347.644 568.605 346.977C568.605 346.31 568.064 345.77 567.397 345.77C566.731 345.77 566.19 346.31 566.19 346.977C566.19 347.644 566.731 348.184 567.397 348.184Z" fill="#FBFBF9"/>
<path d="M539.912 343.344C540.678 343.344 541.299 342.723 541.299 341.957C541.299 341.191 540.678 340.57 539.912 340.57C539.146 340.57 538.525 341.191 538.525 341.957C538.525 342.723 539.146 343.344 539.912 343.344Z" fill="#FBFBF9"/>
<path d="M457.189 360.5C458.229 360.5 459.073 359.38 459.073 357.998C459.073 356.616 458.229 355.496 457.189 355.496C456.148 355.496 455.304 356.616 455.304 357.998C455.304 359.38 456.148 360.5 457.189 360.5Z" fill="#FBFBF9"/>
<path d="M434.357 356.957C434.952 356.957 435.435 356.475 435.435 355.879C435.435 355.284 434.952 354.801 434.357 354.801C433.761 354.801 433.279 355.284 433.279 355.879C433.279 356.475 433.761 356.957 434.357 356.957Z" fill="#FBFBF9"/>
<path d="M452.839 344.097C453.391 344.097 453.839 343.65 453.839 343.098C453.839 342.545 453.391 342.098 452.839 342.098C452.287 342.098 451.839 342.545 451.839 343.098C451.839 343.65 452.287 344.097 452.839 344.097Z" fill="#FBFBF9"/>
<path d="M155.326 287.273C155.878 287.273 156.326 286.826 156.326 286.273C156.326 285.721 155.878 285.273 155.326 285.273C154.774 285.273 154.326 285.721 154.326 286.273C154.326 286.826 154.774 287.273 155.326 287.273Z" fill="#FBFBF9"/>
<path d="M468.316 336.282C468.891 336.282 469.358 335.816 469.358 335.241C469.358 334.665 468.891 334.199 468.316 334.199C467.741 334.199 467.275 334.665 467.275 335.241C467.275 335.816 467.741 336.282 468.316 336.282Z" fill="#FBFBF9"/>
<path d="M485.646 319.071C486.158 319.071 486.572 318.656 486.572 318.145C486.572 317.633 486.158 317.219 485.646 317.219C485.135 317.219 484.72 317.633 484.72 318.145C484.72 318.656 485.135 319.071 485.646 319.071Z" fill="#FBFBF9"/>
<path d="M188.134 262.247C188.645 262.247 189.06 261.832 189.06 261.321C189.06 260.809 188.645 260.395 188.134 260.395C187.622 260.395 187.207 260.809 187.207 261.321C187.207 261.832 187.622 262.247 188.134 262.247Z" fill="#FBFBF9"/>
<path d="M442.444 321.144C443.294 321.144 443.983 320.455 443.983 319.605C443.983 318.755 443.294 318.066 442.444 318.066C441.594 318.066 440.905 318.755 440.905 319.605C440.905 320.455 441.594 321.144 442.444 321.144Z" fill="#FBFBF9"/>
<path d="M144.931 264.32C145.781 264.32 146.47 263.631 146.47 262.781C146.47 261.931 145.781 261.242 144.931 261.242C144.081 261.242 143.392 261.931 143.392 262.781C143.392 263.631 144.081 264.32 144.931 264.32Z" fill="#FBFBF9"/>
<path d="M402.324 337.468C403.003 337.468 403.554 336.918 403.554 336.238C403.554 335.559 403.003 335.008 402.324 335.008C401.644 335.008 401.093 335.559 401.093 336.238C401.093 336.918 401.644 337.468 402.324 337.468Z" fill="#FBFBF9"/>
<path d="M104.811 280.648C105.49 280.648 106.041 280.097 106.041 279.418C106.041 278.738 105.49 278.188 104.811 278.188C104.132 278.188 103.581 278.738 103.581 279.418C103.581 280.097 104.132 280.648 104.811 280.648Z" fill="#FBFBF9"/>
<path d="M366.36 333.469C366.955 333.469 367.438 332.986 367.438 332.391C367.438 331.795 366.955 331.312 366.36 331.312C365.764 331.312 365.282 331.795 365.282 332.391C365.282 332.986 365.764 333.469 366.36 333.469Z" fill="#FBFBF9"/>
<path d="M333.322 343.946C333.918 343.946 334.4 343.463 334.4 342.867C334.4 342.272 333.918 341.789 333.322 341.789C332.727 341.789 332.244 342.272 332.244 342.867C332.244 343.463 332.727 343.946 333.322 343.946Z" fill="#FBFBF9"/>
<path d="M334.018 320.997C334.529 320.997 334.944 320.582 334.944 320.071C334.944 319.559 334.529 319.145 334.018 319.145C333.506 319.145 333.092 319.559 333.092 320.071C333.092 320.582 333.506 320.997 334.018 320.997Z" fill="#FBFBF9"/>
<path d="M289.626 356.634C290.288 356.634 290.825 356.098 290.825 355.436C290.825 354.775 290.288 354.238 289.626 354.238C288.965 354.238 288.428 354.775 288.428 355.436C288.428 356.098 288.965 356.634 289.626 356.634Z" fill="#FBFBF9"/>
<path d="M307.477 328.697C308.075 328.697 308.56 327.833 308.56 326.767C308.56 325.7 308.075 324.836 307.477 324.836C306.879 324.836 306.394 325.7 306.394 326.767C306.394 327.833 306.879 328.697 307.477 328.697Z" fill="#FBFBF9"/>
<path d="M271.624 336.231C272.199 336.231 272.665 335.765 272.665 335.19C272.665 334.615 272.199 334.148 271.624 334.148C271.049 334.148 270.583 334.615 270.583 335.19C270.583 335.765 271.049 336.231 271.624 336.231Z" fill="#FBFBF9"/>
<path d="M231.131 329.705C231.856 329.705 232.444 329.117 232.444 328.391C232.444 327.666 231.856 327.078 231.131 327.078C230.406 327.078 229.818 327.666 229.818 328.391C229.818 329.117 230.406 329.705 231.131 329.705Z" fill="#FBFBF9"/>
<path d="M202.461 317.727C202.93 317.727 203.309 317.347 203.309 316.879C203.309 316.411 202.93 316.031 202.461 316.031C201.993 316.031 201.614 316.411 201.614 316.879C201.614 317.347 201.993 317.727 202.461 317.727Z" fill="#FBFBF9"/>
<path d="M197.554 342.377C198.172 342.377 198.674 341.564 198.674 340.562C198.674 339.559 198.172 338.746 197.554 338.746C196.936 338.746 196.434 339.559 196.434 340.562C196.434 341.564 196.936 342.377 197.554 342.377Z" fill="#FBFBF9"/>
<path d="M176.036 346.627C176.804 346.627 177.427 346.004 177.427 345.235C177.427 344.467 176.804 343.844 176.036 343.844C175.267 343.844 174.644 344.467 174.644 345.235C174.644 346.004 175.267 346.627 176.036 346.627Z" fill="#FBFBF9"/>
<path d="M146.32 332.096C147.195 332.096 147.905 331.197 147.905 330.087C147.905 328.978 147.195 328.078 146.32 328.078C145.445 328.078 144.735 328.978 144.735 330.087C144.735 331.197 145.445 332.096 146.32 332.096Z" fill="#FBFBF9"/>
<path d="M542.732 6.29909C543.345 6.29909 543.842 5.80191 543.842 5.18861C543.842 4.57531 543.345 4.07812 542.732 4.07812C542.118 4.07812 541.621 4.57531 541.621 5.18861C541.621 5.80191 542.118 6.29909 542.732 6.29909Z" fill="#FBFBF9"/>
<path d="M575.115 21.6523C576.425 21.6523 577.488 20.5899 577.488 19.2793C577.488 17.9687 576.425 16.9062 575.115 16.9062C573.804 16.9062 572.742 17.9687 572.742 19.2793C572.742 20.5899 573.804 21.6523 575.115 21.6523Z" fill="#FBFBF9"/>
<path d="M618.893 16.9044C619.797 16.9044 620.529 16.172 620.529 15.2686C620.529 14.3652 619.797 13.6328 618.893 13.6328C617.99 13.6328 617.258 14.3652 617.258 15.2686C617.258 16.172 617.99 16.9044 618.893 16.9044Z" fill="#FBFBF9"/>
<path d="M614.286 34.7887C615.029 34.7887 615.631 34.1862 615.631 33.4431C615.631 32.7 615.029 32.0977 614.286 32.0977C613.543 32.0977 612.94 32.7 612.94 33.4431C612.94 34.1862 613.543 34.7887 614.286 34.7887Z" fill="#FBFBF9"/>
<path d="M609.59 48.3098C610.407 48.3098 611.069 47.6476 611.069 46.8307C611.069 46.0138 610.407 45.3516 609.59 45.3516C608.773 45.3516 608.111 46.0138 608.111 46.8307C608.111 47.6476 608.773 48.3098 609.59 48.3098Z" fill="#FBFBF9"/>
<path d="M569.079 50.3112C569.799 50.3112 570.383 49.7274 570.383 49.0072C570.383 48.287 569.799 47.7031 569.079 47.7031C568.358 47.7031 567.775 48.287 567.775 49.0072C567.775 49.7274 568.358 50.3112 569.079 50.3112Z" fill="#FBFBF9"/>
<path d="M548.279 36.1854C548.849 36.1854 549.311 35.7233 549.311 35.1533C549.311 34.5832 548.849 34.1211 548.279 34.1211C547.709 34.1211 547.247 34.5832 547.247 35.1533C547.247 35.7233 547.709 36.1854 548.279 36.1854Z" fill="#FBFBF9"/>
<path d="M531.876 51.9014C532.278 51.9014 532.604 51.5755 532.604 51.1734C532.604 50.7713 532.278 50.4453 531.876 50.4453C531.473 50.4453 531.147 50.7713 531.147 51.1734C531.147 51.5755 531.473 51.9014 531.876 51.9014Z" fill="#FBFBF9"/>
<path d="M529.733 33.9135C530.44 33.9135 531.014 33.34 531.014 32.6326C531.014 31.9251 530.44 31.3516 529.733 31.3516C529.025 31.3516 528.452 31.9251 528.452 32.6326C528.452 33.34 529.025 33.9135 529.733 33.9135Z" fill="#FBFBF9"/>
<path d="M492.931 46.7839C493.488 46.7839 493.94 46.3321 493.94 45.7747C493.94 45.2174 493.488 44.7656 492.931 44.7656C492.373 44.7656 491.922 45.2174 491.922 45.7747C491.922 46.3321 492.373 46.7839 492.931 46.7839Z" fill="#FBFBF9"/>
<path d="M467.03 32.5909C467.974 32.5909 468.74 31.8255 468.74 30.8814C468.74 29.9372 467.974 29.1719 467.03 29.1719C466.086 29.1719 465.321 29.9372 465.321 30.8814C465.321 31.8255 466.086 32.5909 467.03 32.5909Z" fill="#FBFBF9"/>
<path d="M465.593 6.99263C466.16 6.99263 466.62 6.53257 466.62 5.96507C466.62 5.39756 466.16 4.9375 465.593 4.9375C465.025 4.9375 464.565 5.39756 464.565 5.96507C464.565 6.53257 465.025 6.99263 465.593 6.99263Z" fill="#FBFBF9"/>
<path d="M438.692 34.4456C439.486 34.4456 440.13 33.8019 440.13 33.0079C440.13 32.214 439.486 31.5703 438.692 31.5703C437.898 31.5703 437.255 32.214 437.255 33.0079C437.255 33.8019 437.898 34.4456 438.692 34.4456Z" fill="#FBFBF9"/>
<path d="M355.407 9.03641C356.061 9.03641 356.591 8.50621 356.591 7.85219C356.591 7.19816 356.061 6.66797 355.407 6.66797C354.753 6.66797 354.223 7.19816 354.223 7.85219C354.223 8.50621 354.753 9.03641 355.407 9.03641Z" fill="#FBFBF9"/>
<path d="M337.418 20.6966C338.072 20.6966 338.602 20.1664 338.602 19.5123C338.602 18.8583 338.072 18.3281 337.418 18.3281C336.764 18.3281 336.234 18.8583 336.234 19.5123C336.234 20.1664 336.764 20.6966 337.418 20.6966Z" fill="#FBFBF9"/>
<path d="M335.616 36.8634C336.276 36.8634 336.81 36.3291 336.81 35.67C336.81 35.0109 336.276 34.4766 335.616 34.4766C334.957 34.4766 334.423 35.0109 334.423 35.67C334.423 36.3291 334.957 36.8634 335.616 36.8634Z" fill="#FBFBF9"/>
<path d="M321.931 25.1402C322.512 25.1402 322.982 24.6699 322.982 24.0896C322.982 23.5094 322.512 23.0391 321.931 23.0391C321.351 23.0391 320.881 23.5094 320.881 24.0896C320.881 24.6699 321.351 25.1402 321.931 25.1402Z" fill="#FBFBF9"/>
<path d="M317.222 44.7294C317.787 44.7294 318.245 44.2714 318.245 43.7065C318.245 43.1416 317.787 42.6836 317.222 42.6836C316.657 42.6836 316.199 43.1416 316.199 43.7065C316.199 44.2714 316.657 44.7294 317.222 44.7294Z" fill="#FBFBF9"/>
<path d="M364.59 37.0266C365.064 37.0266 365.447 36.6429 365.447 36.1696C365.447 35.6962 365.064 35.3125 364.59 35.3125C364.117 35.3125 363.733 35.6962 363.733 36.1696C363.733 36.6429 364.117 37.0266 364.59 37.0266Z" fill="#FBFBF9"/>
<path d="M370.631 46.4125C371.181 46.4125 371.626 45.9669 371.626 45.4172C371.626 44.8675 371.181 44.4219 370.631 44.4219C370.081 44.4219 369.636 44.8675 369.636 45.4172C369.636 45.9669 370.081 46.4125 370.631 46.4125Z" fill="#FBFBF9"/>
<path d="M227.292 49.7362C227.862 49.7362 228.324 49.2741 228.324 48.7041C228.324 48.134 227.862 47.6719 227.292 47.6719C226.722 47.6719 226.26 48.134 226.26 48.7041C226.26 49.2741 226.722 49.7362 227.292 49.7362Z" fill="#FBFBF9"/>
<path d="M256.759 41.8204C257.482 41.8204 258.067 41.2345 258.067 40.5118C258.067 39.789 257.482 39.2031 256.759 39.2031C256.036 39.2031 255.45 39.789 255.45 40.5118C255.45 41.2345 256.036 41.8204 256.759 41.8204Z" fill="#FBFBF9"/>
<path d="M253.059 28.6452C253.685 28.6452 254.192 27.8344 254.192 26.8343C254.192 25.8342 253.685 25.0234 253.059 25.0234C252.433 25.0234 251.925 25.8342 251.925 26.8343C251.925 27.8344 252.433 28.6452 253.059 28.6452Z" fill="#FBFBF9"/>
<path d="M261.887 10.9932C262.47 10.9932 262.943 10.5208 262.943 9.938C262.943 9.35523 262.47 8.88281 261.887 8.88281C261.305 8.88281 260.832 9.35523 260.832 9.938C260.832 10.5208 261.305 10.9932 261.887 10.9932Z" fill="#FBFBF9"/>
<path d="M515.062 160.099L521.813 168.232C520.679 175.273 519.338 182.203 511.616 181.521C510.201 181.397 508.846 182.102 508.197 183.364C505.031 189.516 504.294 190.815 495.659 191.152C494.235 191.207 492.899 191.912 492.12 193.105C489.448 197.202 492.023 200.441 483.31 200.238C482.259 200.215 481.237 200.685 480.619 201.533C478.55 204.385 480.039 206.556 474.339 207.215C473.408 207.321 472.592 207.892 472.145 208.717C469.994 212.689 467.989 215.85 460.999 216.232C459.829 216.297 458.852 217.117 458.599 218.264C457.566 222.973 455.539 226.72 447.931 226.236C447.065 226.18 446.24 226.687 445.955 227.507C443.992 233.184 438.218 232.806 435.039 232.599C434.316 232.553 433.666 233.046 433.518 233.756C432.62 238.009 431.325 238.884 427.639 238.986C426.883 239.004 426.247 239.525 426.031 240.253C425.072 243.511 422.174 244.451 420.119 244.621C419.631 244.662 419.303 245.123 419.386 245.607C420.179 250.279 416.304 252.261 412.488 251.606C411.862 251.501 411.281 251.971 411.286 252.606C411.327 256.56 407.314 257.058 404.992 256.647C404.549 256.569 404.13 256.873 404.056 257.316C403.365 261.43 399.223 261.592 398.121 258.942C394.993 258.062 393.085 253.15 396.444 249.952C396.896 249.524 396.744 248.763 396.172 248.515C394.716 247.874 393.025 246.971 393.574 244.704C394.315 241.658 395.739 239.087 395.781 238.115C395.822 237.142 391.624 235.023 392.053 231.705C392.481 228.388 394.942 227.411 394.864 226.162C394.785 224.913 391.297 223.978 392.025 221.089C392.753 218.2 395.44 213.131 395.076 211.615C394.762 210.311 392.795 210.979 393.145 207.072C393.495 203.164 396.076 201.685 395.841 200.008C395.606 198.331 393.85 198.681 394.044 195.52C394.237 192.359 397.946 189.507 397.361 187.322C396.776 185.138 394.822 185.097 395.449 180.839C396.076 176.582 398.886 175.766 398.375 173.969C397.868 172.172 394.859 172.057 395.371 169.596C395.877 167.136 398.73 164.131 398.26 161.984C397.79 159.837 395.214 158.588 395.255 154.685C395.292 150.782 397.559 150.469 397.168 147.423C396.776 144.377 394.315 143.207 395.214 140.511C396.112 137.816 399.195 137.231 398.688 134.696C398.181 132.157 395.564 131.181 396.306 128.061C397.048 124.941 399.508 123.573 399.232 121.656C398.96 119.744 397.122 119.352 397.241 115.528C397.357 111.703 398.96 108.538 399.545 107.367C400.13 106.197 401.186 103.188 400.094 101.511C399.001 99.8333 396.933 100.575 397.32 102.994C397.684 105.243 397.338 108.33 393.942 109.358C393.449 109.505 393.113 109.98 393.131 110.496C393.297 114.472 390.721 115.454 389.238 115.694C388.754 115.772 388.468 116.27 388.648 116.726C389.348 118.458 390.426 121.979 387.832 122.403C385.206 122.836 383.091 121.905 383.653 124.587C384.128 126.84 386.15 132.005 381.584 129.858C377.018 127.711 377.216 131.434 378.773 136.493C380.156 140.981 375.907 140.829 374.189 140.594C373.829 140.544 373.511 140.825 373.511 141.189C373.507 142.977 373.318 147.488 371.511 147.308C370.254 147.184 366.36 144.654 367.139 149.142C367.917 153.63 369.092 157.846 365.812 157.418C362.531 156.989 358.665 157.689 361.48 161.049C364.291 164.408 362.301 167.375 359.061 167.49C355.822 167.606 360.927 170.997 358.868 175.181C357.872 177.204 354.753 177.416 353.14 177.383C352.652 177.374 352.283 177.821 352.385 178.296C352.891 180.664 353.753 186.516 349.731 186.263C344.694 185.949 344.026 184.747 347.192 191.612C347.91 193.165 343.616 193.073 341.561 192.944C341.091 192.916 340.741 193.373 340.893 193.815C341.616 195.921 342.22 200.556 336.723 201.45C336.244 201.528 335.958 202.04 336.142 202.491C337.395 205.588 338.326 209.629 333.069 210.141C332.52 210.196 332.212 210.795 332.465 211.288C334.216 214.707 333.405 218.683 327.641 219.098C327.125 219.135 326.765 219.633 326.913 220.13C327.903 223.572 328.074 226.102 323.259 226.706C324.074 229.005 324.692 231.304 320.338 231.309C319.573 231.309 319.015 232.028 319.19 232.77C319.891 235.709 320.162 238.423 315.467 239.018C314.827 239.101 314.398 239.732 314.578 240.354C315.578 243.787 316.794 246.478 312.656 247.593C312.002 247.768 311.587 248.432 311.762 249.091C312.905 253.454 311.951 255.551 307.583 256.666C306.97 256.823 306.606 257.454 306.777 258.062C307.606 261.076 307.233 265.794 301.814 265.716C301.146 265.706 300.718 266.402 301.031 266.992C302.74 270.236 301.515 272.78 297.921 273.761C297.294 273.932 296.93 274.567 297.054 275.203C297.63 278.088 295.967 279.77 293.543 280.221C292.967 280.327 292.553 280.834 292.612 281.415C292.857 283.751 290.834 286.631 286.595 286.4C289.06 279.009 282.798 280.41 283.397 278.544C283.996 276.678 286.595 277.544 285.659 273.752C284.328 272.485 281.397 271.821 282.798 268.623C284.194 265.702 287.401 262.956 285.692 261.246C283.107 258.661 282.835 257.988 284.742 253.45C286.189 250.012 280.738 249.634 282.111 245.653C283.107 242.925 286.189 241.483 286.189 239.704C286.189 237.926 282.706 237.239 283.203 234.751C283.701 232.263 286.618 231.148 286.263 229.18C285.908 227.213 283.65 226.019 284.176 223.982C284.65 222.149 287.327 221.55 286.991 219.462C286.692 217.633 282.48 216.702 284.701 213.251C286.447 210.532 286.424 208.975 284.899 207.09C283.134 204.906 287.35 204.035 286.277 201.155C285.203 198.271 282.36 197.884 284.171 195.091C285.977 192.294 288.406 192.092 287.36 189.608C286.314 187.12 284.521 188.032 285.199 184.47C285.724 181.724 281.176 180.019 281.632 177.01C282.148 173.61 285.295 171.416 284.415 169.356C283.535 167.297 280.457 166.518 282.66 161.998C284.862 157.477 285.411 155.745 283.839 154.017C282.268 152.289 282.858 148.317 284.231 146.469C285.604 144.622 287.138 142.576 284.899 141.046C282.66 139.516 285.968 135.383 286.747 134.365C287.885 132.872 287.175 130.342 285.765 127.72C283.789 124.048 284.586 121.942 282.19 124.771C279.743 127.66 282.812 136.185 274.439 141.686C273.099 142.622 275.969 147.428 267.827 153.326C267.357 153.667 267.076 154.211 267.062 154.786C267.007 156.772 267.542 161.855 259.072 167.099C260.247 176.678 252.838 182.659 250.152 184.493C249.613 184.862 249.299 185.484 249.35 186.134C249.516 188.438 249.124 194.174 242.185 199.155C241.434 199.695 240.978 200.561 240.945 201.487C240.872 203.63 240.227 207.698 236.098 211.302C235.729 211.624 235.545 212.099 235.573 212.587C235.674 214.228 234.619 217.882 231.5 220.158C231.011 220.513 230.702 221.066 230.707 221.669C230.735 224.978 228.034 231.82 219.418 236.064C218.777 236.382 218.367 237.046 218.418 237.76C218.621 240.598 217.303 247.478 210.474 251.583C209.917 251.92 209.59 252.533 209.631 253.182C209.801 255.763 209.262 261.099 204.083 264.983C203.682 265.283 203.484 265.771 203.53 266.269C203.871 269.798 201.512 274.061 196.282 277.258C196.001 277.429 195.849 277.747 195.9 278.074C196.425 281.322 196.895 288.354 190.965 289.202C189.232 289.441 189.053 285.552 189.053 285.552C187.26 286.271 183.132 286.451 183.671 283.221C184.21 279.991 186.961 277 184.929 275.148C182.897 273.296 179.247 273.835 180.805 269.347C182.339 264.923 185.707 264.444 182.897 261.274C180.086 258.104 178.685 256.887 180.427 253.081C182.837 247.819 176.856 247.879 176.856 244.828C176.856 240.585 181.1 238.847 180.86 236.156C180.62 233.465 176.257 233.046 177.69 229.521C179.123 225.996 182.533 223.024 182.173 220.434C181.934 218.702 178.763 219.356 180.321 215.112C181.874 210.869 183.754 211.647 184.03 210.15C184.809 205.906 182.772 205.127 183.072 203.929C183.371 202.731 186.832 201.957 186.362 198.547C185.763 194.243 182.772 195.317 182.772 195.317C183.814 198.483 182.98 200.787 179.74 202.75C178.252 203.491 184.684 208.542 178.413 209.288C170.239 210.256 180.381 217.26 171.875 219.227C165.756 220.043 175.778 225.162 166.092 227.033C165.41 227.166 165.005 227.876 165.249 228.526C166.806 232.701 166.617 234.576 161.12 234.078C160.443 234.018 159.881 234.604 159.991 235.276C160.701 239.737 161.65 246.556 152.891 247.621C152.204 247.704 151.767 248.404 151.997 249.058C153.052 252.086 153.918 254.339 147.919 255.104C147.117 255.205 146.61 256.012 146.859 256.781C148.223 260.983 148.619 267.716 140.749 269.48C140.095 269.628 139.648 270.222 139.69 270.89C139.934 275.125 138.164 279.733 131.962 281.083C131.497 281.184 131.147 281.585 131.142 282.06C131.082 286.64 125.972 294.344 121.364 290.976C119.733 289.723 120.987 285.953 120.987 285.953C118.54 285.953 116.909 283.696 118.789 280.24C115.9 276.788 116.088 273.964 121.927 268.628C122.867 265.614 124.184 260.781 121.678 261.974C119.166 263.168 121.051 270.383 113.393 270.448C110.822 270.826 107.933 269.066 106.675 269.821C105.421 270.572 107.744 278.484 94.8743 274.904C93.4781 274.627 95.0862 282.866 84.3731 280.092C84.0552 280.009 83.7373 280.235 83.705 280.562C83.3687 283.917 82.378 287.511 71.2732 284.986C70.9046 284.903 70.5452 285.165 70.5083 285.543C70.172 289.05 70.1996 290.653 63.3939 289.893C63.1635 289.865 62.9193 289.939 62.7581 290.105C60.6477 292.308 57.4038 290.911 57.4038 290.911C57.6526 292.732 60.2929 294.805 61.2974 294.805C62.3019 294.805 62.993 292.418 67.011 293.049C68.2643 293.427 65.0665 295.183 65.6287 296.063C66.1955 296.943 68.7021 297.694 69.1444 295.75C69.5822 293.805 71.7801 295.123 72.0335 298.196C72.2639 301.016 70.7065 304.154 67.7345 302.625C67.3797 302.44 66.9419 302.675 66.9373 303.076C66.8912 306.919 63.9745 308.965 59.9151 306.984C55.5284 304.836 57.5927 307.532 55.2704 306.859C53.2891 306.283 50.9022 303.039 50.3171 301.436C50.2019 301.113 49.8194 300.98 49.5199 301.141C47.4003 302.27 45.1932 302.91 44.8522 299.39C44.4744 295.496 44.2855 296.441 41.6498 295.496C39.0142 294.552 43.0322 290.16 41.9631 288.594C40.8941 287.022 34.4294 287.4 35.6874 283.382C36.9453 279.364 39.1386 278.986 38.5764 276.982C38.0097 274.973 34.7382 275.913 35.5261 271.268C36.314 266.623 41.3365 268.881 41.9032 268.195C42.47 267.504 40.8342 261.794 43.2856 261.919C45.7323 262.043 46.7368 268.259 48.0546 268.448C49.3725 268.637 50.6258 265.748 52.3214 266.126C54.0171 266.504 53.7038 272.153 52.1325 273.784C50.5613 275.415 54.4548 277.489 56.2104 273.784C56.9983 276.152 54.9617 279.673 53.5056 281.557C52.9803 282.235 52.8006 283.11 53.0034 283.94C53.6116 286.41 54.9893 289.7 56.7587 285.963C57.7724 283.88 58.6387 278.784 63.6658 283.751C65.2186 284.976 65.9789 283.838 66.3798 280.806C66.7991 277.627 72.78 281.12 73.9135 278.922C75.0424 276.724 77.3555 274.337 83.9584 275.282C84.4469 275.282 83.7465 270.531 90.7549 271.37C91.1742 271.42 91.5843 271.208 91.7871 270.84C92.5566 269.453 93.6993 266.743 99.1825 267.471C99.6479 267.531 100.104 267.292 100.321 266.872C101.035 265.49 102.33 262.601 108.458 263.721C108.854 263.794 109.255 263.628 109.49 263.301C110.485 261.914 113.499 258.564 117.982 260.956C118.406 261.182 119.033 261.057 119.355 260.702C121.097 258.786 122.843 256.859 125.028 258.882C127.341 261.025 129.221 262.237 125.7 266.444C125.341 266.877 125.382 267.508 125.792 267.886C127.829 269.771 128.93 271.743 126.465 274.139C126.166 274.429 126.138 274.908 126.415 275.222C127.424 276.36 125.405 279.037 124.719 280.203C126.433 281.733 127.17 282.161 128.64 277.996C130.11 273.83 132.377 269.54 131.824 266.232C132.377 264.882 136.049 265.803 136.049 265.803C136.049 265.803 133.294 260.168 134.884 258.269C136.478 256.371 138.883 256.15 139.537 256.062C140.408 255.947 138.8 249.69 140.703 249.201C142.606 248.713 146.951 249.077 144.565 246.321C142.178 243.566 144.933 238.787 149.039 237.746C150.08 236.949 148.486 229.599 149.776 228.249C151.066 226.899 156.333 228.434 156.149 225.001C155.978 221.844 155.964 216.564 161.309 216.31C162.125 216.274 162.719 215.522 162.59 214.716C162.143 211.868 161.457 207.505 163.254 206.804C165.461 205.947 168.52 207.542 168.829 198.533C168.769 196.755 169.87 194.856 173.916 195.778C175.695 196.266 176.308 185.364 177.777 184.567C179.247 183.77 181.883 185.484 183.353 179.051C184.823 172.619 192.757 171.688 191.711 182.139C191.785 183.111 195.743 184.604 191.412 191.396C190.698 191.824 195.522 195.538 191.089 201.745C190.739 202.238 190.762 202.902 191.14 203.376C192.144 204.648 193.518 207.251 190.532 210.376C190.159 210.767 190.186 211.398 190.596 211.749C193.144 213.956 194.762 217.439 190.785 220.789C190.394 221.121 190.403 221.72 190.776 222.066C193.513 224.591 194.573 227.821 191.241 230.774C190.744 231.212 190.698 231.986 191.186 232.438C193.306 234.387 194.633 237.728 190.716 241.363C190.154 241.889 190.26 242.819 190.928 243.202C193.73 244.805 195.07 247.169 192.817 251.376C192.527 251.915 192.743 252.579 193.278 252.878C196.116 254.468 195.54 256.569 192.191 259.647C191.698 260.099 191.78 260.887 192.338 261.251C195.798 263.513 196.766 268.098 191.785 274.623C194.324 275.669 197.904 272.83 198.277 266.785C198.632 261.066 198.383 255.417 204.922 254.251C205.521 254.145 205.922 253.546 205.779 252.952C204.461 247.538 206.82 241.732 212.35 240.658C212.967 240.538 213.368 239.939 213.28 239.317C212.81 235.88 211.967 228.742 219.874 228.222C220.556 228.176 221.118 227.673 221.252 227.005C221.805 224.204 223.574 217.356 227.799 216.393C228.707 216.186 229.375 215.2 229.288 214.269C228.799 208.827 228.574 201.842 235.485 200.128C236.149 199.962 236.582 199.326 236.522 198.644C236.057 193.35 236.315 187.087 245.581 186.051C246.461 185.954 247.138 185.235 247.152 184.346C247.212 180.885 246.074 174.854 252.557 172.909C253.161 172.729 253.585 172.2 253.603 171.573C253.75 165.96 255.193 159.404 262.694 157.722C260.768 151.174 264.473 147.506 267.085 146.156C267.675 145.852 268.048 145.234 268.016 144.571C267.809 140.17 269.845 134.862 274.937 132.955C275.508 132.743 275.891 132.203 275.877 131.595C275.725 124.965 276.296 120.817 283.816 120.177C283.517 115.624 287.696 112.712 287.696 112.712C290.728 114.827 290.097 120.748 288 124.541C287.784 124.932 287.816 125.416 288.088 125.771C290.226 128.623 291.391 131.927 288.935 136.023C288.696 136.424 288.673 136.922 288.88 137.341C290.359 140.373 290.336 144.193 288.728 146.502C288.461 146.889 288.548 147.409 288.908 147.713C291.898 150.239 290.521 156.021 288.042 158.924C287.747 159.27 287.77 159.827 288.106 160.136C290.415 162.293 290.599 166.398 288.608 168.873C288.295 169.26 288.341 169.813 288.677 170.181C291.608 173.375 291.239 177.812 288.668 180.825C288.452 181.079 288.41 181.438 288.558 181.738C289.935 184.585 293.493 189.525 289.617 195.137C289.387 195.474 289.461 195.958 289.769 196.229C293.571 199.552 290.613 204.081 289.129 205.768C288.889 206.04 288.903 206.454 289.157 206.717C292.815 210.514 291.041 214.38 290.028 215.956C289.765 216.366 289.829 216.914 290.189 217.246C293.129 219.978 291.908 224.936 289.23 227.282C288.871 227.595 288.843 228.143 289.157 228.503C292.603 232.438 292.76 236.106 290.35 238.94C290.055 239.285 290.051 239.787 290.341 240.133C292.935 243.234 292.447 247.036 289.387 248.902C289.046 249.109 289.014 249.579 289.323 249.832C292.539 252.422 291.875 256.283 289.276 258.329C288.959 258.578 288.94 259.039 289.235 259.315C292.143 261.993 291.631 266.439 289.415 268.139C289.069 268.402 288.991 268.867 289.212 269.245C290.668 271.743 286.678 274.747 287.705 276.94C290.691 276.42 292.857 269.549 296.216 268.656C295.032 265.398 297.584 262.407 300.229 261.711C300.879 261.541 301.146 260.882 300.851 260.278C299.054 256.592 299.851 252.657 304.74 252.206C305.312 252.155 305.694 251.606 305.583 251.044C304.911 247.727 304.851 242.501 310.002 240.99C310.514 240.838 310.79 240.271 310.583 239.783C309.412 236.995 309.251 232.042 316.071 229.268C316.628 229.042 316.96 228.461 316.84 227.876C316.089 224.241 318.034 220.527 321.766 218.398C322.181 218.158 322.356 217.651 322.167 217.209C320.844 214.076 323.761 210.518 327.051 209.993C327.512 209.919 327.788 209.449 327.618 209.016C326.318 205.689 328.595 201.704 332.129 200.418C332.497 200.284 332.709 199.911 332.64 199.524C332.06 196.133 334.055 191.4 340.321 191.622C340.796 191.64 341.077 191.11 340.819 190.714C338.266 186.797 340.589 181.724 346.007 179.226C346.399 179.047 346.611 178.618 346.528 178.199C346.003 175.425 346.081 172.172 350.537 171.333C351.14 171.218 351.491 170.601 351.288 170.02C350.021 166.343 352.14 162.353 355.251 161.09C355.702 160.906 355.979 160.459 355.91 159.975C355.435 156.547 356.449 152.506 361.752 150.962C362.259 150.815 362.536 150.285 362.356 149.787C360.96 145.935 364.388 140.129 370.231 137.742C370.797 137.512 371.124 136.931 371.046 136.323C370.585 132.913 371.272 129.305 376.972 125.951C377.303 125.757 377.529 125.421 377.557 125.038C377.866 120.541 380.165 117.739 382.621 116.753C383.063 116.574 383.335 116.117 383.271 115.647C382.773 111.998 386.436 108.362 388.427 107.141C388.846 106.883 389.049 106.39 388.975 105.902C388.602 103.414 390.569 100.741 393.177 100.068C393.647 99.9485 393.947 99.4924 393.887 99.0131C393.306 94.4007 394.638 93.0875 399.55 95.9812C404.766 99.0546 407.83 98.5339 406.121 102.944C404.416 107.353 403.01 107.989 403.697 109.206C404.351 110.367 411.701 112.583 403.618 120.417C402.983 121.034 402.923 122.052 403.517 122.711C407.231 126.835 405.904 129.701 403.909 132.6C403.471 133.236 403.453 134.07 403.877 134.715C407.051 139.599 407.779 141.553 404.093 147.432C403.692 148.068 403.771 148.884 404.245 149.469C406.895 152.704 407.171 155.533 404.512 159.537C404.167 160.053 404.204 160.749 404.632 161.196C407.194 163.859 408.724 167.804 405.015 172.6C404.628 173.103 404.757 173.817 405.273 174.186C408.705 176.618 408.627 180.36 404.531 184.005C404.065 184.42 403.987 185.152 404.388 185.627C407.065 188.802 406.706 192.566 400.877 196.773C400.352 197.156 400.319 197.925 400.817 198.34C403.536 200.588 404.397 203.837 401.292 207.5C400.951 207.901 401.001 208.486 401.434 208.777C405.651 211.629 404.517 216.951 398.306 222.6C397.725 223.13 397.79 224.056 398.444 224.489C403.033 227.526 404.181 229.904 400.683 234.207C400.333 234.64 400.462 235.29 400.941 235.567C407.927 239.585 399.273 245.496 399.628 249.809C399.909 253.21 402.743 250.284 403.43 248.33C404.079 246.483 405.296 242.603 411.014 241.52C411.622 241.405 412.111 240.962 412.281 240.368C413.608 235.686 416.373 233.751 419.474 233.359C420.013 233.29 420.469 232.917 420.635 232.401C421.833 228.724 426.487 226.273 430.473 226.015C431.127 225.973 431.721 225.591 431.956 224.982C433.611 220.748 437.172 219.255 440.26 219.232C440.951 219.227 441.517 218.716 441.6 218.029C442.218 213.066 444.466 210.546 450.705 209.601C451.507 209.482 452.203 208.975 452.53 208.233C454.244 204.316 456.649 201.39 463.953 201.321C464.897 201.312 465.685 200.644 465.902 199.727C466.805 195.824 469.795 193.423 473.726 192.907C474.611 192.792 475.343 192.161 475.541 191.29C476.458 187.299 480.799 185.055 484.637 184.378C485.407 184.24 486.061 183.705 486.296 182.963C487.383 179.517 491.166 176.826 495.074 176.388C495.995 176.287 496.802 175.706 497.147 174.844C499.248 169.582 501.354 167.928 507.879 168.366C508.777 168.315 508.247 163.357 508.247 161.555C508.234 159.74 514.284 159.164 515.062 160.099Z" fill="white" stroke="black" stroke-width="2"/>
<path d="M527.938 152.25L517.812 160.188M532.688 158.938L523 166.75" stroke="black" stroke-width="2"/>
</g>
<defs>
<clipPath id="clip0_1511_19149">
<rect width="640" height="360" fill="white"/>
</clipPath>
</defs>
</svg>
