<svg width="111" height="94" viewBox="0 0 111 94" fill="none" xmlns="http://www.w3.org/2000/svg">
<path d="M38.3572 78.8891L38.3159 78.1913L37.6465 77.9903L4.14614 67.93C3.27725 67.6691 2.53092 66.8662 2.1298 65.5421C1.73127 64.2265 1.72162 62.5109 2.25717 60.7275L18.5925 6.33167C19.128 4.54833 20.0812 3.12189 21.1386 2.24351C22.2029 1.35944 23.268 1.10056 24.1369 1.36149L107.239 26.3173C108.108 26.5782 108.854 27.3811 109.255 28.7052C109.654 30.0208 109.663 31.7364 109.128 33.5197L92.7923 87.9156C92.2568 89.699 91.3036 91.1254 90.2462 92.0038C89.1819 92.8878 88.1168 93.1467 87.2479 92.8858L52.7149 82.5154L52.0455 82.3144L51.6267 82.8739L46.0971 90.2621C43.8634 93.2464 39.1216 91.8224 38.9016 88.1013L38.3572 78.8891Z" fill="#FF90E8" stroke="black" stroke-width="2"/>
<path d="M24.2997 64.8762L24.4404 63.6039L23.1719 63.7753C22.2548 63.8992 21.3171 63.8219 20.3493 63.5312C18.7306 63.0451 17.5205 62.0925 16.6585 60.6771C15.7819 59.2377 15.2408 57.2766 15.0756 54.7668C14.7442 49.7343 15.939 42.7714 18.531 34.14C21.0705 25.6835 23.8438 19.2926 26.8593 15.3148C28.3627 13.3317 29.885 12.0041 31.4127 11.2936C32.9151 10.5949 34.471 10.4689 36.1341 10.9683C37.7807 11.4628 39.0047 12.4115 39.8741 13.8058C40.7578 15.2231 41.3042 17.1503 41.4747 19.6205C41.8169 24.576 40.6304 31.4419 38.059 40.0044C35.2731 49.2814 32.2053 56.0782 28.9012 59.9911L28.6373 60.3036L28.668 60.7114C28.8896 63.6511 29.2472 66.3446 29.5684 68.6278L23.9007 68.6393C23.9568 68.1242 24.013 67.5843 24.0711 67.0267C24.1434 66.3326 24.2185 65.6111 24.2997 64.8762ZM28.1288 44.5131L30.0865 44.8115C30.368 43.874 30.6819 42.8927 31.0145 41.8528L31.0642 41.6972C31.4143 40.6024 31.783 39.4464 32.1484 38.2294C34.3419 30.9251 35.5491 25.5532 36.0271 21.9306C36.265 20.1273 36.3295 18.7065 36.2247 17.6782C36.1727 17.168 36.0735 16.6928 35.8933 16.2999C35.7147 15.9105 35.3915 15.4712 34.8323 15.3033C34.2731 15.1353 33.7614 15.3239 33.3978 15.5505C33.031 15.7791 32.6864 16.121 32.3619 16.5182C31.7079 17.3187 30.979 18.5399 30.1841 20.1759C28.5872 23.4625 26.6351 28.6107 24.4416 35.915C22.2372 43.2556 20.983 48.7843 20.4599 52.5534C20.1994 54.4301 20.1131 55.918 20.1984 56.9933C20.2406 57.5259 20.3291 58.0192 20.4972 58.4249C20.6595 58.8167 20.9737 59.3026 21.5658 59.4804C22.0144 59.6151 22.4351 59.5143 22.758 59.3567C23.0733 59.2028 23.3565 58.9678 23.6079 58.7099C24.1122 58.1928 24.6454 57.4196 25.2056 56.4318L25.3066 56.2537L25.3295 56.0503C25.4716 54.7875 25.6187 53.4885 25.7687 52.1636C26.3905 46.6709 27.0626 40.733 27.6424 35.0875L28.6228 35.2027C28.3111 38.4178 28.1608 41.5449 28.1288 44.5131ZM57.4818 35.2601L57.3826 37.979L59.219 35.9715C61.8946 33.0467 63.6645 30.6046 64.3322 28.3811C64.5604 27.6213 64.6664 26.8045 64.4583 26.0676C64.2294 25.2567 63.6485 24.6538 62.7794 24.3928C61.8325 24.1085 60.8668 24.2315 60.0459 24.9296C59.2978 25.5658 58.7694 26.598 58.3758 27.9087C57.8452 29.6757 57.5882 32.3443 57.4818 35.2601ZM60.4783 55.5933C63.6198 50.4074 66.6969 44.343 70.7093 35.1172L75.6303 37.3768C69.0655 49.3944 64.613 56.7669 60.5435 62.1084L60.2363 62.5115L60.3799 62.9976C61.6902 67.4341 62.9326 71.0191 63.9381 73.5376L58.6046 75.5429C57.7915 73.4469 57.086 71.1768 56.4141 68.945L55.9825 67.5112L54.8235 68.4592C51.5989 71.0968 48.3655 72.022 45.18 71.0654C42.3372 70.2117 40.4547 68.394 39.4957 66.0054C38.5259 63.5899 38.4726 60.5118 39.4802 57.1567C41.3004 51.0955 45.2686 46.2931 51.6622 40.0247L51.9726 39.7204L51.9618 39.2858C51.8189 33.5326 52.1508 28.8853 53.0627 25.8486C53.9489 22.8976 55.3011 20.9751 57.055 19.9761C58.7981 18.9832 61.1412 18.7878 64.2661 19.7262C66.7683 20.4776 68.3399 21.8967 69.1654 23.5417C69.9979 25.2008 70.1141 27.1755 69.5383 29.0928C68.9768 30.9625 67.8083 32.8566 65.8915 35.0224C63.9727 37.1905 61.3481 39.5828 57.9312 42.4578L57.5525 42.7765L57.5762 43.2709C57.7776 47.4645 58.1936 51.7967 58.6311 55.2026L58.9957 58.0407L60.4783 55.5933ZM52.4848 47.1107L52.222 44.5439L50.6864 46.6173C48.1921 49.9851 46.4892 53.0013 45.1486 57.4652C44.2984 60.2965 44.1366 62.3378 44.5182 63.8006C44.9262 65.3645 45.9319 66.1781 47.0581 66.5163C49.0786 67.1231 51.5884 66.2034 54.6138 63.3909L55.0301 63.0039L54.9106 62.4482C53.7795 57.188 52.9801 51.9494 52.4848 47.1107ZM83.2096 56.778L82.3191 56.5106L81.9877 57.3793C78.9334 65.3852 76.0796 73.2391 73.9591 79.1658L68.5109 77.5297C74.468 63.7586 82.4662 44.4206 89.133 27.7358L97.6266 30.2865C95.2615 41.5084 90.0398 68.8465 87.4876 83.2285L81.9741 81.5728C83.2065 76.8008 85.2695 68.2998 87.418 59.0189L87.6295 58.1053L86.7314 57.8356L83.2096 56.778ZM84.1634 50.9864L83.7803 51.9912L84.8102 52.3004L87.7059 53.17L88.7227 53.4754L88.9667 52.4421C90.5396 45.7822 91.9913 39.2417 93.0516 34.2886L93.2447 33.3868L92.3614 33.1215L92.1266 33.051L91.2539 32.7889L90.912 33.6336C88.9237 38.5462 86.5737 44.6646 84.1634 50.9864Z" fill="#FF90E8" stroke="black" stroke-width="2"/>
</svg>
