<svg width="177" height="157" viewBox="0 0 177 157" fill="none" xmlns="http://www.w3.org/2000/svg">
<path d="M91.3282 134.309L90.9263 133.738L90.2512 133.918L35.4236 148.609C33.7365 149.061 31.8129 148.472 30.0297 146.899C28.2533 145.331 26.7182 142.858 25.9089 139.838L2.05455 50.8123C1.24526 47.792 1.3385 44.8833 2.09302 42.6372C2.85036 40.3827 4.2217 38.9107 5.90875 38.4586L141.915 2.0158C143.602 1.56375 145.526 2.15294 147.309 3.72674C149.085 5.29465 150.621 7.76699 151.43 10.7873L175.284 99.813C176.094 102.833 176 105.742 175.246 107.988C174.488 110.243 173.117 111.715 171.43 112.167L114.912 127.31L114.237 127.491L114.175 128.188L112.088 151.58C111.757 155.293 106.975 156.574 104.832 153.525L91.3282 134.309Z" fill="#FF90E8" stroke="black" stroke-width="2"/>
<path d="M59.9174 126.866L59.3682 125.71L58.3792 126.522C57.146 127.535 55.7045 128.268 54.0403 128.714C51.2403 129.464 48.5995 129.163 46.0672 127.876C43.5099 126.576 41.0195 124.247 38.6151 120.874C33.7989 114.117 29.4853 103.399 25.6944 89.2516C21.9807 75.3918 20.3331 64.1164 21.1133 55.9395C21.5027 51.8582 22.491 48.6179 24.0681 46.2209C25.6299 43.8472 27.798 42.2536 30.6674 41.4848C33.5078 40.7237 36.1623 41.004 38.6883 42.2547C41.2387 43.5174 43.7089 45.796 46.0879 49.111C50.8548 55.7534 55.0972 66.3319 58.8576 80.3656C62.9305 95.5659 64.5233 107.669 63.2804 116.021L63.2202 116.426L63.4608 116.757C66.4435 120.858 69.402 124.446 71.8897 127.435L62.8758 133.031C62.4298 132.088 61.9466 131.087 61.4418 130.041C60.9494 129.021 60.4364 127.959 59.9174 126.866ZM48.9275 94.9004L50.7497 94.1251C50.3371 92.5855 49.932 90.9582 49.5045 89.2408L49.4399 88.9813C48.9892 87.1712 48.5131 85.2657 47.981 83.2799C44.7819 71.3405 41.8757 62.931 39.4645 57.5656C38.2623 54.8904 37.1624 52.9249 36.1838 51.651C35.6969 51.0172 35.203 50.5053 34.6994 50.1702C34.199 49.8371 33.5654 49.6018 32.8908 49.7826C32.2162 49.9633 31.7851 50.4839 31.5182 51.0226C31.2497 51.5646 31.0779 52.2549 30.9732 53.0472C30.7626 54.6397 30.7928 56.8918 31.0893 59.8098C31.6838 65.6619 33.3718 74.3979 36.5709 86.3373C39.7859 98.3356 42.7614 107.004 45.2365 112.612C46.4709 115.409 47.5998 117.489 48.5956 118.847C49.0905 119.522 49.5887 120.069 50.0914 120.432C50.5818 120.785 51.2338 121.07 51.9415 120.881C52.48 120.737 52.8605 120.368 53.1165 119.962C53.3679 119.564 53.538 119.074 53.6567 118.541C53.8945 117.474 53.9729 116.013 53.9043 114.192L53.8966 113.988L53.8091 113.803C52.9277 111.938 52.0224 110.019 51.0991 108.061C47.1839 99.7626 42.946 90.7797 38.8458 82.3283L41.4243 81.1255C43.8056 86.0151 46.3515 90.6297 48.9275 94.9004ZM81.5621 57.1004L82.907 59.4654L83.4138 56.7924C84.6108 50.4799 84.943 45.7211 84.0074 42.2295C83.6885 41.0394 83.1799 39.9517 82.3886 39.2261C81.5405 38.4484 80.4449 38.1618 79.2242 38.4889C77.8514 38.8567 76.8047 39.7141 76.3401 41.1518C75.905 42.4985 76.0217 44.2337 76.5851 46.3363C77.3375 49.1444 79.2231 52.9874 81.5621 57.1004ZM101.88 82.9264C101.792 72.9981 100.847 61.8744 98.4511 45.3868L108.465 44.1481C109.688 66.728 109.847 80.9155 108.771 91.9195L108.721 92.424L109.099 92.762C114.959 98.0072 119.91 102.016 123.47 104.616L117.053 112.925C113.955 110.624 110.859 107.933 107.87 105.285L106.749 104.293L106.262 105.708C104.016 112.228 100.219 116.465 94.745 117.931C89.9117 119.227 85.5667 118.288 82.0507 115.695C78.5114 113.085 75.747 108.745 74.2487 103.153C71.5468 93.07 72.9654 82.9214 76.447 68.8011L76.5511 68.3791L76.3135 68.0151C71.2016 60.1846 67.6487 53.4175 66.2901 48.3473C64.9727 43.4305 65.1728 39.4423 66.8462 36.3754C68.5138 33.3194 71.757 30.9732 76.9732 29.5755C81.2172 28.4384 84.7764 29.0693 87.4791 30.7345C90.1953 32.4079 92.1276 35.1762 93.0043 38.4482C93.8562 41.6277 93.8475 45.3383 93.0408 50.0119C92.2335 54.6885 90.6392 60.2655 88.3729 67.1555L88.2183 67.6257L88.4984 68.0338C92.3434 73.6358 96.6033 79.248 100.104 83.5651L101.906 85.7877L101.88 82.9264ZM83.7385 78.4098L82.1656 76.3645L81.9493 78.9356C81.3838 85.6554 81.6044 91.1978 83.5399 98.4212C84.7712 103.017 86.2516 105.84 87.9027 107.415C89.6294 109.063 91.4825 109.289 93.1344 108.846C96.1061 108.05 98.6969 104.932 100.459 98.5227L100.61 97.9747L100.216 97.5648C94.1505 91.2511 88.5633 84.684 83.7385 78.4098ZM135.054 65.766L134.156 66.0067L134.331 66.9199C136.994 80.8365 139.81 94.3586 141.954 104.41L131.79 107.133C128.248 82.8449 122.688 48.6813 117.583 19.5664L132.587 15.5459C138.81 32.8717 155.429 76.3869 164.2 98.4488L153.922 101.203C151.602 93.6871 147.102 79.8839 142.024 64.8673L141.724 63.9789L140.818 64.2216L135.054 65.766ZM131.881 56.2388L132.083 57.2948L133.122 57.0165L137.861 55.7467L138.886 55.4719L138.551 54.4647C135.042 43.9339 131.468 33.671 128.707 25.9324L128.398 25.0638L127.507 25.3024L127.122 25.4054L126.242 25.6412L126.396 26.5395C127.84 35.0102 129.815 45.4552 131.881 56.2388Z" fill="#FF90E8" stroke="black" stroke-width="2"/>
</svg>
