<svg width="304" height="193" viewBox="0 0 304 193" fill="none" xmlns="http://www.w3.org/2000/svg">
<path d="M164.825 144.147C156.591 96.0922 171.819 82.2598 221.676 73.7174C272.804 64.957 291.754 72.8088 300.327 120.93C309.007 168.722 291.035 179.998 240.543 188.65C192.315 196.913 173.028 192.02 164.825 144.147Z" fill="#FF90E8" stroke="black" stroke-width="2" stroke-miterlimit="10"/>
<path d="M208.094 169.603C204.44 174.399 198.588 177.537 190.774 178.99C187.061 151.76 182.952 123.261 179.092 97.9613C186.694 97.1314 192.936 97.7012 197.503 99.8703C202.198 102.1 205.226 106.067 206.124 112.292C207.089 118.984 204.064 123.228 200.35 125.527L199.793 125.872L199.886 126.52L199.934 126.849L200.018 127.435L200.572 127.643C206.071 129.706 210.432 136.736 212.128 148.502C213.447 157.651 211.899 164.609 208.094 169.603ZM197.664 166.269L197.929 168.103L199.317 166.875C203.104 163.522 205.454 158.117 204.121 148.872C203.289 143.099 201.942 139.042 200.224 136.347C198.486 133.62 196.337 132.249 193.984 131.993L192.716 131.855L192.885 133.12C193.858 140.387 194.958 147.841 196.051 155.255C196.596 158.945 197.139 162.626 197.664 166.269ZM191.557 123.913L191.731 125.12L192.881 124.712C194.687 124.073 196.276 122.854 197.295 121.023C198.313 119.195 198.718 116.836 198.307 113.979C197.985 111.75 197.208 109.889 195.832 108.531C194.451 107.167 192.571 106.413 190.248 106.205L188.988 106.092L189.169 107.343L191.557 123.913ZM220.725 174.255C218.134 154.825 213.144 120.223 209.142 93.9368L228.003 91.2175L229.152 99.1812C227.092 99.3944 225.423 99.5884 224.012 99.7557C223.773 99.784 223.542 99.8115 223.318 99.8381C221.998 99.9952 220.922 100.123 219.942 100.217L218.898 100.317L219.048 101.355C219.364 103.547 219.658 105.769 219.959 108.051L219.98 108.21C220.289 110.545 220.606 112.941 220.963 115.417L221.11 116.435L222.124 116.259C223.721 115.982 225.429 115.709 226.975 115.461C228.402 115.232 229.691 115.026 230.628 114.859L231.815 123.09C229.795 123.29 226.297 123.718 223.124 124.176L222.143 124.317L222.276 125.3C224.018 138.16 225.981 151.772 227.895 164.271L228.045 165.251L229.026 165.11C231.949 164.688 235.319 164.108 238.957 163.31L240.132 171.457L220.725 174.255ZM247.672 97.4374C250.441 118.925 255.666 154.476 257.957 168.887L249.433 170.116C247.574 155.738 242.537 120.063 239.448 98.6381L239.306 97.6483L238.316 97.791L238.2 97.8078C236.304 98.0812 234.356 98.3619 233.058 98.5973L231.913 90.6539L252.318 87.712L253.463 95.6509C253.059 95.6948 252.598 95.7522 252.115 95.8156C251.024 95.959 249.729 96.1456 248.525 96.3192L248.521 96.3198L247.546 96.4603L247.672 97.4374ZM265.804 96.6306C266.087 98.5946 267.396 102.514 269.152 107.324C270.589 111.26 272.36 115.88 274.199 120.676C274.629 121.797 275.062 122.927 275.496 124.061C277.788 130.053 280.09 136.137 281.915 141.392C283.751 146.675 285.072 151.034 285.444 153.613C286.041 157.755 285.266 160.889 283.632 163.089C281.996 165.291 279.399 166.692 276.088 167.169C273.358 167.563 270.527 167.363 267.945 166.749L268.977 158.894C270.438 159.533 271.873 159.716 273.084 159.542C274.313 159.365 275.417 158.749 276.151 157.746C276.888 156.739 277.196 155.421 276.982 153.937C276.607 151.329 275.269 147.009 273.502 141.94C271.724 136.841 269.477 130.89 267.239 124.977L266.972 124.273C264.822 118.593 262.698 112.983 261.013 108.205C259.248 103.197 258.003 99.2062 257.687 97.0167C257.188 93.5563 257.901 90.6715 259.466 88.551C261.029 86.431 263.515 84.9775 266.747 84.5116C269.843 84.0653 272.575 84.4856 274.712 85.1635L272.614 92.4671C271.406 91.999 270.008 91.7658 268.825 91.9363C267.74 92.0927 266.848 92.6392 266.303 93.5355C265.773 94.4051 265.639 95.4898 265.804 96.6306Z" fill="#FF90E8" stroke="black" stroke-width="2"/>
<path d="M158.952 1.36731L2.19727 75.4116L49.1187 174.746L205.873 100.702L158.952 1.36731Z" fill="#FF90E8" stroke="black" stroke-width="2" stroke-miterlimit="10"/>
<path d="M79.4605 48.9255C94.5863 79.7373 111.261 112.406 121.041 131.553L112.093 135.863C110.414 132.266 108.94 129.005 107.436 125.679C104.537 119.265 101.529 112.609 96.7319 102.836L96.7266 102.825L96.7211 102.814C93.6807 96.9756 89.4424 87.8736 85.4529 79.3056C84.5711 77.4119 83.7014 75.5442 82.8595 73.7436L82.5944 73.1765L81.9684 73.1673L81.6868 73.1631L80.2769 73.1423L80.7235 74.4797C84.6386 86.2049 89.1815 98.8392 93.3982 110.566C96.1949 118.344 98.848 125.722 101.079 132.172C99.4538 132.88 97.6172 133.762 96.2002 134.516C90.6176 125.749 84.5595 116.074 78.4208 106.27C73.3581 98.1853 68.2407 90.0128 63.2902 82.1897L62.5271 80.9839L61.6542 82.1127L61.4818 82.3355L61.0987 82.8309L61.3771 83.3919C63.1412 86.9455 64.9978 90.6914 66.8546 94.4376C69.9491 100.681 73.044 106.925 75.7115 112.282C81.4306 123.875 87.4525 136.369 91.7916 145.641L82.9518 149.898C75.7748 133.336 63.544 106.475 51.585 80.2097C49.3423 75.2842 47.1091 70.3796 44.9207 65.5679C45.9761 65.0573 47.8005 64.1712 49.6394 63.2611C50.961 62.6071 52.2945 61.9385 53.3569 61.3871C53.8641 61.1239 54.3146 60.8848 54.6747 60.6852C56.4543 63.2334 58.9718 66.7776 61.8925 70.8894C67.7621 79.1527 75.2601 89.7084 81.6696 99.0798L83.4508 98.2211C81.41 91.5884 79.0643 83.7712 76.8541 76.406C73.9337 66.6736 71.2501 57.7305 69.8199 53.3521C70.9338 52.868 72.7896 52.0209 74.6053 51.1838C76.4641 50.3268 78.3382 49.4532 79.4605 48.9255ZM132.656 125.958L123.736 130.255C115.112 106.073 102.423 72.1174 91.2664 43.2465L104.466 36.8888C114.1 53.5526 139.302 95.3671 152.375 116.461L143.354 120.806C139.536 113.525 132.278 100.153 124.208 85.6302L123.75 84.8056L122.9 85.215L117.793 87.6749L116.95 88.0811L117.299 88.9494C122.843 102.716 128.446 116.058 132.656 125.958ZM162.072 102.125C164.329 101.038 166.812 99.7293 169.438 98.2393L173.339 106.34C168.34 108.623 162.186 111.481 155.752 114.801C147.022 95.6104 123.541 47.3873 115.626 31.5139L124.913 27.0408C131.737 42.015 147.947 75.3861 160.739 101.662L161.175 102.557L162.072 102.125ZM183.242 91.9289C185.499 90.8418 187.981 89.5332 190.607 88.0432L194.509 96.1438C189.509 98.4272 183.355 101.285 176.921 104.605C168.191 85.4142 144.71 37.1911 136.795 21.3177L146.082 16.8446C152.906 31.8188 169.116 65.1899 181.909 91.4657L182.345 92.361L183.242 91.9289ZM112.665 78.4576L113.065 79.4483L114.027 78.9848L118.226 76.9622L119.177 76.5041L118.668 75.5791C113.068 65.4046 107.464 55.5125 103.177 48.0636L102.713 47.2583L101.876 47.6615L101.536 47.8255L100.708 48.2243L101.035 49.083C104.239 57.4788 108.372 67.8023 112.665 78.4576ZM31.0629 85.9548C32.0337 87.9705 34.7816 91.7573 38.3329 96.373C41.2357 100.146 44.7335 104.545 48.366 109.114C49.2148 110.181 50.071 111.258 50.9287 112.338C55.4612 118.047 60.0374 123.854 63.8139 128.927C67.6081 134.023 70.5386 138.304 71.8299 140.985C73.9048 145.293 74.1458 148.992 73.1122 151.977C72.078 154.964 69.7126 157.394 66.263 159.055C63.3839 160.442 60.1847 161.199 57.1239 161.407L55.5032 152.241C57.3542 152.471 59.013 152.183 60.2817 151.572C61.5232 150.974 62.4814 149.957 62.9213 148.657C63.3626 147.352 63.2519 145.854 62.5261 144.347C61.2337 141.664 58.3153 137.451 54.6656 132.56C50.9969 127.645 46.5278 121.966 42.081 116.324L41.5507 115.651C37.2792 110.233 33.0582 104.878 29.5983 100.276C25.9739 95.4549 23.2517 91.5457 22.1542 89.2669C20.4174 85.661 20.1972 82.254 21.1805 79.382C22.1637 76.5106 24.3887 74.0599 27.7591 72.4365C31.0382 70.8572 34.2151 70.3858 36.8045 70.4066L37.0364 79.3202C35.5473 79.2018 33.9085 79.4194 32.6685 80.0166C31.5786 80.5416 30.8283 81.408 30.5546 82.522C30.2883 83.6057 30.5037 84.7938 31.0629 85.9548Z" fill="#FF90E8" stroke="black" stroke-width="2"/>
</svg>
